<mxfile host="Electron" modified="2023-05-17T23:05:29.464Z" agent="Mozilla/5.0 (X11; Linux x86_64) AppleWebKit/537.36 (KHTML, like Gecko) draw.io/21.2.8 Chrome/112.0.5615.165 Electron/24.2.0 Safari/537.36" etag="gfwEqMJawMBByEETiggp" version="21.2.8" type="device">
  <diagram name="Page-1" id="E_0-sKLbyx-F21sYBnx9">
    <mxGraphModel dx="1356" dy="565" grid="1" gridSize="10" guides="1" tooltips="1" connect="1" arrows="1" fold="1" page="0" pageScale="1" pageWidth="850" pageHeight="1100" math="0" shadow="0">
      <root>
        <mxCell id="0" />
        <mxCell id="1" parent="0" />
        <mxCell id="TUQ-kvWmkpdN_xwGLiBi-1" value="" style="shape=image;verticalLabelPosition=bottom;labelBackgroundColor=default;verticalAlign=top;aspect=fixed;imageAspect=0;image=data:image/png,iVBORw0KGgoAAAANSUhEUgAABQAAAAEBCAYAAAAn9whBAAAACXBIWXMAABiUAAAYtAGqPwksAABv6ElEQVR4nO3dCWAU1f0H8O/skfvc3CEHBJIQ7hBu8RZEULSCKGprPbC21Wpbta3/1mprPWo9axXv+wAvQFABAbmPEBJyEHLA5r6PzZ3sNf/ZTUIOkuwsLAHW78du2ey+nXlv9r03b34780aVry0Wr79hCYiIiIiIiIiIiOj85Ofri44O/Ym/x8bHQVtQgHfeegeqs5gvIiIiIiIiIiIiOsMYACQiIiIiIiIiInIyKSkp0AQEWJ8zAEhEREREREREROTEGAAkIiIiIiIiIiJyYgwAEhEREREREREROTEGAImIiIiIiIiIiJwYA4BEREREREREREROJikpCdqCAutzBgCJiIiIiIiIiIicGAOARERERERERERETowBQCIiIiIiIiIiIifGACAREREREREREZETYwCQiIiIiIiIiIjIyaSkpEATEGB9zgAgERERERERERGRE2MAkIiIiIiIiIiIyIkxAEhEREREREREROTEGAAkIiIiIiIiIiJyYgwAEhERERERERERnedEUYTlv25Tk5Kg1WqtzxkAJCIiIiIiIiIicmIMABIRERERERERETkxBgCJiIiIiIiIiIicGAOARERERERERERETowBQCIiIiIiIiIiIieTkpICjUZjfc4AIBERERERERERkRNjAJCIiIiIiIiIiMiJMQBIRERERERERETkxBgAJCIiIiIiIiIicmIMABIRERERERERETmZpKQkaLVa63MGAImIiIiIiIiIiJwYA4BEREREREREREROjAFAIiIiIiIiIiIiJ8YAIBERERERERERkRNjAJCIiIiIiIiIiMjJpKSkQKPRWJ8zAEhEREREREREROTEGAAkIiIiIiIiIiJyYgwAEhEREREREREROTEGAImIiIiIiIiIiJwYA4BEREREREREREROJikpCVqt1vqcAUCSTZ10J177rQc+uO8V7GgRz3Z2hjE/aky5+xk84LUav3l+H1rP4JqIiIiIiIiIiBzt/A8Aqqdh0p0rEKwQAbMehpYKNBTuRWHKdtS3mC0JEDz/OUyKdR1kAWY0HXgCB5JL4ZAQkjU/t8Nlz6NISa/tWqYKAZc+jSmhu5H82ddoFNXwnXwbxowdDU8/XymH7WivyUZ5ylcoKKiFWe66FKG49rFHsWyUUvpDhGg2orW+HEf3bcSnXx1Eud4RBaLzgnIUxiz7AwLyn+6sy8NZD4mIiIiIiIjonHb+BwCtTGg89DKO5HfAxS8WoVMXI/H6SGR8+SGqW42o2/sM9h9SWIMgihHXIGlOCMo3vY2SBssrIsytlY4J/skmQDBWo+ZwCgoadTCYveCTsBixC+6D4usnkF9ptGtp7amf4vHPjsIouMAncjqW/fJ2/EGsxZ9XaaUtQ85PgOuYBQh3O4ycjDI76rJj6yERERERERERnZvOvwCgwhveI2cgPD4W7QffQKHO8qIliFeNlppaNNdoUVfeDJebb8XoCdtQc6AYxqZSNDV1fdyrDWZRj476YjTX9YRKVKOXY+LIZlRk70FVeS1McqMoA+bHFj10WWvRO2ljjQr+sXfBP8wfqKy2Iz8ixNY6lJdVwCD9VVZWix8vuBR3jIqEt6CFzhr19MG4hctw0+UTEOWnQFtlPvas+xyr9pTjxEmCctL0owqZhV89tAwj0t/Dsx+lo3H0Ujz7p1iUZLpj3AQ3aL/7BhnRV2LxeFcUfrMSz645hnYI8Iy/DLdcOwvjo0Pg6y6iuTwPezd8ic/7rEuA32X348XravDmO/WYtvQiTAz3BJoKsf7l57Dm2Mnnp/XPT725s1zjF1nKNR6RvmoYmmpRdOQHvPfGThTbeYqbqArB3NsfwqI50fDRV+HwplV455scNJo783umynVSHavul0YZiYjEcejIehZV7faEsh1ZD4mIiIiIiIjoXHWeBAAFqP3HI2TcXITHTYAnylGbuwMVTYNEI1ozUVNpRlxEPNySi9EmI2hhqsmCbuTlGLXoKoxty7UGPMqOpqKhxXD6+bFVOpUffMfNgZ+iHpVVDaeQn24KeEZOx7RRQNWOYnRmR0DovBX4w7Vu2PnOC3glT4+QmdfjVyvug0vTP/FORhtEWWn6Uo+Yi98+eD00+9/AU6uPoskMWC5EhtITTXv+hyfzbsL/LVuMprdfwGMHr8FfbroICd8eQ6pegKufDzoyN+KNz0tQ2QQETlqIFXf9Dq6Nj+GdzI4+6xE9p2DpwmSseuMJvFqmh/eo8RgxwHx/A+XHwm3y9fjtdaHYv/J5vJTXDJVfKOIm+Epbyn6q8Zdg9vcf4vlHiiHEXCHl+Ve4p+EJ/OfHOpjh6HLJrWNSupgFiPDMRE5m8Wmdyeq4ekhEREREREREZ1tKSgo0Go31+bkdAFQHQRN7AcITZiE4QERTwQGUbV2HyqIyGLojHeoBPie2ob3FACHcHy4CZAUAxYZ0aLdIj+0a+MXMQFj8IkyZfhP0Jckoy96N8oIi6BVy86OC34VP4vIL+62jru/fQuDVmLn0anhaolEdxSjZ9ALyy/Ty89MV4HObfQ/enGEGFCqohA6U7/sEz3/ddfmvIhyzLxqF1l2v4JO9hdazBKu++xTfJP4DN1w8Hp9kHESbnDS98u028lI88KuFcN/6Kp5Zm48+cStTKbLSy1EQpkWtEcjOqECZMh+V6skI8pIKWmdG3f6v8X6vj9T8+A22XPh3XDY+HIpMbZ+55wRVI3Z//AX2FXVezFyXdwj9NuMQ+VHAXaro7vpKZGeVoKZVekNXj4qCoevCoOr2Y/UXh1Bo2UDVX+GLyUm4/6IkBO3YjEqzg8olp873phiByMSJ0B95DlWt/RMMUz3kdeZERERERERE57RzOAAoQD16GaZckgB94XqkfrQJ9a3DcFsCYx10ud9bH7n+sxA370aMmZ8A9VePo9Bfbn5MaEp9FUdyG7rOyFLCb/r9iPfrm0qs347Dq1Ohcg2Ab/xCjL7oZrTqVqK4rtfZVYPm5zHkV3cm6Ti8umcOwIiJWHTTjXhgWR0e/+QoWpXBCA8Gyn4ow4kZ3cwNKCpqgio+BAEKoEROmu6iKsdg2e8S4ObagF3FVTgp5mQ2WANCosEAo2hEh0GUtoFR+k8NVVewVuETg0sXz8cF4yIQ6OUKpVKAq7sK7QWu1jPzem9Vsa0Q+WVDRJiGzI8ZDWm7cHDhL/Drpx/BxUeOoaDgGFL3pyK/3v757YzlpSg98TEDyqT1YXIIgqVMV5odUS5767yUftQCRPgcRV564QA37RimeljJ24UQERERERERncvO4QCgCKN2DTL31CI8YR4Sb56N+mP7UZ6zH9W25iIT3OHmoYbYqus6S84OlvnWoqYhNH4mQqLDgZpUFGzbhdIaE4w6ufkRYWouR3NNz91XXdsHCGKZmtBWZ5mcsBRNFZVQBT6KUYkJKN2S3hPMGTQ/5hPr6jMHYGkxytzH4OWfX4Fp63Kwo93O8tvUjqxPn8f3Qbfi4Tt+jiOFr2JHzcAbWey8x0rX/wnSf9K/iiBc8dv7sdRlF95/fw1yqlphFH1x4b1/wgJBOGkZgt4w8JlvMvNjrj2A//05ByMTxiIudgymXHYrFl89DW/+/XXsqHVg4Moh5bKzzgthiEiaDGP2i6ga4LLo4a2HRERERERERHSuOocDgIDYUYqqtM+kxxdwDUlEWMIcxCy8GmM7jqMmdxcK0/afmOutD48JCAxVoC09B3LviSB4j0dk4iUIG5MAT3MJqo/uwZHVyajT9br41XSK+ZGXA+l/AlQu7tazxUQ5+RlkIjuT0QBR4QlPV2mZLVUorwLio8KlL7vRGiSEwheRkd4wVlShMwYmJ033wkuQklyEbP17+Grsw/j53Zfj2L9/6HVmnA0uozB+jBmHXvkau3O6PqQOR0CgEiixZ3vZkR9DAwrS91sfm78/ht+/dCumxqqxo7Zj0MUORBU2AiOkFtNo3UBqhEUGQyw/hAqz48olq853dAZUVSOvRIRPLo5vcOTdnk+hHhIRERERERHROe2cDgD2MKKjMhkFlscuy1xksxGeMAOBPgfQpLO8L0DhEQSPAG+4+McibOpCaNr3ISND7k0RBKhCkxDiWYmyrWtQUVhq46wzW/mxQZWAmEvHw1SYi8bGRpgUfvCNuwrRQW2oyciBya78CBA8NAgLD5VypYJnSCzmXTMOKP0OR+rMgLkMe3YUYOHSJbg550N8l69H8IwlWBzbhH0vZMF6gqCcNP0ZSrHhja8x/vHrcc+1+fjnlwXyglD6apTXqZE4PgZeh3PRLPhg/M8W4wJ/DHq3YVkGyI8eCgRMX4h5vsU4lF2K6lYlQmdMwUhFFXaUn8JNLPxnYNnSo3hvcwmE0VfghukKZH14qDNA6vByDVHHqqXKIIRgxNREmHL+i/KWU4w6O7QeEhEREREREdG5JCkpCVqt1vr8PAkA9mKdi2yD9Oj62zqvnBI+SQ9gVqIehpZKNBauQ+rB7ag/aYK6wYgw5H2A5DxH5ccGcxM6jKEYMWMGRnp6WW/c0VGXj7KtH0Gbo7MGLe3Jj1vicjyVKEI0m9DeVIPCzA148fNNKDR3lq1i85t4wXUZblr+R/zbV4H2quPY+/Yr+Oxwa1eAVE6aAYpRuQNvfjgW/7jzdtyU/Qw+kRNTMxdg7covobntdvznZaC1pQkl0ne18WgULpVX3MEX3S8/Hx5pg75dQNhV1+N3SwPg42ZGU1ke9r7xBtYW2h80Mx7Zjr0eC/DgUxHw0lfh8Dcr8c6uus7LZM9guU6qYxJl1HxEao5Du+nYAHP/yeTgekhERERERERE56bzLwDYn+Eg0lcelJ3cXPAutq8c7vwYUbvtQWzp/lMsQem2V1B6uusyV2Dto7/BWpvpGpC17k38bd3ppTGkvI277ujzIdTuXonf7u7++wv84e6upyUb8H8rup637MCTK3ac+FTbsW149dFt/Za+W/p0byJ0W1/EL7eeTn6Apoxv8IL0OD0GpL3xB9xufb4Wm94eKI3osHLZJAQhYuo0iDmvomKwa86Hsx4SERERERER0Tnt/A8AEv3UuPrCVLwG2dm5Dpz7j4iIiIiIiIicFQOAROeb9nyUHMw/27kgIiIiIiIiovMEA4BEREREREREREROJiUlBRqNxvqcAUAiIiIiIiIiIiInxgAgERERERERERGRE2MAkIiIiIiIiIiIyIkxAEhEREREREREROTEGAAkIiIiIiIiIiJyMklJSdBqtdbnDAASERERERERERE5MQYAiYiIiIiIiIiInBgDgERERERERERERE6MAUAiIiIiIiIiIiInxgAgERERERERERGRk0lJSYFGo7E+ZwCQiIiIiIiIiIjIiTEASERERERERERE5MQYACQiIiIiIiIiInJiDAASERERERERERE5MQYAiYiIiIiIiIiInExSUhK0Wq31OQOARERERERERERETowBQCIiIiIiIiIiIifGACAREREREREREZETYwCQiIiIiIiIiIjIiTEASERERERERERE5GRSUlKg0WiszxkAJCIiIiIiIiIicmIMABIRERERERERETmx8z8AqJ6GSXeuQLBCBMx6GFoq0FC4F4Up21HfYu5KpIBH4kOYNbMeWW++gUrTWc0xERERERERERHRsDn/A4BWJjQeehlH8jvg4heL0KmLkXh9JDK+/BDVreLZzhwREREREREREdFZc/4FABXe8B45A+HxsWg/+AYKdZYXRZhbq9FSU4vmGi3qypvhcvOtGD1hG2oOFENOCFA1ejkmjmxGRfYeVJXXwiQ3btg/P9VKBM37DyZ67oW2LQbhYRooUQ/d4VXITsuHQTyNdREREREREREREcmQlJQErVZrfX6eBAAFqP3HI2TcXITHTYAnylGbuwMVTYNEzlozUVNpRlxEPNySi9EmI8BmqsmCbuTlGLXoKoxty7UG58qOpqKhxXBK+VGEJ8Jr63PYu7EaioArMPG6ezCu5Z9Iz22wc11ERERERERERESn7twOAKqDoIm9AOEJsxAcIKKp4ADKtq5DZVGZ9Uy6zjQDfE5sQ3uLAUK4P1wEyAoAig3p0G6RHts18IuZgbD4RZgy/SboS5JRlr0b5QVF0Ctk5Kd7ebo9KMipgmUWQnPtNhQem4cpCYlwzfsR7XLWxXkKiYiIiIiIiIjIAc7hAKAA9ehlmHJJAvSF65H60SbUt5ptf+x0Geugy/3e+sj1n4W4eTdizPwEqL96HIX+8vNjbqhC+4mgoAltujqIUaFwF9Dz+qDregz5lcNQViIiIiIiIiIicnrncABQhFG7Bpl7ahGeMA+JN89G/bH9KM/Zj2pb8+YJ7nDzUENs1UFv7/x6ljn9oqYhNH4mQqLDgZpUFGzbhdIaE4w6O/IjKCwxTHRPQCgoBeuf8tbF4B8RERERERERETnGORwABMSOUlSlfSY9voBrSCLCEuYgZuHVGNtxHDW5u1CYth9NA8XKPCYgMFSBtvScXmfhDU3wHo/IxEsQNiYBnuYSVB/dgyOrk1Gna+tJZJKRn47OpEpNJLwUQL31Ul5XeGmCIDbstV6OLGtdREREREREREREpyglJQUajcb6/JwOAPYwoqMyGQWWxy7LvHmzEZ4wA4E+B9Cks7wvQOERBI8Ab7j4xyJs6kJo2vchI6P/HYA94BYYCa/e8+uJeuh1VRBDkxDiWYmyrWtQUVh60px+svNT3ZXEcyZGz8xBTkYJhLD5iIkB6ranoUMUoLJrXURERERERERERKfuPAkA9mKdN2+D9Oj623oTECV8kh7ArEQ9DC2VaCxch9SD21Hf2i+ypkxA7NK/Irb3a+YiHFv1JLR5HyA5zwH5kfJiYSrZhkr3BZiyfATUhkpUH1yJozk6a0DScKrrIiIiIiIiIiIistP5FwDsz3AQ6SsP2khkRmvqM9iaOiw5shKMFSjbsg7FW4ZvnURERERERERERP2d/wFAIiIiIiIiIiIiGhQDgERERERERERERE4mKSkJWq3W+pwBQIczoHrz/dh6trNBREREREREREQEBgCJiIiIiIiIiIicGgOARERERERERERETowBQCIiIiIiIiIiIifGACARERHR2aSIxo1PPoTxu57A39dXQDzb+SEiIiIip5CSkgKNRmN9zgCgo6mnYdKdKxCskIbvZj0MLRVoKNyLwpTtqG8xWxIgeP5zmBTrOsgCzGg68AQOJJc65gDAmp/b4bLnUaSk13YtU4WAS5/GlNDdSP7sazSKavhOvg1jxo6Gp5+vlMN2tNdkozzlKxQU1MJs5yoFLxEXvS4i0h0QiwR890cBdaauN91EXPy+9J5aek9asLEJaMgRcHytgLxsdOZPTho57FjOUHlWXyRi6QMilAOtQ0qT+WcF0rTA+CfNSIw7OYlYIuD73wuoNZ383sBETL71MJ7xjcLi19xw02NHMGnbZDy0TX0iz4rAety5pApTY1oQE2RE6854LHvXF4Zey4i9PhOvLW7rk29zbQj++HA00kxy05gx7srjuHtuC0aG6OEpKFFd6ION6yPxSZprr/UBvqOrcMf1lZg7uh1eogoVBUH47ysRONjiyOXIKLtgQtwFZVh+kQ4TRnTAV61AVYEfNqyJwKojLifqs+1tKO+7kMP1CjOu/4305JCAr/4loGOQDw/Zdizv+4kYeysQOxXw8hShrwfqswTkfi6guEJmXT0mP79KaWPlP6nAvkPS+q4Vsfg2EQrptez/UyAlR0oorShsiRlTLgf8/ABDpYBCqX2lbZWeW8oopw0qgLH/MGPauJPz0bZRga9fh/U7i3nEjDnTTk4jtgrYfruAEpOM5ShktFO1g/qfzqUOU1vuZKvtWCrB6AuLce/VdRinEdFY5ot1q6PwcZY97UJeW1Z4N2Hp8mJcO7kVQS5SPS7xxfovovDJiXXJK5ft5fQVMCMfK++pg096DJa8GIhmO74LuZSaBCxcuhAXTY5GkLsZLVVFOPzdKryzvRRGO5d1VihHYcyyPyAg/+nOscZZGCcQERER0fBjAPCMMKHx0Ms4kt8BF79YhE5djMTrI5Hx5YeobjWibu8z2H9IYR1kK0Zcg6Q5ISjf9DZKGiyviDC3Vg7zr/8CBGM1ag6noKBRB4PZCz4JixG74D4ovn4C+ZX2HdIox4kIdpVKYjmAGyEiLFQ6aCvtl0gqYEe19I+P5YBNRMBUEX5PKZCc2usAW04aOWQsZ6g8m5uAumOCJU4Bl2ARXt7SN1wLNOgEa2Sitb3vuvQ1AlpaenIoVgJGR3+hLiYom7yw+Rs/xF5dhFmDJDOVhOLRtwJR1X10ZlShxGxfGoXeDXs3BuCjajWaTEaMvbAUd/82Fy5PT8Cb0naxUEeW44kHy+CWMgIvv+SFSqMJIeFG9NoMDluO7bLrMWVqK5oyQ/C/b9xRqTdiyrwi/PL30rqeGI/3CwW7tuFwGrLtSBUw7gERUydJ1U6qe9XZUgceCARfLMJwqDMAaFddlUNaUFii9E8aEJ4oQuj3dsAyMy5ZCmtQsF0nrVPKc/yvRbjrBezcKchry9J77eVAvYcAdaAITy8pq3VAY6P0eq1lCX3XapDK09zU64U26TVz5zpkL0dOO3VU/2OLg9qynLbjPbkI//plA/JXj8Hdh5UYdXkBHr7vGNofH4vPy+W3C5ttWaHHVStycWeQP156MQYp9WaMnluEB+/Lh/4fCVhd1vNdDFkuO5ZjoQypwoPXGVAqlcVH5ua3l+A7GXf+3wpMbdiJVa99jrxGNQKix+GCYH+pufTf0Z2LBLiOWYBwt8PIySizoy47dpxARERERMOPAcDTpfCG98gZCI+PRfvBN1Cos7xoCeJVo6WmFs01WtSVN8Pl5lsxesI21BwohrGpFE1dB7AKrzaYRT066ovRXNczFFeNXo6JI5tRkb0HVeW1MMkdpQ+YH1v00GWtRe+kjTUq+MfeBf8wf6CyWubKOwVNFeAi/Vu0G4i4UET4ZOBIab+DZpOAjL8JyGkARt1rxpwLgdHLRGQfFtAkJ409pxvIWM5QeTalCtiY2pku4n4RF18MNHyrwPdf9yqTomd1pe8I2L2/f6jEscxlgVj5ifREaMMtVwyRsEONokIPlAxVf4ZMo0Dmtghk9nolp8iMyTOPYUpsBxTH3GCGCbMWliPqaDTueCcQtV3b9GjemViOjLKL7lj9cnyfl46WmDDhRS3mTGzHh4Xu1rNVZG/DYTRUPRQ8gPAE6V+jgEMPS/W5prOOuUSJ0HSdLSWrrtqhpVKA22QR/r7AiFjpb6kr8AzoetMdSFgAKKUFF7ygwO49gP+NZly5TFr3YsBHKkND94JstMGC/ylQ0CvPug2D57nuKwV++G7g9+xZjs126qj+xwbHtGUZbUcwYO5ltfDPicJLm31QLaUpXB2JyVNzcO3FLfj6My/r2Wu282O7LYvujZiTYEb6R5H4Lq/zDLvKdVFYl5SFa+a24svVnjhx4uIQ5RLsWY66FTfeUYGWNWOw96IsJAyxKQcib5+rwuirlmCu62H878XV2N/Ymaik6BgO99lEPhi3cBluunwCovwUaKvMx551n2PVnnJpb9ud31DMWX4zls6JgUasRcYPu9Gg6Lc6wRWRc67D8quTEBcidQDN5dK2X4sP1maibrA62H8MUN0voTISEYnj0JH1LKra7ekVbI8TTnncQkRERETDggHAUyJA7T8eIePmIjxuAjxRjtrcHahoGmS025qJmkoz4iLi4ZZcjDYZg2JTTRZ0Iy/HqEVXYWxbrnVAXXY0FQ0thgFS25kfW6VT+cF33Bz4KepRWdVg+wO9KYHwSZZTZ4DiTQJ8LwACEkW4fidgwGMNqTgF6wRMmCPCZxQQ5Ak09S/iQGmaBliWLYMtx948nyKXS0UsuW/wyzOzHlEgteuAXd/sijJLVFFUoKnOFbVtpxZQVESU46X/lsJTqUT5cX989UUE1mtVfQIictKcSOuix7iLazFR6YLt2q5L8JQtmDrWjOwtClx9bxauiu2AqtkdydsisfIHLzQMcKDqqOXIJbiY4CFtzxqd/Zf7Oeq7sMlGPRQNItpbpXTeQOQVIirWC2holvJXJKDizOQIrVlSs5kLRM8XEWQWUJwnIqYrAKiIFhEotSGxDSg82Blkq98tQLdUhCZKyrsX0KDvt0BHteXhNECeO6adY21ZTttRtiJhlIjSbV49wSODJzIKBCwa1QKNwqvnLDx78jVAWxYUndvGYOp91qUCeiMQHN0CX8ET3b93DVku2csxYcK1x7GwOhL3Jqtx4UUD53Wo70LWPlcRhsTJgejI+hppjYP1JAJC563AH651w853XsAreXqEzLwev1pxH1ya/ol3MtqksqkQu+TXuHtGPda8+i/sqvJC0o2/xM0hChT2rAzBF9+NR25ww+5P3sTHuXUQgiZjyYoVeMD0bzy+rrQn+Cl7DCCli1mACM9M5GQWn9aZrAONE+wbtxARERHRcGMA0B7qIGhiL0B4wiwEB4hoKjiAsq3rUFlU1jnflTXNAJ+TjpDbpQGwEO4PF+l4Q04AUGxIh3aL9NiugV/MDITFL8KU6TdBX5KMsuzdKC8ogl4hNz8q+F34JC6/sN866vr+LQRejZlLr4an5SyEjmKUbHoB+WX9j+CHJkSJCAuSlp0joDofqG4EfBOAEHegsHWQD1UDzdJRo69ShLuPtIFqZaQ51aDBAMs5pTwPRlrkqD+ZMarXS1VvK7B5A2AuB7TbBPQ/ycNK+r7qGnsWkr0mAXd0/fX1ixPtzETnMhqPB+H199yRU66C2bcFl11dggceaofqH/H4ukKQmaaTMrIUKx8tQ4xKymirJ9auHIvXc7pKojYg0EvE+CtLYfg2Eo9+6QLv+HI8sDwXf+kYj0e2u56YH8pRy7FvUxgw6/oKJFQF4+GDAwc2h9qOp/9dyFyTrXrYISDzXSDgVyJClgFX/0xEfaqA/G+kRxbOyBxcYglQ2SAifrH0R55Ul9uAmO78+gKulirSKKCtOxLRALSbLQEgwMNyDWbNAAs9zbYcssKMW1b0/N2yXsDadwT7yj9EOx2wfvTL8znXluW0HZUR/u6WS6JVCJidj5dv7sB3z49FZqMSCDXA17IN7MjVUG1ZbPbG4SIBt15SgUnpI3BY2niRM8twZQSgKDVaL8+tk1EuecuRvpeJxXhouide+ac/dBgs2DT0dyFvn+uPQA1Qf6h20LVAEY7ZF41C665X8MneQmu6qu8+xTeJ/8ANF4/HJxkH0aaOx0VzA1G6+XWsTS+31rnNH25G0uRlcDuxgUdh/tXxqFj/OD7ZXd1Zv6t/xMffT8V/Lp2B6PVf47hSxhigT95GIDJxIvRHnkNVa/8Epz9OkLUNZc+FS0RERESOkJSUBK1Wa33OAKBsAtSjl2HKJQnQF65H6kebUN86DNNeG+ugy/3e+sj1n4W4eTdizPwEqL96HIX+cvNjQlPqqziS29B1cKuE3/T7Ee/XN5VYvx2HV6dC5RoA3/iFGH3RzWjVrURxnfxf772nAD7S8WRzjoBW6WNV+SLGJHVeuliYckpb4IxzaJ4HmFusqalz/jHjUQH7jjoy50OrTAvFFyf+8sSR40oEPH0c185txbovOi+dk5PGwlQRjL8/5g9PDz3GzynFbT8vRFFFLNaUdgYJLbO9KfLD8J/v/WCdyrIsGh9MOIwH5+gQuDPkxJlFjlqObIIJExbn4+EJHvjvMxFIt3cOvGEkpx427RCwIU1AxEUiRl0oYsR0EdOnSf++LuDHzYJj56azMAqoyBYRdxFQnymgPUjuGkScPGOgY/SdA1DaVnWnUO4h2qkc52Jbttl2uj5tecvQ5oLqWhEN+lP/joZsy6Ibvnx7JCLuLsKzL5ZDNAtoPhaCNftdcWtET5DVZrlkLEfhV4f7bmvEoffGYX8z5H6Fgxt0n/sY8utsfxzKYIQHS5v/h7KeG4KYG1BU1ARVfAgCFNJ73sEIk7ZbcVH1iW1hbihBkc6M7vvTKHwiER2gRtzNT+DDm/uuQmypkfoKe8ckUvpRCxDhcxR56YUDBMwdOE4YahtW8nYhRERERGcLA4CyiTBq1yBzT610QD4PiTfPRv2x/SjP2Y9qW3PdCO5w81BDbNVBb++RqmU+n6hpCI2fiZDocKAmFQXbdqG0xgSjTm5+RJiay9Fc03N3P9f2AX6GNzWhrc5yZF2KpopKqAIfxajEBJRuSZd3do3lhgFTOg/7fX5mxi0/61l/6FTp7ZRBztIJArwsV2WZBLQNdsWxnDRy9F/OqeZ5CIPNLaYaJ2L6fHHgs4akA9uSVQIKK+1cmR3EZg/kVwPTNAbrZXUDnYgxaBqDGmWlltNJPZCX7wb3qAz8cmEDvnvTDx1GFRraBdRXuvXccEBUoqJGBSHUAD/0OrPIUcuRQzBi0nW5+MeFarzzn9HYUHFmAlIOYUc9FBuB4vWC9eG7WMSC20SELwY0W2HHnaZlkr6Hyi8U2HMIaM6S6vCyXm9J7cdyN2OVjwh3ldBZWXwBN0v7kupzW+MgyzzNtjzUHID2sGuuzn55Pufaspy2I6WpbwPCfYxo3BKF+9IsiUy4zEf64prVsPurGKotS6/qywLx7GMBeNnbAF9BidomEZfdK20UnQvq5ZZLxnKUIxqRqOmA9/2pWNi1HIXScumwFl+urMZbjybgc3s6jkH3uVILFHWollY6NVADNYqs5Tx1ZpjNvWuxSfq715+Wqim2YPt//oQ3Dg/8I5xgz5hECENE0mQYs19EVctArceB44ShtiERERERnTUMANpB7ChFVdpn0uMLuIYkIixhDmIWXo2xHcdRk7sLhWn7B54c3mMCAkMVaEvPkT2nnOA9HpGJlyBsTAI8zSWoProHR1Yno07X1pPIdIr5kZcD6X8CVC7u1oNcOYsRvKWDy1jpiVEa76dJB8qWD7mJCJ4gbYJJgL9ygKt7pePHkYtF65lPZsslhpZLHV1kpDkVAyxHVp4dFFRRhEjrvwiDzBsmovW7Mxs0EDzaEBMolTNTPWDwT24aazqpUri7mawdSIfZHbnFAi4J7oCH4IXOqbHMCNIYITYNHVhw1HJOojBi6g05eHS6K17/dwy+qxgwVHPOkFUPpY00ZgFQ/QPQ0NL5ubZK0Xqgr3IXoRLO0Bl3JYC2pPN5WK/XzUVSXqU25OUBRCcBJZabgFwgws8SKCuU8ms5G+tMteXhNECez7m2LKftmDxwtEDAlWOa4a/wgDUWo27BhGgRVQc9B7+phNw89W7LPa+io8nFGrhXBFThinFA7lpvNA+yHxy8/xl8Oea8EbjvkVCouqu/YMTFt2fj58YI/O59DcoHmlJioHXL2eeiHOnpdVh8wTRM9jqMAwMVxFSFcimj8VHh0rZo7LxUWOGLyEhvGCuqrDdoMTdVorzVFWHBPtL+ta5z3kS3YIT49rRhyxmBBfWuSBwXCZfDxzHQZByyxiQdnWe2qkZeiQifXBzfoB2yb7dP33GCKGsbEhEREdHZwgDgKTGiozIZBZbHLstcN7MRnjADgT4H0KSzvC9A4REEjwBvuPjHImzqQmja9yEjQ+6k29KAOjQJIZ6VKNu6BhWFpQPP5yM7PzaoEhBz6XiYCnPR2NgIk8IPvnFXITqoDTUZObIPFlTjpQNOV+nAJVvAzqcFtFgPMIGZr4uIDRURPkJAbfeZGEoRk/4FTPQS4epuLQLyV6PzM7AjjRxDLEdWnovsW92IO0QsurHnCxMrBex+VkDDNgGfbnNQkEZhlPKmh4eyAwEuUhG9OxAT1QqTXo2iCjX0yiYsv70ehiwf5FerYfRoxdyrSnCR4I1Xdnp0fqdy0qgbcNsdDWhNl9JUqdGm0iNhdhluilbiwA/esB7WmV2w40c/3LaiFPdfqsYH6S7wGluOn08WcPhjP+vdRh22HDllF4yYdtNRPH6BAmvfDUOeSzvGRHV+1NjkisJ6ZdcNBmwsxzHfVN+vLUHEvOfEnn5AFFDwmoDcYBn1sAaIuNmMmcuB5lLBehmsb3znGXdthxWoH+65tVoFZH8vInIJEP17M0J+CbgEdN4VuGgd0Ci3LUtNYuRvzBg/WoA6sDO53yIzFl4ItO8RsO0LmWfh2rmcQdupjDyL51pbltV21Ni5JQC/uK8M91/uhrfSlRh5RTGu9PLCe9s9ey5XtZUfOW1ZohpVjVtGqZBe6AKzXxMWXleKKY2B+OvOrrk85ZRLznKkfJVV9Jp8VzBA1yF9R0Y1Sitc0SzrS5C7zzUg/9uvsG/6nbjjgRvg/tU+HGtWISB6HGYHF+CdLzOhN5dhz44CLFy6BDfnfIjv8vUInrEEi2ObsO+FLFhnITDkYseuGvzl8vmYsH810pvdEbfwMkxyFVDcvSrTMfywPgcX3no77tGtwtqUMrS7BSAybjJm+2bhtS+ze76zocYA1VJBhBCMmJoIU85/UW73DrSLzXGCveMWIiIiIhpuDACeLutcNxukR9ff1uMQJXySHsCsRD0MLZVoLFyH1IPbUX/SpNuDEWHI+wDJeY7Kjw3mJnQYQzFixgyM9PSCSuhAR12+NIj/CNocnexL7YKnSgfegoj6NAEnpiIyCCjPBMZcICJ8CpC5qet1wRIsEC1XE6EuU8DxtQJyj/S7rE9OGjmGWI6sPBfZsU7LuoJE6dHzkii1MpWDT84SvOrxwKNaTO/+fsMLsHKqdMxYEo57Ho1AvqhEm0sTli6vRpCXGYLl4D1XgxeejcC3lV2ZkZPGrEatvh2LrqvFz/2N8BCUqCn1wvfvjML7e1xOBFTqk0fhL15F+PWV+XjjFhMM9Z7Y+1Us/rej6yDdUcuRU3ahDXOS2uDhKWL5vVlY3mu71W0bi5ve97GelWNzOWfgajXBHfAb2esFs4hqd0FePdwgIudjAeJsEQEjRIREdc6HV7JPwOFVsH96AQeoXaXAdqOIyVeI8POTup8y4NhaBVJ32tGWpffcwgD/kT2fUGqkv6VHW44dDcee5chpp47qf2xl2xFtGfLaTlN6FP76QTHuvUZKc6MZzeW+WPVKNL4sF+TnR2ZbFkUT4i4txdJQA1z0LsjLCMOjn4chuaU7gbxy2VyOQ8jf55p1h/DGvzqwaOlVWPzbuQhwF9FSXYC0b1O7gpYiKja/iRdcl+Gm5X/Ev30VaK86jr1vv4LPDrd21R8j8r5cibdcb8Evn/q3VK4WlKelI7VqBAJ75anyx9fxr45rcMPCW/C3G3yg1DeiqigfqZtrB/9hrv8YQKKMmo9IzXFoNx079ZsFyRgnnPK4hYiIiIjOmJSUFGg0GutzBgAdzXAQ6SsPyk5uLngX21cOd36MqN32ILZ0/ymWoHTbKyg9zVWVviLg41dOPmAvel56/fkT12dh+402DurbZaSRQ8Zy5OW5R8lLCnz80gALko6qsv6sQNap5tVOYmMQHl4RNEQKD6x5dTzWDLUQs4w0Jg+sfzcO621mSImcraPwwNZRA7/vqOVATtm98fIfp+NlW6uyuRzH6fhBgU9/GCJBhry2U74O0kNe2xi0rsowWH7LX5OW+VqvF0xA2WrB+hiQnLYstZ2jf1XA1j01jj+pwPHTXY6cdmpyUP8jk0PasnVBttuOJU3+jpF4QHqcTn7ktGVTQSj+72+hgyeQ0//IWU5/ohrf/Gc6vpH/CbsZa7KwdqX0GCyBuQFZ697E39YNsRBDBfa8/5z06P3il33TiB0o3vMFnt/zBU6ZEISIqdMg5ryKisHmBBnGcQIRERERnT0MANJ5Se0NKIY6RjcB+hbHn61DdL5j2yH6CXH1hal4DbKzcx049x8RERERnY8YAKTzj1rErLdERA9xebNZK+DbhwToeNNBoh5sO0Q/Le35KDmYf7ZzQURERETnAAYA6fxjEpD+OJA71I1d24BmBjCI+mLbISIiIiIi+kliAJDOP2ag4Uivu3USkTxsO0RERERERD8ZSUlJ0Gq11ucMABIRERERERERETkxBgCJiIiIiIiIiIicGAOARERERERERERETowBQCIiIiIiIiIiIifGACAREREREREREZGTSUlJgUajsT5nAJCIiIiIiIiIiMiJMQBIRERERERERETkxBgAJCIiIiIiIiIicmIMABIRERERERERETkxBgCJiIiIiIiIiIicTFJSErRarfU5A4BEREREREREREROjAFAIiIiIiIiIiIiJ8YAIBERERERERERkRNjAJCIiIiIiIiIiMiJMQBIRERERERERETkZFJSUqDRaKzPGQAkIiIiIiIiIiJyYgwAEhEREREREREROTEGAImIiIiIiIiIiJwYA4BEREREREREREROjAFAIiIiIiIiIiIiJ5OUlAStVmt9zgAgERERERERERGRE2MA0NHU0zDpzhUIVoiAWQ9DSwUaCveiMGU76lvMXYkU8Eh8CLNm1iPrzTdQaTqrOSYiIiIiIiIiIifGAOAZYULjoZdxJL8DLn6xCJ26GInXRyLjyw9R3Sqe7cwREREREREREdFPCAOAp0vhDe+RMxAeH4v2g2+gUGd5UYS5tRotNbVortGirrwZLjffitETtqHmQDHkhABVo5dj4shmVGTvQVV5LUxy44b981OtRNC8/2Ci515o22IQHqaBEvXQHV6F7LR8GMTTWBcREREREREREZ3zGAA8JQLU/uMRMm4uwuMmwBPlqM3dgYqmQSJnrZmoqTQjLiIebsnFaJMRYDPVZEE38nKMWnQVxrblWoNzZUdT0dBiOKX8KMIT4bX1OezdWA1FwBWYeN09GNfyT6TnNti5LiIiIiIiIiIiOtelpKRAo9FYnzMAaA91EDSxFyA8YRaCA0Q0FRxA2dZ1qCwqs55J15lmgM+JbWhvMUAI94eLAFkBQLEhHdot0mO7Bn4xMxAWvwhTpt8EfUkyyrJ3o7ygCHqFjPx0L0+3BwU5VbDMQmiu3YbCY/MwJSERrnk/ol3OujhPIRERERERERHReYkBQNkEqEcvw5RLEqAvXI/UjzahvtVs+2Ony1gHXe731keu/yzEzbsRY+YnQP3V4yj0l58fc0MV2k8EBU1o09VBjAqFu4Ce1wdd12PIrxyGshIRERERERERkcMxACibCKN2DTL31CI8YR4Sb56N+mP7UZ6zH9W25s0T3OHmoYbYqoPe3vn1LHP6RU1DaPxMhESHAzWpKNi2C6U1Jhh1duRHUFhimOiegFBQCtY/5a2LwT8iIiIiIiIiovMVA4B2EDtKUZX2mfT4Aq4hiQhLmIOYhVdjbMdx1OTuQmHafjQNFCvzmIDAUAXa0nN6nYU3NMF7PCITL0HYmAR4mktQfXQPjqxORp2urSeRSUZ+OjqTKjWR8FIA9dZLeV3hpQmC2LDXejmyrHUREREREREREdF5iQHAU2JER2UyCiyPXZZ582YjPGEGAn0OoElneV+AwiMIHgHecPGPRdjUhdC070NGRv87AHvALTASXr3n1xP10OuqIIYmIcSzEmVb16CisPSkOf1k56e6K4nnTIyemYOcjBIIYfMREwPUbU9DhyhAZde6iIiIiIiIiIjoXJeUlAStVmt9zgDg6bLOm7dBenT9bb0JiBI+SQ9gVqIehpZKNBauQ+rB7ahv7RdZUyYgdulfEdv7NXMRjq16Etq8D5Cc54D8SHmxMJVsQ6X7AkxZPgJqQyWqD67E0RydNSBpONV1ERERERERERHROY8BQEczHET6yoM2EpnRmvoMtqYOS46sBGMFyrasQ/GW4VsnERERERERERGdfQwAEhEREREREREROTEGAImIiIiIiIiIiJwYA4BOz4Dqzfdj69nOBhERERERERERDZuUlBRoNBrrcwYAiYiIiIiIiIiInBgDgERERERERERERE6MAUAiIiIiIiIiIiInxgAgERERERERERGRE2MAcDgoR2HMsj8gIP9pHEguhaiehkl3rkCwQgTMehhaKtBQuBeFKdtR32Lu+pACHokPYdbMemS9+QYqTWe1BEREREREREREdB5JSkqCVqu1PmcA8IwT4DpmAcLdDiMnowziiddNaDz0Mo7kd8DFLxahUxcj8fpIZHz5IapbxSGWR0REREREREREJB8DgKdL4Q3vkTMQHh+L9oNvoLDa3Pd9ZSQiEsehI+tZVLX3DuyJMLdWo6WmFs01WtSVN8Pl5lsxesI21BwohpwQoGr0ckwc2YyK7D2oKq+FSW7c8KQ8KxE07z+Y6LkX2rYYhIdpoEQ9dIdXITstHwbxNNZFRERERERERERnFQOAp0SA2n88QsbNRXjcBHiiHLW5O1DR1D8qJqWLWYAIz0zkZNoI6rVmoqbSjLiIeLglF6NNRoDNVJMF3cjLMWrRVRjblmsNzpUdTUVDi+GU8qwIT4TX1uewd2M1FAFXYOJ192Bcyz+Rnttg57qIiIiIiIiIiOhcwQCgPdRB0MRegPCEWQgOENFUcABlW9ehsqjMepbcSRQjEJk4Efojz6HK1mW9YhvaWwwQwv3hIkBWAFBsSId2i/TYroFfzAyExS/ClOk3QV+SjLLs3SgvKIJeIT/Pom4PCnKqYDmH0Vy7DYXH5mFKQiJc835Eu5x1cZ5CIiIiIiIiIqJzDgOAsglQj16GKZckQF+4HqkfbUJ9q3no9KMWIMLnKPLSCzFUytNmrIMu93vrI9d/FuLm3Ygx8xOg/upxFPrLz7O5oQo9Vymb0KargxgVCncBPa8Puq7HkF95RktJREREREREREQypaSkQKPRWJ8zACibCKN2DTL31CI8YR4Sb56N+mP7UZ6zH9UDzYknhCEiaTKM2S+iqkXG6XyCO9w81BBbddDbO7+eZU6/qGkIjZ+JkOhwoCYVBdt2obTGBKPOnjwrLHFLdF+rLCgF65/y1sXgHxERERERERHRuYgBQDuIHaWoSvtMenwB15BEhCXMQczCqzG24zhqcnehMG0/mjos0TMBqpFXIsInF8c3aCHryliPCQgMVaAtPQftMgOAgvd4RCZegrAxCfA0l6D66B4cWZ2MOl1bTyKTnDx3JlVqIuGlAOqtGXaFlyYIYsNe6+XIstZFRERERERERETnHAYAT4kRHZXJKLA8dlnmxJuN8IQZCPQ5gKZqS7QsBCOmJsKU81+Utwx2ZpwAhUcQPAK84eIfi7CpC6Fp34eMjP43C/GAW2AkvHpHEUU99LoqiKFJCPGsRNnWNagoLB14HkJZee5K4jkTo2fmICejBELYfMTEAHXb09AhClDZtS4iIiIiIiIiIjpXMAB4uqxz4m2QHj0vKaPmI1JzHNpNx4aY+08Jn6QHMCtRD0NLJRoL1yH14HbU979ZiDIBsUv/itjer5mLcGzVk9DmfYDkPEfkWWn9f1PJNlS6L8CU5SOgNlSi+uBKHM3RWQOShlNdFxERERERERERnVUMADqaEISIqdMg5ryKiqZBwn+Gg0hfedDGgsxoTX0GW1MdnsNBCcYKlG1Zh+Itw7dOIiIiIiIiIiJyvKSkJGi1WutzBgAdzdUXpuI1yM7OlTf3HxERERERERER0RnEAKCjteej5GD+2c4FERERERERERGRFQOAJDGgevP92Hq2s0FERERERERERA7HACAREREREREREZETYwCQiIiIiIiIiIjIyaSkpECj0VifMwBIRERERERERETkxBgAJCIiIiIiIiIicmIMABIRERERERERETkxBgCJiIiIiIiIiIicGAOARERERERERERETiYpKQlardb6nAFAIiIiIiIiIiIiJ8YAIBERERERERERkRNjAJCIiIiIiIiIiMiJMQBIRERERERERETkxBgAJCIiIiIiIiIicjIpKSnQaDTW5wwAEhEREREREREROTEGAImIiIiIiIiIiJwYA4BEREREREREREROjAFAIiIiIiIiIiIiJ8YAIBERERERERERkZNJSkqCVqu1PmcAkIiIiIiIiIiIyIkxAEhEREREREREROTEGAAkIiIiIiIiIiJyYgwAEhEREREREREROTEGAOknTsT021PxhH8klr0QhAbxbOeH5FIEVuDFp6qQ+dREvHFcOL/XpWjBiieO4OZwSwUUUPVDPG75yAdGx69peNdFVsNZV3tWavmeszF19wT8doMbzMOzVnIWZ7X+OH6/7Kg2eFbaMhGRvc6jMQD71TNJxKy7UvG4VxSWvBiI5rOdnbOEdQxISUmBRqOxPmcA0NHU0zDpzhUIVkgjVrMehpYKNBTuRWHKdtS3WLpfNYLnP4dJsa6DLMCMpgNP4EByKRwbi3JF4OX/wsRYFzTvfwLJqVX2fdxNxMXvi4gUBCT/RkBOjdSYJov42d9EuJUJ+P73AurcgUveNmOEGpb+BqJJgL5GRNV+AWmrBDS0S68rgPFPmpEYd/IqxJLO5dSagJhHzJgzbYA0rQK23y6gxCA34yIm33oYz/hGYfFrbrjpsSOYtG0yHtqmtn/7qhrxwLO5iFg3xOflpDlb1M1Y8fhRTN8/Dr9e6wHTqaYZjKPKLnM5Yoc79u/xR2nTqa5omNc1FLMn3nxkOt4UDLjmj4dx6+kub6hyOXpd57v+dV6lw8Mv5iH2h/G4Z013GzDjkt8ewiM+kfj5MyGotHMkbbP+nEv9hmsbLr+uBDfObES0t4i2JlcU5Pvji9UR2FXTK90wt3eH6/+9q3V45OVczJP2Y5ZMmIwq1JR648eNEXh/rzvahitf5zURSbel4d+XGiy7+j4MOdF9284wf++O6sOHpy07btwieIm46HVp7CbVa7FIwHd/lMZq3Tv27nGdNGYTpe/FKJWpIUfA8bUC8rLRuS45aeSwYzlD5Vl9kYilD4hQDrQOKU3mnxVI08obZ8pj+7tQBNbjziVVmBrTgpggI1p3xmPZu74w9FpG7PWZeG1xW598m2tD8MeHo5HWKy++o6twx/WVmDu6HV6iChUFQfjvKxE42NJTyNEXFuPeq+swTiOiscwX61ZH4eMsl54Aj1sr5i8pxvIZzRghbcu2eg8c3D4Cr23wRY01kRnjrjyOu+e2YGSIHp6CEtWFPti4PhKfpLl25VtOGnnlsrl91HX4+6v5uER98tbvSIvBspcC0SjK+y5skjqmsf8wY9q4k99q26jA16/jxHYUfEXE3QSMmSbCx0eqszoB1RuB3V8LMFhWKBU6bIkZUy4H/PykPq5SQKFUn9O2wvq+MELEghdFBAhA4fMK7NojlUD6TNL/zBjrdRaPZeQ4T/vns+J0jpt+wmz3dT0CZuRj5T118EmPOeUg5mB1LGxeNt5bqsTzD8ZhY6/3VKOL8d4jtTj0/CQ8f6QDt/w9E3eN7GwJolmB5np3pO8Pw+tfa1Dc3Y4VBky+sgi/ulyH0VL/0VzljS1ro/HWATfoLe87dJxpY1/gWou/vHgM+DQW/9jZ9ZpgxOTrj3aWz+4tSDKY0HjoZRzJ74CLXyxCpy5G4vWRyPjyQ1S3GlG39xnsP6SwdqiKEdcgaU4Iyje9jRLrz9wizK2Vju9s1XEIjmxEeWY9QmImwz1tM9rOVI8u1TJdloA2pQj/WCBysQg/aae3/h2hp2OU1q2vEdDS0pMJsVLawfbLk6EWaO7dWKXWYTiXf8Y6h2mml2ORlx9e3Dr4DkpOmnOF2OSLj6VBpLOti4bXcNT586b+SIODC36Rg4fjPfDRp/F4ulQBd/92jJvSgDBvqXOucZ5fTQf+3gUUbIrF49vcpMGTHrEzSvGbFTnwaZuIZ9OU59YPOucwc00QnnolBAW99tVihwtqz+K+21Ft8Lxpy12U40QEu1p+kJX+GCEiLFRAXWm/RFLF7qiW/vGxHGiJCJgqjdmeUiA5tVdgTk4aOWQsZ6g8m6XxYN0xwRpgdgkW4eUtjbilcWKDTrCOPVvb+65LzjjztLmYoGzywuZv/BB7dRFmDZLMVBKKR98KRFV3O5AO/kp6tQl1ZDmeeLAMbikj8PJLXqg0mhASbkSv7MN7chH+9csG5K8eg7sPKzHq8gI8fN8xtD8+Fp+XW/pnMyYvycNDs9zw/uvjsLFEAU1CGf58Rz4eaZ2AB7e4Wg8EFXo37N0YgI+q1WgyGTH2wlLc/dtcuDw9AW8e6+zn5aSRUy6b28foi9f/MQEf99q9CF71uPf+CjQl+6LJkd+XtKz2cqDeQ4A6UISnl7TF6oDGRun12s6rIjrXL2LaEyLiRlg2qWB9TyUdZIdPUkC9pjPAF7DMjEuWSttJKmu7TiqmVFfjfy3CXS9g585ehZEq64h5Ijz2SXXRgUVxJudbv9rb+XTcdK6Q09d1U4ZU4cHrDCiV+jef01jnYHWsMt0P+cvKkRRnwsaU7p8yRESMb0Bwiy/25PX8nNmWNhL3rfKBQWr0/hG1uPMXx/CE6Io7P/e0XkUVfslxPHF9B/Z+Eovnpc+FzyrGH+7Ohap5PF4+0r1sx4wzbe8L+pHG93EXleAvM7ytgUYGAE+XwhveI2cgPD4W7QffQKHO8qIliFeNlppaNNdoUVfeDJebb8XoCdtQc6AYxqZSNHUFtRRebTCLenTUF6O5rudrV41ejokjm1GRvQdV5bUwya0R/fNT3bkXVoQnIsB4FJnplfC4cQaCvbegsPEMjcZNAo6+ICBfGpB5XCXi2ruknex4qbJKbUjXK1npOwJ27x/6gLLuKwV++M7OAeapkBrGlGvy8IsrGhChViP7x2g88bmf9ddSwacazzynxfTuXydvS8XW26wfwoF3EvHnHVIzkpFGlP6bc/ch/F0TiI8am7EgtgOeggtSN0bjxe+9ey5zUhiQuLAQv7q0AaN8ReibXHEsOxQvvxWE4/2+MpW7AX6uUpoWFzQO9UuiqgU/W9iAmm3jsGvQMxcGSWMjP3K2j6Vo3nEV+PXiGiRGd0Aj9XuNFd7Y9m0k3t7rjg7IX44yshRvPF6KGEufbHbDp08McDq3g/Isa12W1fk1YsmSMlwzuRkh7grUl3b+6vN2auevLrbKLpejtqEj1iVnO9vD1ja0rGvKVUXSunSI8RPRavll7ZsovNmVH9WYIrz3UBMKMk2YMsGMvO/DkRxdjlvGSc83xOIva71O/nVNTrsYUNclioHBeKW0BdfPaEGoqxI5vfoNC1v1R/b3JZgQM1s6+FpYi4kh0jCjxR0pP0biv+t8Ud29ndXtuPzGAtw+pxlBZlcc3BKI+v6nYdmiasaFUwzI/mokPk7u2u5lHsjK0tidZ4fVVTllt7ceDvG9G6TPFpVbLpdyQ0ExkDArBxdPaYYqrfOMFblt2WZ9llMuGWznR15ddUj96SLq1Sgu8kD+AOWwq48aYr/sqDbYzdb35Yi2DL9qPPV0MVrfmYR/Hugpp/f0fHx4pwlv/zke3+hObZsPJmiqABfp36LdQMSFIsInA0dK+42ppDFbxt8E5DQAo+41Y86FwOhlIrIPC2iSk8aevl7GcobKsylVwMbUznQR94u4+GKg4VsFvv+6V5l61Vs548zTZS4LxMpPpCdCG265YoiEHWoUFXqgZMCdsAmzFpYj6mg07ngn8ESw/GherySCAXMvq4V/ThRe2uxj7ScKV0di8tQcXHtxC77+zAtGhR5jY/TQZ0Vhdaa79ayT6n2h2LqgBkui26GEJQCoQOa2CGT2WnROkRmTZx7DFGlcqjjmJjONnHLJ2D6iEhXFHn1eCptXiLg2DR5PcfDZZ9LCCv6nQAF66o9uQ7/6I/GZLyI2XHpSBxx4TEBeiQDBXfpMYlcAWXqesEDqFyzLe0GB3XsA/xvNuHKZlGax9Hmp7jZ2r9IkpZOOgWJGABlljixMPzL6cEftl+0Z0w51nGKrX5U7rpOVH2n7XLKsAHdZto/ogoM/BKNuVgnG7Ox1ibS9++UBxxJyjvXk75dt5lnGdu5M0I4rbjuCm2a3wk/vhgObo/D8Bh/ozPLqhpWcsZbNbSijrzvxnbXixjsq0LJmDPZelIWEAZLYYquOmav8sKe0BIvHtUCd4tN5ZrKlnOPa0Zo5AoctnWhXcrFVGtuUd57NV1Tmgm/nVOD3o1rgI3iiTmjFlZc1wpQyBi9t87EG+/O/HInoSZm48TId3s0OOLE/HXScmaHEXU8dRcx3k/HwSWfeiphy62E8GRSB5S/5Yo6tfUHvj0pjqcRrj+EKDxU+eWU0fvY4A4CnSIDafzxCxs1FeNwEeKIctbk7UDHYz1StmaipNCMuIh5uycWyzrwz1WRBN/JyjFp0Fca25VoDgWVHU9HQMlCrtpUfF/jHSHuf0g/Q0FSF2rolCBqlQdHhGvt3rJZLeB81Y4ylZlmC1zbGVYJC7Gw3ejj0lxGXS0UsuW/wy0CyHlEgtasz0Te7osyScVGBpjpX1LadnGlVbCWuKY3Cs09FwCWhFI/cUoBfZE3C85kKiI1BeHhF0NCnxMtJ00UdV4/R747F7a+6QRVZgccfzseDugn4+161tTN3n1SMv13bjh9fT8Df81VQ+bVh4njjSZdUWTqD6Ctz8Pq1Hdj2ylT8K2XwL8MvqRxX+/rif1s8Bp3rbbA0tvIja/tI3PyMaM8Mw7+/8ERZMxA6sRQP3ZEL18aJeCFL5naWmIpH4M47RpyYz2EgjsqznHXBrQl3P5SLhW1B+N//opFWI8Avuh5XBuql9XUePNoqu1yO2oaOWJeF/Lpqa2W2tqGIEZcfw7+uMWHTe2Pxz3wFwqcX40935sKlaQJeyOzqCZRGNOyLwx/zC/HCDaXQSe3stymleG5ZFaZ864W9/bpPOe1iKKr4WkzeG49ff+oKl7gSPPdgT79hYav+yP2+wi86hueWGvHDp2PwWq4LhOB63H5HPv5hTMB96y15N2P89Xl4eIYLPnxtPH6oNmLODcdxT7CIY/YUyKyS9jHA1PhGhO0IROkAu5vhbu+2y25/PZT1vStMiEysw1QfoL2951dZWW1ZRp8gp1xyyO1bhq6rDqo/MtjTRw21X5ZXLsf14Q5pyw3++O5wMR6eo4NfsnRwbj3hyIDZcxogZIzEjoaepHLGLTZJ3WL4JMspd0DxJgG+FwABiSJcvxPQPtAGl9p7wToBE+aI8BkFBHkCTf37gIHSnMple4Mtx948nyJHjyHlUESU46X/lsJTqUT5cX989UUE1mu7AsHKFkwda0b2FgWuvjcLV8V2QNXsjuRtkVj5gxcarFHoViSMElG6zQt13QfbBk9kFAhYJB2EahReqDK7Ij1bGlvOqsNFIb7YUiltw9g6zAhWY99azwH7FYWLHuMulg7WlS7YrnXBQHGOodIMWa5TIW2LhZc0o3ZvJA61933LUd/FkKTFh06R/pEWXfe9AvklnS+LbVKd3NOVJFpEoGfna4UHO4OH9bsF6JaK0ERJddarVwAwX0B5iIiYecCR9/vm13H1UF4f7qj9svwx7dDHKbL6ZxnjOtv5ETH22nz8ZaYKH60cj81VJsxcchy/CRJxvNeq7N0vDzWWsHWsZzH0/ktenuVsZ+u6xlXh8o2j8Ne/ekCIqZC2Tz7+3DgBj2yXf5wiZ6xlcxvK6es6awcmXHscC6sjcW+yGhdeNHD1sMVmHRPdsC/NHb+Y0YhRCh/kWk4S8WhE0kgFUrb4DHJZrgjvyFrMHSm17Z2e1ikKBM8WxIVI+7XtHj2fkZZ9VOoLXce1IFoR0OcHFav+40yTBzKOKTA/pgXqbX6dlw13EzowdqQRRWleaFLI2BecWIcBU68vwb0T1Hj+6UDkSP3Hz8AAoH3UQdDEXoDwhFkIDhDRVHAAZVvXobKorHM+CGuaAT4n7SHaWwwQwv3hIrVJOQFAsSEd2i3SY7sGfjEzEBa/CFOm3wR9STLKsnejvKAIeoWM/FioxiA4Wg3dzmPWsw3rimsQEzMJrulb7R9QKUR4RAC9f6s7aRFKEQkPihgl7dH8RlsDz9B+I6DZet1BVxppO4z6kxmjen2s6m0FNm/ou7yQFWbcsqLn75b1Ata+I8BcLi1zmzDwAZ60gLruPa+0ouw1Cbij66+vX5w4YLHMugC887kGRy1RysowbJmXjemjOqDIdHf4xLmmikB8vLvzFwR9cTBWpZTjXxfWI2B/sDWK76nRw7PDHYePeKCyVUqkc0FpwWmsUBo0XrtQB932BGxvtD+No/JTfSACL/f6u3J7BNbNzcDV49qgzPJ0aIDY4dtwCH7TyrE40AtvPBKNjbWdr1XWhiGnVxpHlX04t6GcdTlqO9vchkIbLr+oCc174vHaPk9r2ynbGI1Pp6TjzosasDJT07mjlHaeqRnuyA+Vdn5Sv3NYel6k8kKpWocQaUCO+l4rldMubDCVB+LTPW7WfrQ9LwB7Kisx29H9hrIZ1y1qRMmGiXhtT+flW6gJxasb6/HBpXUY/a0HcpRNWDCnHYWbx+CTjM51r/koDHMnFVpOVLCjQF5Y9WEoEu7S4r2XSpGX543MXF/s3OuPjDr7wroOqatyym5vnznk9y5izM8ysdkyOhJE6wGgvkaD57f2HDjLKZfN+iyzXHLI3c5D1lW1g+pPd/HCy7Dynd6nuggo/T4Bv+z/q7QNcvbLjmiDcvpwhxBV2LdDg5bf1eCSgEB8bZlL2b8e8xOU2PWqX6+bncgbt9giRIkIk47lxRwB1flSXZHqu2+CNK6SvtTC1kE+VA3rWM1XGse5+0gNoFZGmlOdt2uA5ZxSngczxDjT0WNIWxlpPB6E199zR065CmbfFlx2dQkeeKgdqn/E4+sKKaNqAwK9RIy/shSGbyPx6Jcu8I4vxwPLc/GXjvHSQbrUT6iM8He3XK6qQsDsfLx8cwe+e34sMhulwXaoAZaL26os+f06Ho+r8vHwUyl4yGQ50HPBzo/j8fyhvkE5y5kxKx8tQ4xKerXVE2tXjsXrOX23yNBpZJTrFLiPq8KCYA+s2enZ9wDYQe3CJqnv9wyAtR40FA18BZLg23UCRKOAtu5OtkHqgyzBA2nzePjgxAfFFiB/l4ALLwTCv+i7NIfVQ5l9+Pk4FpUzrrOZH2n7LJzbhoJNE/Bx1/ZZ90ko5iYWwqv7Q/bul22MIW0d61nT2Ngv28yzHcS6ALz1lT/yLT/q1ETi3Ul1eOzCOoTtDEWp2UFjfjnbUE5fJ33Md2IxHpruiVf+6Q8dhrrE7XQJKEjzQ7mU78QgEbmVAlxjGzHB7I3/HukbmneflY9vpsMay1BLDb14fzT+2vXDisLLCD9p0FjbrOoz9mhsUkLwkvrnE418qHGmgKN5HnC7tAVRCj8cD63GfYuM2C615TS0IGGECkc+t+wLWmTsCzrXNeKSAtzvbYBJ6w//0VLm87XWdxgAlE2AevQyTLkkAfrC9Uj9aBPqW4dhQhtjHXS531sfuf6zEDfvRoyZnwD1V4+j0F9efhRhiQh0OYb8MstJvCKai46gY0oigrx+RLFd125Y8jPATUBOWqHUcMfBWgFFqVUUvSpg755+O9EB5mZpauqZf6Nb3zkABbTWCdblGI8K2HfUvqwPxVzthrLuTSEq0Sx1bK6uZpyB3xZhrnJDxYnNLqCswhWY2IYRgnU8jLrDQdhxlRZ/eTILC454Ia/QC/sOaHCkvn9uBBxbMwFXrBl6fb6J5bg20Bev/+A5aBc6VBr5+RmawrsZVy8uxxUJrQjxNEMl9VOu7iLaCk3WwY8jBwyOyrNtIqKjW6GsCEZa3eCpHFX24dyGctblmO0sYxuqOhAlHRQWbXHvqZ9mFxwrVkMV144QaXXF1tcUaDdZ+h0FDKL0XOp/RGknbZB2xy79fpyR0y5s5lwa/NR2d2GW9XU4vt9QeLciVmPGhJsOY8tN/dbf4gp/pSVNOyI8FNAW91wSYm50x7EGARP6LS/8ymy8e2Nz585fVOHbF6fguYyeHNdlROJ3D4ZiTHwjJo5pxuRpRfjPNeVY98pYvJop/6wOR9RVOWW3FNieejj09y5IdWwMnpAGoK4hOiy/phnp78VgY1XPcmyXy3Z9llsuC1vfl9ztPFRddWT9sX52gDkADU1udp9lK2e/fPptUF4f7igdRwPxQ/1RzJ/VjrXrXRE6swYTGjR4L3vAc4BOi/cUwEdabHOONHaSKntVvnTgkSR9hwlAYYrDV+cQDs3zEONMR48hbalMC8UXJ/7yxJHjSgQ8fRzXzm3Fui86D64to1tFfhj+831XMLgsGh9MOIwH5+gQuDPkxBkdlrcMbS6olip+g75/TRcRNbcQ901T4uv/JWBHuQL+cZX47bJc/LElAc8k95y9Z5Lq/N8f84enhx7j55Titp8XoqgiFmtKe83vZyONnHLZRTDgwsvq4JkbiU2nGEA8+ywT/vTNe/VmoH6BVJdnCX3i5Y6qh3L78OEfi8o7ThmSjHGdrfyI3m2I8lT22T5ikwe0OgHdoVR79ssWtsaQto71rMsdcr9sO889bG9nU4UHCk/shBUoKpHyM6kNYdIGsgQAHTHml7UNYbuvq/Gpw323NeLQe+Owvxn9QwMOZyr2w97aSiSNNWJ1pQrx4xuhzo3AwX4/OrWnR/fMAThCh2XLivD4Ulf87jMfyP99auhxZv0xL1Qsa0aclwjD1CrMTzLA9UAIMttaECt64ceino0x9L6gk4fRE++854ELlldg2cw2pOZ3vs4AoGwijNo1yNxTKw1E5iHx5tnSl7Qf5Tn7UW1rjj7BHW4eaoitOujtPuPOG95R0xAaPxMh0eFATSoKtu1CaY0JRp2c/KjgFzMRrio/JNz2367r5xVQSJU3KNoPJZl1jp9fzyDt0H4loGamiMtXSIORW6XBmzRwK+13257TmQNQNU7E9PniwL+amQWUrBJQWGlHnsWT13HG+htFZ8S/e4VKVb9fBGsD8K9HfBA7thETxjRh5qUFuHlRHZ59PPbE2Qny19WGq6+uR/POsdimO7U0DsmPogPX/iYHt7sE4b8fRCC9WiXtyA1Y8JsjWHIGNrRDt6EN1uwP1YgcVfbh3IYy1+Wo7WxzG54CUey7TEHo9QPDkHVeOjg0Ddz+LXc27zOB/HD0G5Z8iyp890Ii/n144KUrrOsVYOrze4709wCj+apdo3FXuvnENm8eKFhrUCM/M8D6+HpdOK68LwN/uLoWXxyReQdkR9VVGWW3kF0PZfSH+kY3HC9xh7nEA88Kx/DWr4tx7LFopLTJL5fN+iyzXBZDfl/2bGcbddWR9WeoOQDtIqd9OaANnon+Z1AmT2zc5Y4ls2sweqMGs2e3onjPSBxx9AkOUqcQNqUzDOHzMzNu+Vn3GyJCp0pvpwgDnyEZBHgpOvu6toaBEshMI0f/5Zxqnocw2DjT4WNIO4nNUvuoBqZpDNbLPy13g2xoF1Bf6dYzEb5lbrwaFYRQA/ykP6ukNPVSPxTuY0Tjlijcl2ZJZMJlPlJDbVbD+lWoG3DTUh1030/EhymdgQOtdHD9Tlwa/n5VLT46GIbi7uVL/XxZqSWC4oG8fDe4R2Xglwsb8N2bfj1zfslJM1S57NwuipAaXDtBOoZ4U9MzD9pwEwW0WKIyYYBvlNQ/HDi5exCljd0hvajyEeGuEjoL6gu4WeqzVH/aLGeEefdKXypI+1Npu8xHnw7KkfXQZh9+Po5F+xlwXKfQD+t4w0rWsdXQx3qdBRrGY88BdY+JHTTml7MNRdt9Xf2IRiRqOuB9fyoWdiVRKC2Xymvx5cpqvPVoAj4f5IrxUyLtl/emq7BwfBM8drliWoIJGRt9u+4+3ivrvecALPVAoXsTVt1SgbnrfbCxWQWdWYSXl+WSaOWJfZWPt0nqF9WdlzZ3NfShxpmmMm8c6ajGuJEdcBkr4JvvvTBtQjPCa5rhX6xBtqXjVcjYF1hJ/c6OcGzLVCNzQzOev7kCvzjY2SkwAGgHsaMUVWmfSY8v4BqSiLCEOYhZeDXGdhxHTe4uFKbtH3gyZI8JCAxVoC09R/Ylt4L3eEQmXoKwMQnwNJeg+ugeHFmdjDpdr6vRTTLyYxyNoJFeaDj4PI7kdZ+jrITvjN9j7OiJcM3a7tB5VXrTbRaQMQeYPkHE5IUCylfDYZfFKUKAkRdhkHkzRLR+dwYGb9J2Mlt2+MrOAeqAm01GGlV4K0ZKLe+wdcBvxsgIqTVXBaKsd2Jp0JWXEWB9rNnkjX8+r8UFY0xSB9u3xCoPPQI8gPZGFzT0vVbCymtKOX4W7I13X/LCAG/LTiMrP0OV3aUZU8cI2Pu/CGzO7eoB1W0ICpBSDXBHQpvbWY7TzbMsAgoKPWC6qAmT/IGCgc4gsafs0vL0RssvgP1/P7ZzObLK5aB1nXZdlbENTa4olg4qJka1QS39Z/24NOiLiTTAKA0iquz84oas82YVmloBd/deZxEJJni6WW7upDozd08f4vsyN3oiT2fCrIQWuBweuI2am9xQ1GpGVLDhxJxlglsHRvienFljiwuK7bkVobQ9KmukOhBngke/4OeZbu9yyn6CjHooq6/rpeFQGNZfewS/mh+E36z1gFFWuWzXZ3vKNeT3ZVffMrgzWn8G46h+/rTJ6H/sYbNcAor3BiLr6gosvNyMpBBPrNvj4fCpRgRv6eAgVnoi9fE1aQLarJM8iQieIA1JJ8F6JsZJv9GopXHVYtF6Bp45TxqWWE5pcJGR5lQMsBxZeXbQae5nZQzZi+DRhphAqZzSgZm1SGZ35BYLuCS4Ax6CV9eBpxlBGiPEpq4DOpMHjhYIuHKMdCCo8OgMkKlbMCFaRNVBz865oFxN8HGzBKH6rs8SOBHcTHAborFZLl11l9JYDgwHuzmZrTQnlcsuIsZdXI3YRg3eTjuNOQRPl7TtKtKkf8ZLdW6BGWP2KZBXghM3AancKx3AF0lllOqslzSmiU4CSiw3AblAhJ8lAFgo1VPLCQ+9AoCWwhRuBqb8UUS4pWBdG89R9VBWH+6oMaSd+x1bxymnTUZ+zE3uKGo2IT6qHYrDnZfTCt5tGOXXUzJ79styxhKyjvWGICfPvSlcjdB4mGFolbbzAI1TGdqKaCk/uq78RFryU6Gxnv3nqDG/rG0oo68z5I3AfY+EQtU9CBeMuPj2bPzcGIHfva9Beb+dl62y2ybgaKof2n7VgIlhbkgM8MTmdNvzp5uMgnUePy/LXevrPJErtdVrR7fCfbNr5x2/hXaMHWVER6EnCntPg9bLSeNMo2UuPzOWTKyGn5cPPvrRDSPur8eVmnZUH/PqvHxclLEv6CJ2la9ybwS+u8CE5beUWLcxA4CnRPoyK5NRYHnssszRNxvhCTMQ6HMATTrL+wIUHkHwCPCGi38swqYuhKZ9HzIyimXu0ASoQpMQ4lmJsq1rUFFY2ndOPzvy0+KSiCD3KpQdz0dLfU+N6DiWh7jLE6VOeSdKW87Qz2zSYo9/Doyz7EQXiYjeLEDb69fiEXeIWHRjT8HESgG7nxV6TQA6OP02AZ9uG+bLA0RXlFYDl02sx6j9QShuF2C2nBFkti+NoKnFXdf74KUtHlDEluOXU4Hk9/1P/NoZPK0U1/p6YO9RD5S3ioicVodYhRu+r+jfc0jbdH7u4JO+Sh3P1Qvr0L47HpvrBymTjDSy8zNU2fWuKK41Y/a4Zvik+6BRMGDqtSW4wl88eQchZzvb4JA8y6Q7GIZvrsrBHb8pQtuqYKTXCPCOaMBFGk98sN0TRrvKrkS+1g3ul1RjwSg37K5TSDs0dedE7I7ehg5Yl6Pqqs1tKA0Ytuz0wrLri3FPzkh8cUyBsGnFuHmMGtte8rWeei/7AjpbdV5aV3KmC26YXYKf50ZgW7kCmvgK3DBWgfSPvNA+wEdO21Dfl8kTazf4YP4tx/EXXRQ+TnFHq7seMbH1uMzHF0997QuDwRsbd7viP5eWI+lAFJKlQeOEqyowXRqUaO3Jh6IFt9xbBt+jGqQUuKOiRTr4jqvGXXMNKN/qg9I+AcBhaO9yyg6Z9VBOf9if2QMbNnvjhmWluHR7LDY3yiuXzfoss1w22bOdh+Ko+tNFcDEgMqq179koRhVKyl16fnB0QN/rKDa/L3sWJqNc5roAfJdVgoeWVsJ4ZCS21ji6RNLgfrx0QCV9f+ZsATufFmAd5qmBma+LiA0VET5CQG33GRTSQf6kfwETvUS4WiYMkwqcvxroMzSUk0aOIZYjK89F9q1u0HGmI8eQCqOUNz08lB0IcJGK6N2BGEv916tRVKGGXtmE5bfXw5Dlg/xqNYwerZh7VQkuErzxyk6PrgCgC3b86IfbVpTi/kvV+CDdBV5jy/HzyQIOf+zXNWeYGju3BOAX95Xh/svd8Fa6EiOvKMaVXl54r7uednjhgHQA/7v5RbixNALby6T9V1wFfplkQpm0fOtBqLoBt93RgFapz8ivUqNNpUfC7DLcFK3EgR+8Oyewl5NGTrnkbJ/udO46LL6gA6U/BnXeefNMkL7ykb8xY/xoAerAzpf8Fpmx8EKgfY+AbV90nmXauElA3qUi4kYAM14wY1KddFymEaHMUmDNPqnrbRWQ/b20r1kCRP/ejJBfAi4BnXcFLlonfX6AdqFPAQpqgfignoCaw45l5PThjtov27XfsXGc4ghy8iNtn293u+PKeUW4RRstjQ1MmLGkAtLhKQq708jdL8scS9g61rNJTp578ZuTj49va0LG+1MGvHGL4C/lZ4mUnx88IIyqwB3TRKR8rOm8qsNRY34521BOXyf1DWUVvebtkfKj67BcBq5GaYUr+l1QaLPscujz/XDAXIjLruzAyEJ/7BtgXkfBQxrbhLXDIJjhHdyEaxdJiUrDOqcPkcaLm7Z5Y8lNxfjdJUp8nqdE2OxiLAl3xabP/DDYfWJPGmfqlMjOc0PU1VVQ74zDMWncmdxahF+NA3bv6upXRRn7gv5EFxzaGozRN6cjHgwAnj7rHH0bpEfX39b6qoRP0gOYlaiHoaUSjYXrkHpwO+pb5VZJEYa8D5A80C2x7cqPGv5zJ8G19TDq6vr2OMayI2jAMgRHe6P0yOlcw2EjO0cEZKWLmDFZxMTrpB1j9x2wpH9cgkTp0ZNWlGqjaphjenYxu2Lj5yMw+bYyvPJSIVwVApLfScSfd/T6pVJGGkNWMLZ6leGpf7XCu90d+9bF4sU9PfOy6NuBqAXFmH+9Hn5uAhrLvbHlrTH4uNC+jeMxqRzXj/DCRyu9Bz0YlJNGdn6GKrvZCx+/EYnAXxzH+y9IA/tWFQpSgvF1TisW2bOdBSOu+n0qHp7U05YmPpqM5dK/xqIR+NXfR+C46KA8y1wX2r3x+rNxqF1Shp/fl4lQdwH1lvWt8e38Tu0pu9Qwjm8ahbcij+PORw7j92oBh7p3aI7ahg5cl6Pqqs1tKOW1ZPMY/M2lEHffeBTv+oporfbCj+/G4fV0pV07e9t1XoG0z+PwtLEYt/w8Bzf7SOuq9cC+L+Pw2s6B75A4ILn1x2LI70tA6fYx+ENHKe5YUIAXlxigsgyOir2x9wfXroMsBbK+jsVzrgW4/4k0uOpVKEn3w97qNoTasW0sp/tk5qhxw8xSXHatHr5u0oG5VPbUTWPw5vp+v+YOR3uXVXZ59VBOXzeQmgOh2PazXPziqibs+NRbXrlk1Gc55bLJrr5lKI6qP11LC6zG/z1W3ec1c00o7v9TFDK7CyerjzpNjurDHdaWu0iDnd27/fGbxHpk7PXvvBuwgwVPFaAWRNSnCTgxPbRBQHkmMOYCEeFTgMxN3dvJErwQYWoC6jKl/cJaAblH+p31IyeNHEMsR1aeB7kpw6DrGoZxpuBVjwce1WJ69/FqeAFWSgf7ppJw3PNoBPJFJdpcmrB0eTWCvMwQLIGvXA1eeDYC31b2ZKY+eRT+4lWEX1+ZjzduMcFQ74m9X8XifztcT+x3mtKj8NcPinHvNVKaG81oLvfFqlei8WV513Kk+rd+ZRxclpXg2hVHcKeniLZ6D6T9MAYr13b14WY1aqVOc9F1tfi5vxEeghI1pV74/p1ReL97LConjcxy2dw+XYULnFGFue5eeHeXg28i0ZuULbcwwH9kTy1SaqS/pUdbTq+5tZoFHPybgKabRIyZJsLbX6qz0kF+WTpOnJBRu0qB7UYRk68Q4ednOa4Cjq1VIHVnZx09qZrpBeRvBWKXDXDVxWmT0Yc7ar/sqP2OjH5VVrxfVn4EHF07Bk9L2+eu32bgVpMbkjcF4YfaEsSYetLI2S/LHUvYOtaTsYFk5LmbCA93MxRmFarqFAP2kcZsKT/u5XjyiRb46N1xYP0YPL/bxa7jFNtjLXnbUE5fJ98QZbdn323wxp4jJvzzgmYc/XzUiRu19OY+pQBvTem6zL/JFXlZ4fjbl2En+rDSbaPxf25Sua7Jw/8sxylV3tj8ZhzePDL0KQr9x5lleV7QuehxJMMTBrMCB9PdcG+cEhnanh+1be4LBpC8PQ+1Kn+8cC8DgI5nOIj0lQdlJzcXvIvtK89YZlC/6xFs2TXAW607kfr6TvmLahew/cZ+E30fFvDl0l6vNQPbbux35o/UKPL+oUDvWGbWn6UdlY3VHX9SMcBtzs8Eaaf27lRc2fsl0Q2f/nMaPh0gdXN+GB79W9iQS7SZRup4v387Al+/PfDbuswR+Jv0sG2ISV8FaeC2sA6GPbHYNNjZBXLS2JWfocvecjwETz4W0u/VILxjz3Isc0s8Px3f2ciHQ/Isc10WZp0PVr8tPQZ5356yi22e+PyVifj8NJcjp66e7rocUle72NqGll+8DkkDlnvWD/y2MT8Kt/666w/pwOLue7qetwTjj/cEd2VDXp23tNGtq+Kkx+Dlsdlv2FF/LIb8vqQDreN7pZ299BiUwQ0/fDhWevR+MVLm2rtIB32HN46UHvKSn/H2biGj7DbroZzv3eCHJ389/eTX233x3O97Xu+QWS7b9VnGdyqD7e0scx/niPojrSvl/URc/r681IN/73Ly7Ng2OOT35ci23MXL1wDXJn98n3pmLnUsfUXAx6+cfCBQ9Lz0+vM9B2v9x3UnGWDsd0pkLEdennuUvKTAxy8NsCCzvHGmo4iNQXh4RdAQKTyw5tXxWGNzQUrkbB2FB6THUGnyd4zEA9JjMOYmb3zxdkKvm3P0Y/LA+nfjMMiuVH4as7xy2d4+nWq2x2PhdpvJTo9UN47+VQE5990QdVLalYKUdpB6awLKVgvWx4CfLxXw3Q1936tfJeCTVWfoTAcZfbij9svylzPE2E9OvypnXCc3P9L22fbxWOnR9bdahz/NE1CnU/cEnWztl+WOIS2GPNaTv1+2mWfr4kyYEN8K07EIfJreP9gkYN9bPev6+t2Bs+uwMb+csY2cvq5PejW++c90fDPQe0OV3a59t0LaTomY99ZA63fHx49Nx8cDvNWHZQy9YTTu2TDI+zLHmciJxo13RJ/4s2zjOMzvPy63tS/oCMBTD4xCh75vmFqX2pmeAUAiJ2S55Xh7VgRe2Okz6CWLctIQORPW+Z8mfu90rlC7GeEbpMNdCxtRsycBB52gQqq90TnZ/WBM0rFwy9mc55GIfuoUgQ24KlaB9CxPVBoMmHhlOeaY/PBclvw7sA/3WEJ2nl2bMDVGje9eC+q5yc9PxU+57KeBAUAiJyQ2eeObdd6nnYbImbDO/zTxe6dzgwkXr0jDXyYrUJweiafWybsZzTlNLWLWWyKi1YMnMWsFfPuQAN3ZuqsrEZFKj8nzynDXbXp4KZWoOu6Pd1+Ows4m+YsY9rGE3Dy3++PJ+/yHL1/nkp9y2U8DA4BEw0bAnjeS+p7yTURERD8BSvzw32n44Wxnw5FMAtIfB3IHuLvhCW1AM4N/RHQWmSuC8OQ/bF+Kfvocd6w3fHmmnxoGAImIiIiIyD5moOGIgDN3KzkiIiI6XUlJSdBqO+8LzgAgERERERERERGRE2MAkIiIiIiIiIiIyIkxAEhEREREREREROTEGAAkIiIiIiIiIiJyYgwAEhEREREREREROZmUlBRoNBrrcwYAiYiIiIiIiIiInBgDgERERERERERERE6MAUAiIiIiIiIiIiInxgAgERERERERERGRE2MAkIiIiIiIiIiIyMkkJSVBq9VanzMASERERERERERE5MQYACQiIiIiIiIiInJiDAASERERERERERE5MQYAiYiIiIiIiIiInBgDgERERERERERERE4mJSUFGo3G+pwBQCIiIiIiIiIiIifGACAREREREREREZETYwCQiIiIiIiIiIjIiTEASERERERERERE5MQYACQiIiIiIiIiInIySUlJ0Gq11ucMABIRERERERERETkx5wwAKkdhzLI/ICD/aRxILoWonoZJd65AsEIEzHoYWirQULgXhSnbUd9i7vqQAh6JD2HWzHpkvfkGKk1ntQREREREREREREQO4YQBQAGuYxYg3O0wcjLKIJ543YTGQy/jSH4HXPxiETp1MRKvj0TGlx+iulUcYnlERERERERERETnr/MvAKjwhvfIGQiPj0X7wTdQWG3u+74yEhGJ49CR9Syq2nsH9kSYW6vRUlOL5hot6sqb4XLzrRg9YRtqDhRDTghQNXo5Jo5sRkX2HlSV18IkN254Up6VCJr3H0z03AttWwzCwzRQoh66w6uQnZYPg3ga6yIiIiIiIiIiIurlPAkAClD7j0fIuLkIj5sAT5SjNncHKpr6R8WkdDELEOGZiZxMG0G91kzUVJoRFxEPt+RitMkIsJlqsqAbeTlGLboKY9tyrcG5sqOpaGgxnFKeFeGJ8Nr6HPZurIYi4ApMvO4ejGv5J9JzG+xcFxERERERERERUY+UlBRoNBrr83M7AKgOgib2AoQnzEJwgIimggMo27oOlUVl1rPkTqIYgcjEidAfeQ5Vti7rFdvQ3mKAEO4PFwGyAoBiQzq0W6THdg38YmYgLH4Rpky/CfqSZJRl70Z5QRH0Cvl5FnV7UJBTBcs5jObabSg8Ng9TEhLhmvcj2uWsi/MUEhERERERERGRDedwAFCAevQyTLkkAfrC9Uj9aBPqW81Dpx+1ABE+R5GXXoihUp42Yx10ud9bH7n+sxA370aMmZ8A9VePo9Bffp7NDVXouUrZhDZdHcSoULgL6Hl90HU9hvzKM1pKIiIiIiIiIiJyAudwAFCEUbsGmXtqEZ4wD4k3z0b9sf0oz9mP6oHmxBPCEJE0GcbsF1HVIuN0PsEdbh5qiK066O2dX88yp1/UNITGz0RIdDhQk4qCbbtQWmOCUWdPnhWWuCW6r1UWlIL1T3nrYvCPiIiIiIiIiIhsO4cDgIDYUYqqtM+kxxdwDUlEWMIcxCy8GmM7jqMmdxcK0/ajqcMSPROgGnklInxycXyDFrKujPWYgMBQBdrSc9AuMwAoeI9HZOIlCBuTAE9zCaqP7sGR1cmo07X1JDLJyXNnUqUmEl4KoN6aYVd4aYIgNuy1Xo4sa11EREREREREREQ2nNMBwB5GdFQmo8Dy2GWZE282whNmINDnAJqqLdGyEIyYmghTzn9R3jLYmXECFB5B8Ajwhot/LMKmLoSmfR8yMvrfLMQDboGR8OodRRT10OuqIIYmIcSzEmVb16CisHTgeQhl5bkriedMjJ6Zg5yMEghh8xETA9RtT0OHKEBl17qIiIiIiIiIiIh6JCUlQavVWp+fJwHAXqxz4m2QHj0vKaPmI1JzHNpNx4aY+08Jn6QHMCtRD0NLJRoL1yH14HbU979ZiDIBsUv/itjer5mLcGzVk9DmfYDkPEfkWWn9f1PJNlS6L8CU5SOgNlSi+uBKHM3RWQOShlNdFxERERERERERUS/nXwCwPyEIEVOnQcx5FRVNg4T/DAeRvvKgjQWZ0Zr6DLamOjyHgxKMFSjbsg7FW4ZvnURERERERERE9NNy/gcAXX1hKl6D7OxceXP/ERERERERERER/YSc/wHA9nyUHMw/27kgIiIiIiIiIiI6J53/AcDzkgHVm+/H1rOdDSIiIiIiIiIickopKSnQaDTW5wwAEhEREREREREROTEGAImIiIiIiIiIiJwYA4BEREREREREREROjAFAIiIiIiIiIiIiJ8YAIBERERERERERkZNJSkqCVqu1PmcAkIiIiIiIiIiIyIkxAEhEREREREREROTEGAAkIiIiIiIiIiJyYgwAEhEREREREREROTEGAImIiIiIiIiIiJxMSkoKNBqN9TkDgERERERERERERE6MAUAiIiIiIiIiIiInxgAgERERERERERGRE2MAkIiIiIiIiIiIyIkxAEhERERERERERORkkpKSoNVqrc8ZACQiIiIiIiIiInJiDAASERERERERERE5MQYAiYiIiIiIiIiInBgDgERERERERERERE6MAUAiIiIiIiIiIiInk5KSAo1GY33OACAREREREREREZETYwCQiIiIiIiIiIjIiTEASERERERERERE5MQYACQiIiIiIiIiInJi/w8tAvloxJ7B1AAAAABJRU5ErkJggg==;" vertex="1" parent="1">
          <mxGeometry x="190" y="380" width="1240" height="248.97" as="geometry" />
        </mxCell>
        <mxCell id="TUQ-kvWmkpdN_xwGLiBi-2" value="" style="shape=image;verticalLabelPosition=bottom;labelBackgroundColor=default;verticalAlign=top;aspect=fixed;imageAspect=0;image=data:image/png,iVBORw0KGgoAAAANSUhEUgAAAkAAAABhCAYAAAA+9R6MAAAACXBIWXMAABibAAAY3QHvVmsXAAAjMUlEQVR4nO3dB3gUVRcG4C+9QHojCQhIUykC0hFBShDpvTdRUVE6SJMiVQwtKthQioAIitLV395AQVDpvYWShDRCevnn3LgxZXezG9LzvTz7sNlpZ2ZnZ87ce+eOdZoGREREBDklpmqvtNRUJCWngKfI0ss6Ni6+qGMgIiIiKlTWRR0AERERUWFjAkRERERlDhMgIiIiKnPyNQFKSEhAXFwckhITkZScrBqPlbX2YxYW8rKAjbU1bGxt4eDgADs7u6IOi4iIiDLJlwQoJiZGvZKTU/JjdiWaJHyS+CUkJqlXTMxdWFtboXz58upFRERERe+eEqCkpCRERkSoEz0ZJolhZGQU4mJj4ermBhsbm6IOiYiIqEzLcwIUq53MI7Tkp6xVcd0LSRRDQkLgpiVBjo6ORR0OERFRmZWnBEiSn/DwiPyOpUyQhFG37ZgEERERFQ2zEyCp9pKSH7o3sg2lKozVYURERIXP7AQoktVe+UK2oWxLL2/vog6FiIiozDErAZI7vdjgOf+k3yUWw7vDiIiICpnZCZA+P//yGz7eug2xsXFZPm/ZojlGPTUs79GVAUyAiIiICp/JCZB0cmion58tH3+COD0PVf3l19/U/0yCgHmvLsZjrZrj8cfbZPlctqlsW3aWSEREVHhMToCkh2fDwww/UV6SIF0ilFmH9m0xcEBfk5Y9bfosdH6yE1q1amnS+AXlwMGDcHV1xQO1auXrfGXbMgEiIiIqPCYnQPJ4i/z09f++NTkBKmrSs7M83uLAgT9QtWrlfE+A8nvbEhERkXGmJ0DJyQUZh8nCwkIxafIM9O3TA//79nvExyWgY8f2qFTRD5s2f6L6KKpf/2GMfvYpREZFYsLE6egY0BZH/zqmqpo6BrTHk506qnnduHkTGzZswvkLF+Hu7oauXTqjZYtmCI+4jQkTpqFN61Y4cPB3THt5Mt5a/Y72eQSOnziJ8+cvYuKEsapTw3XrNuKcNr2PtxeGDhmEmjVrqHlfvHgRH2jDQkPCULfOQ4hPiDW4TsVl2xIREZUVJidAacXs3ndJGhYtmIdz585j2fIg1Hu4DubNm4WE+AQsWPgaDv5+CLVqVVf3m/v5+mLggP4IDg7Whi1F1SqVUb36/QgMXIlmzZpgwvgXceXqNSxf8QZcXJzg51dBLcNJe78scAnKlXNE4OuLsXLVm6oEqHu3rkhJSUagttwWzZpi4sSxOPznEax64y0se30RrKyssXLlW2jd5lE80TEAp06fxuo17xpcl+K2bYmIiEq7fH0afGEKCGivelKuV68unLVEpW2b1nB2ctayFqBG9eq4efNmegKkadykkarCqlixIpo0aaglK0dVaVBCYjx69+oOS0srVK9WDe3atsF33/2IwYP7qek6PRGAco7l9C7/5MlTiIu9i+7dO2vztkTTJk2wc+ce7fMzsLG1QZKWIPXo3lXNu2GDBqhU8b5C2zZERERknMkJkCQQxbWkQpIMKyurjL8tLC2Qkpqqd1wXF1eVHEVGRsLD3VNNq+Pt5YW//zpm0jJv3w5HdHQMnn52TMZnqakpar62dvbw8HDPMm9jZNsSERFR4TE5AbKxti4VnSCGhYapJMjT0wMRkdKrdaoqwREhoaFwdXU2aT7u7u5qHlJFlt2JEycRHRVtckyybYmIiKjwmJ4A2dqW2AToh+9+QoeAdrhw8SL+OPwnJk8ah+rV7oednb2qturc+QlcuxaM77//ASNGDDU4Hwd7ey1JCkNSUiJq1Upv7Lxr1x506hSgEp6du/aiR4+uqFGjuiqF+vHHn/HYY4/i0qVLuHH9usH5yrYlIiKiwmNyAuTg4ICYmLsFGUuBCY+MxOTJ09X73r16ZNzGPkVLhNZt3Iz9Yyep9kS9enbHIw0bqrvA9JF+iFa//Q6WL7+Nl1+ejEkTx+GjzR9j774vYWtjizaPPwYXFxdVpTXupTH4YN0G7Ph8J/z8/eDl42UwPtm2REREVHhMToCkoz5rayu9vUG3bN4Mv/x2wKwFyzSmWrJ4QcZ7T08vrF/3Xpbhq1a8nuXvMS+MVv/rEpmePbtiyOABOebr7e2NqZPG5/jc3c0jxzLEQw89iDeDVmb87efni6mTJ+iNuWrVKpg/b7b+FcpEtik7QSQiIipcZjU+kWdWRUZG5fh81Kjh6kXm43PAiIiICp/ZCVBcbGyJbQtU3NjZ2jABIiIiKgJm337k6uamekAupnfEZ2GoKqs4kDvfZVsSERFR4TM7AbKxsYGbduIOD48oiHjKDNmGsi2JiIio8OWpAxq5Y0pERESUiJKg4kRKfiT50W1DIiIiKnx57oFPTuBSghGpJUFsE2QaafPjypIfIiKiIndPXRDLidzL2xsxMTHqpe8WeUq/1V0aO7PBMxERUfGQL89g0J3c5QGjcXFxSEpMVE9rl2eHlbUqMqniko4Q5fEW0sOzdHLIfn6IiIiKF5MToBu3wsyYrSUsrGxRlh/xmawlfskJyYhLuKP9daeowyEiIipRfH08C3T+ZpUAVatSsaDioFLq/KVr3G+IiMgscu4oaHwMOREREZU5TICIiIiozLE+c9G0Dg2dHIHeb10t4HCotFnauSy3BCMiorwyNT/JK+v6D/maNGJh1McRERERCVPzk7xiFRgRERGVOUyAiIiIqMxhAkRERERlDhMgIiIiKnPyNQFKCr+MhFvHkBx5BWkpWZ8LZu3sC9sKdWHnXTM/F0mlwJkz53Dg9z9w7tx5JCUlZxlWufJ9aNa0Meo/XLeIoiMiotIoXxOg+ODDiL92GKkxIUBaapZhSREXkRofpd4zCaLMvv/xJ3z3/U+4fv06UlKy7jcnT51GeHi4es8kiIiI8kv+lgBJkqMn+RFpcZFIuP43UuKjkRR6MsdwS1snWLtWgq1XjfwMKU88ylnh3RF+GPreNcQmFs7TXPNjmUURd36QJEdf8iPCwm7jl18P4nZ4BP48cjTHcFcXF9SoXg1169YuhEj1e/a5sXiyUwB6dO9SZDEQEZF5rKNj7ubf3KTaS0/yo5OWeAdJN/9Rr+wsHFxh51ff7ARo3Sh/ONlbqvdxSWm4GJqID3+OwIXQJPNiJ7O19b2Fb2/43PN8kpOS9SY/OlFRUTh48A/1ys7T0wOPtmxudgKUlpaGT7Z9hs8+34XQ0DD4+vpg0IB+6PxkR7PjJyIi47Zu+xT9+/Yu6jCyKDaNoKWEKOn2hTxNu2RPGA5fjoO9jQV6N3LB1E5eeG7D9XyOkLJ70PUOPO0T8fllPySmWhVJDFJCdOx4zhLF3Kz9cCP27fsSM6ZPwQO1auL06TOYOXs+7O3t0K5tm/wPlIioDDv851HcuHETo58ZBQcH+6IORyk2CdC9SEUaUtOgqn2+ORGDHg2cUM7OAncT0uDrao3Rrd1Rw8cWt2NSsP1QFH48E6umMzYssxfausNfG3feF6FwcbTE28P8sOlAFJ6oUx4OtpbYdTQaV8KTMPJRN5S3s8Qfl+IQ9PVtFVNlDxuMaSfT2yBMW4aUTh29Ep9RXfXV8Rg8VrMclu0PM7jMxJQ0NL3fAUOau8Jdm+7K7SS8+0M4LobpL+XqWt8Z7R4qB0sLYPfRO/j8yB31uamxDH7X9F6/vewTMKz6FXx+xQ9h8XYmT1eUEhIS8PHW7Zg7ezoeaVhffdZQ+39A/97Yu+8rlQBduXoNgcuDcOLEKXh7e2H40EHoGNBOjStVdq+9vhLXr99A0yaNcDf2v1LU4ODrWBq4Ese16Sr6+2Hi+BdRr16dolhNIqJi5bqWAC1eugzPPfMU/PwKtpdnU5SKBEjHztoCneo64VxIokp+bKyA2d288fOZu1i0OxRVvGwws7MXImNTcPJGgsFhwRH/3Yk0rIWrSpBmfXZLJSI6NlYWGL/lBmpWsMOsrl44cjkek7fehKOtBRb08kGL6o44pCVC8l6SlZ+1xKpTvfKY1NETw9//L8GIjkvF6PXXVeyGlulgY4GJ2nTzd4bgxPUE9GvsggkBnhi7+Ybe7WBlCYzddANVPW0xU4tNtoe8TI3F7O1ulYL+Va/im+veOBXlbPb0he3S5SuIj49H/YfrZflckhyRmJiIiZOno0O7x/H6kvk4e+48prz8Ctzd3fCwlsxMmz4HXbt00hKmPjhy9C/MmbdQTZecnIxJU2eiY4d2CFy6ED/+9AumzZyD7Vs3wtHRsdDXk4iouJFj78o3VqNfn55o9EjDIo2lVCRAUuWVlpZ+4k9OTcPCXaHq87oV7VW12JaDUao05szNROw/FoOAOk6w1hIYQ8M+/Cn9AWzdGzirRGb69lsqocpMSn2kxElKUKJiU/GVNu2d+FTtBZzW5uXvZoMD52Mx49NbuBqeXlLzk5Z4jGrlpkpx0v6d3RdH0udjZ21lcJnSPCZFC7KCizXO3EpUJVXfnIwxuD0+/zMa8UlpKsn75WwsmlVzxCntvamxlHaxsXGwtLRE+fLl9A4/dPgI4uLi8PSo4bCyskKd2g+hV4+u+PyL3Wp4YlISRo4Yooa1erQFqlerpj4/cuQvxNyJwfBhg9T8pSRp3fpNWpL0N1q2aFZo60dERLkrFQnQ0n2hOHwpXlX5NK7qgOmdvVQJiJzcQ6KTVYKjczMqGQ0q2xsdptPlYSckJqdB/hmTomUQSZlmlKq9l1iStcSlgrM1nn4sPdHQlfFYWCAj6chO3zKlFOjVL0LQo6Gzqga7EJqIzQeiEHonRf9MMrkdk4z7PGzzFIupElIs8fkV/xJTBebq4qx9R6laIhSrt2RG2hX5VvBRCY6Ov78fDhz8A+HhEfDx8c4yTOdWSAgio6LQLqBrxmepqSlqfkREBNjb2eG5Z0exCiy/SQ5y8EKcKv2o5m2rEgTP8tbqZK87x0spSsTdFKPDdGbvCEHX+k4Y18FTJSDm5gnSxmh8gIeaz3ktaZHqsY3PVDQ6jb5llre3xJ2EVCzZG6ZKuaSa75VuXhi5NjhLAqePh7aOUq2Xl1hMIUnPjiJsBJ0X/v7+sLe3x99/H0OzZk0yPt/88TYcO3ZC3c4eEhqmkiQpyRHStsfDw13ddRYZEaF3vl5eXqigJU5S5UVERFn5Vqigkh82gi4A1tq5qmWNciphuBSWiHAtmYlLSkXvRs6qWqiShw0CapfHmu/CcTw43uAwnRtRSXj7+3AE9q+Ano8447PD0WbFI7fnSwlLaloaXBws0UGbv7CytFClRProW6avlpjN7e6NV3bcUrf3R8WmJ2mGSm56NnTG9kPRqOppo6rTluwNzVMsuTkZ6ZQvt8EXNltbGwwZ3B8rglZjtrMzqleritNnzmHz5k8wbuwLaFC/nvYDdcCGjZsxeFB/XLh4CV/s3IOpU8ajbp3asNCSoj17v1S3zJ8+cxaXLl1W89V11Lhh4xYMHNBHlRZt/GgLRo4cCg9396JcZSKiIiU3nPA2+AIwo7OX+l+qiq5HJCNwfxhC/q0emr8zFM+2cUP3BhURk5Cq2vz8fjHO6DC5K0pHSpOWfRmGBT19VNIUfjf3aicdaVe05687KnmRKqh9/9xBcGQyXB2tEBqdbHC67MuUNkXrf4nElE5ecNYSGamqk3XUl7bIZ3e1dXlziK9KeD75I0qbR4IalpdYjCmJyY/OsCEDVQY5a/arqp8hfz8/PDd6FDq0f1wNX/76IgSueANbuveFk5OTag/0WKuWatjihfOwZOlyrP1gA6pUuQ9+/n7qczs7Oyxbuggrg97Cpi1bYW9nj+7dO8Pdza3I1pOIqDgobsmPyNcEyMrBDck2jkhLynkree6ROMDK0fwTxYi1wUaH39JO7pLomDPstpbk9H7rasbfF0OTstwannmYeHZd1junln/1X5sPuV1eXjpSMqNvPrktU25Rl5cxMo8+/85Dd+t7ZqbGUti8PD1Vg+SYPHTKKW14fLy9zJ5OqrZGDB+iXvpIm58VgYv1DnugVg2sW7tG77DKlSthxbIlZsdDRESFK18TIHnYKSwskRJrfqNPSZ5svB/Mz3CohJB2ONKo+OatW2ZPK8nTI480KICoiIioNMvXBMihSjP1IjJHQIe26kVERFRYSkUbICIiIiJzMAEiIiKiUi06Ohqrgt5Q78eNfQnOzs5MgIiIiKh0W7kqCB9+uF69T0tLw+xXZjEBIiIiorJDSn+EWQnQp2MqFUgwVHqdv2T6k+WJiIgKwvhxY9X/kvw8NXKEes8SICIiIirVJPGRaq/MmAARERFRqXbPjaBZnUFEREQlzT01gvby5POMyHyhYfqfnE5ERFQU8tQImqggZH+q/cWQMHzx+xEcOn8JNyLSn1fm6+aMRtWqoHuTBqjq7ZllfHnoKxERkSFsBE3F3srdX+OTXw/l+PzCrTD1kmH9WjTC+C4diiA6IiIqidgImoq1se9vxqELl9V7SXIC6tfG/T7pT3q/cCsUXx49jm1aAiRJ0IWboQh6elBRhktERCUEe4KmYktKfiT58XJ2wrIR/VDD1zvL8NqV/NSra6OHMWndJ2pcmaYgSoJCQ8PQs88g7N+zA+XLl8v3+Zc23F6mSUlJReu2T2DjundRtWqVIp+POcsLemM1Dvx+CP379kKvnt0Mjlua9oXRz49Fp04d0aNb56IOhfIBe4KmYkna/OiqvST5GRa01uC4vy2enjGOTCNtgu738TQ4vj7TZ87FTz//qnfYmBeeRfu2bcyanyGdu/VBVFQ0LCws4OHuhlatWuLZZ0bCqXz5fJl/SZCYmIR+A4dh5fLXUKXyfSZPd/HiJby15j0cO35C/d240SN4ccxo+Hinlwh+8+338PT0wMP16uY6r8zjmhNPXqe7Fx+u+whbt32KnTu2wtbWVm8she3r/32LXw/8jqWLX4W3t3eO4fkdmy6Jkm3g7v7fzTevLnhN++2Uw4TxLxqcNvv3VBDbraD2zcJw+fIVbNz0Ma5cuQZ7OzvUr18PPXt2hZurqxp+5uw5dXzy9a2Q67ySk5NhZWWljm8lDRtBU7EhDZ6FVHtlL/nRR8bp0/wRbP/tsJp2QlfzSoEWLZiD1NT0ltdTXp6JenVrY+iQ9Oo0KytLdQDOL0sWvYrmzRoj+PoNrNNObmNemoj333lLO7nZ5NsyijNZz7mzp6Oiv5/J0yQlJWHcxJfRrcuTmPPKNCRqf7+/dj0mTp6Gjeveg6WlJf73zfd44IGaJp04Mo9rTjx5nS6v5Kp07/6v4Ofri2+/+xFPdGyvN5bCdvnKVdSt/ZDB0qaijC277N9TfsdWkPtmQZPYp8+ai65a7OPHjkFKSgr27vsKa9duwKSJL6lE5syZs/D38zMpAUpKSlbrW1ISIDaCpmJJ7vYS0uZHSClPbp5oUEclQLppzSE/WCsri4z3FtqPWBKf7Pbs3Y/tn32Bu3fvom/vnhg5Yoj6/LqWzCwNXInjJ07C398fE7UrUkmi9LG0tFBXSfdVqohZM6di+MjRar49e3Q1Oq+bN2+hT/+hGP3sU9ixYxfuxt7FgH59cP/9VRD0xhrcuRODli2bYdaMl1XsV68FI3DZKpw4eUq7SvfC8KGDENChnVqGfPa6NkyW1aRxI0RERKJ9+8fRsnlTdaXdvVtnfP31twhaFQhraysseW2ZOun5aFf7L734HJo2aaSSwt79hqBvn5749dcDiE9IQL++vTCwfx+j20uqT14cOzmjuubChUsIXBGkHWjPwcfHC8+PfgaPauuR2a1bIQgPj0DvXt3h5OSkPntJu8Kev3ApwrXYX3hxgornj0N/4vjxk1i6ZD7Onb+gN+5+A4dnGXfxwnlZ4vnxp1/w9jtrERoWpm3bqpg8YSxq1KiW63TG1sNQLLmRZcmJZ+jgAVi3flNGAqQvlsyMLc/Q+mVnaP9Zseot7N6zX0vOUnGw2yFs0Nbfw909Y7rssU2ZNC7ffjuG6EqIpk4ej482fYwYA/vbyzPm5NhPjC3/1KkzeC1whRpHtt/du7E5ll2Q+2Zu8Zn6XRoSEhKqfvudOnbIqJ7s2aMLtm77DHdiYrBlyzYtqUnUxgtDRFQU2rZ5TLWbOXX6nPr+nZ2d1HGsXLlyuH37tpZs2mnHC2uVBJUEbARNxZLuVnddg+fm0xfnGCd7UqQbVzdtQbhy9RrWf/gOTp8+i3ETpqKjdkKSYu5JU2agY0A7BC5dqA5K02fOwbatG+Ho4GB0fnKgaKId+P488pdKgOQKzNC8dJISk7BxfXpx++SpM9G0aWN88P4aLSGKVQfb777/AY+1elS7Ap2O9u0ex+uvLcDZs+cxZdosuGsnKjl4Tp8xFz26d1EJy5Gjf2Puq4tUAqTj6uKCT7d9pCVS1ujVdxAmTngJHbR5faqdwObMW4g9Oz9V46WmpqpqBTngX7x0Gc+9MA4P1KqZcbWtf3v9V6IXHx+PiVOma4lcb6xa/hqO/vUPZr7yqjpZ+fj8N56/Nr+6dWprJ5XX8MzTI/DgA7Xg6OionfjnquGfbFmvqjHlyllO1HFx8dpJb5LeuLOPKydInVhtG86euxDLX1+kqgI+WPcR5s5fhE0b1hqdzth6yEHWUCy52blrL3pp+0XjRg1V4iHbU044xmIxtu4JCfEG1y8zqTYytP9MGDcGDvb2CNFO1LNnvZwj5uyx6UpP8/u3o8/pM2exzsj+lnO7Gf69WWv7/rQZs9Gly5MqqT9y9C+17bIr2H3TyPFA2qyY8F0a4+fni4cefABBb76NwQP7oVq1qrDXvltZtpCLrd179qkSoAYNHlZVXL8d+AP1H66rfp/y3V6/cRM1qleDh4eHWjd9F44lCRMgIgOeGz1KHZgbaAccqSO/qh3Ug4Ova1dLdzF82GBVetT28db4ULtaP6olFi2aN811ntIW6Oy58+q9JEKG5nX/v9UNkrSUK+eorhjd3FzRo1sXuLg4q5cciKUu//CfRxAXG4ennxquDki1az+onUi74fMvdqt5JCUnacsYpBIwKaWome2qceCAvuqKUA54a95ckVHV0aF9W6wMWo0w7WrP8t9i7se1q0JRtUpl7X1rdZAepE1vaHtlPiEdOnxEreeAf0uN5EQ/YfwYVY2QmYyzasVSbP90BxYtDlSJipRGDB0yQJ1ssrOxsTYYt65dhj5y9SovqZ6UbTZC20ZdOz+R63dobD2MxeKpnTQMidSuuOWEPm/OTPW3JKy7d+/DC88/YzQWY8tzc3Uxaf2M7T+NHmmQ6/bQpyB+O6Ysw0dPGyUdY783aW8l39/I4UPUNni0ZXPtRH9/jnkU5L5pLD75HvKyr2aPXRK1Pfu+wrvvf6iqXFs92kKLvy3s7OxyjC/Hi+bNm8D535IuaY91OzxcJWpSql0aMAGiIiedHKb38xOq7vQypQpMxtVNW1As8F/dtqV2UJQfvlwFRWknq3YBXTKGyRV5WNhtk+Yp4+kOKFKcbmhe9+tpbyEHHTmgZsRkmR6TjF/B1yfL1Zi/vy8OHPwd4RER8PL0NKmYOv0Ae1OVPsg80/7toTItNVUWnmN8Tw93daWvo297ZSZVB95eWRusS3G8PtKWY5B2lSovaXT67vvr8MKLE/HB+6tzrIvRuI2Qk96KZYuxafMnePvdtahZswae1a7qM5dG6ZPbeuQlFmmLIdUKPfsMVH9LMmppaaWuyo2dbIytu6nrZ2z/yauC+O2YsgxjjP3e7O3t1HYxpUSjoPZNY/GZ+l1OmDwdx44dV+9nz5qmEpyssduip5Zcy0uq2/bs/RJr3l6LcWOfz9GWR9ZFEuNz5y6ozmYlSZLP0rL3XFuCMQGiIic9PEsCJP38SAKUvQpMX0K0/8ixjGkLk7SPqFDBB9s+3mD2tHIwk1uJ5eo+t3lJGyBTVZDi6ZAwdWDSHcSCg2+oYmpPd3ftxBqeZZgh0g5k3vxFeGPVMjxQqwZitKvRJzr3NDi+FId7eLgbHJ6drG/2k92p02fVlbCUbukcOPC7uhrWlX7I1fOsGVPR8ckeuHTpimoHdS9x60RH39GSUWcsWTRPnTylemLi5BnYs3Ob0YTR2HpIe5S8xCLtbFYuew0VK/pnfLZoSaC6W7FN61YGpzO27qaun7H9Jz+Z+tuR0k1JRCIiI7PcBRahJfP3VfI3MmXel//nn0dV+5jcFOS+aSw+U7/LFYE5mw/oHNSOPf9oyZGU9AmpEhsyeICqkgsJDc1ReibtgmRdpdRY2jvJ8evsuXO5bqOShAkQFTm5lV1uaZdODqWfn9ycvRGiGkCLHk3zVkSfV1IfLjZ+tEVVHd0Oj1DvnxoxNMvBOjNpO3P1ajDeW7tOXfl1+bfo2ti8zCH19Q6ODli/cTOGDOqPC9pV6ec79+DlKeNRt25tWNtYq2H9+vRUBzQ5WQcEtM8xn+ioaPVYEivtgCong52796rPMxd579y1RzWEPnnyNH748WcsD1xkcpwNG6R/t5/u2KmuQKXB7ZSps/DuO29kSYDkwDxrzgJ1MuioxSnn5B1f7FLVdH5+6XenODg4qCoVab9iLO7s42YuTbkWHKzajrwZtAy1tCtqN7f070+XBBiazth65BaLPn/9/Q8SEhJQr16dLJ8/1qqlahckCZChWIwtL7f10zG2/5gic2zGmPrbkVKK5s2aYPWa91SjaldXF21f+0XbTsfw0pjnTIpJX2zGli+/E0sLS1US92SnAHU7+EUtocmuIPdNY/HdvHXLpO/SGD/fCliydLlq49O69aOqBO3nX37TYrDPuA3exsZGJVuS7CQmJqaXsWnLkDvIpOQzM1l2SS8MYgJERU6e7SW3wEsSJJ0cbhg7yuDt8JL8yDhCpqniZV4fQPdKDs7Lli7EiqDV2LTlE9WXRvduXQwmP1OnvZLRD1Dz5k2xZvXKjAafxuZlTgmQFLNL48jA5UHosnW7ulp7etTwjOLvJQvnqbtbNm/ZhsaNGqiGnPpI2wJJbsZNnAobaxv06tUN991XSR2IfbUDvggNu42+/dMTNCmCl9t3Te02QNZXGncuW/Em3n3vA1XCsHD+bFSqmPWqXpYpjYslYZS7XiwsLVCrVk0t2VqsGm2KLk92VI1CJ9+aiaAVSw3GLeuaedwVgUsyliMNQse8MBqzZs9HVGQU/LRxF7z6SsZJxdB0RtdDexmKpUIF/bcW79q9Dy1bNMvxudzlt2xFkKoaMRSLse9MGsAbWz+d3Paf3GSO7ZUZUw2OZ85vZ+b0KVijfffS0D5KOyFLuzW5S0pKWMzppiL7fmJs+YsXzVUJwtoP1qNKlcqqGjC7gtw3jcUnL1O+S2MqVaqIxQvmqn6mpARJEh+pSpMSIV2fUw899CC+++5HJHz3PQLat1UlXEeO/A1HLUGW/dtOG0+SN9lnpDpeLu5KckNoJkBULEiPzvJ4C+nhWTo5lH5+5Fb3zI/CkGovXclP4+pV8qUX6GWv5yzB8NKSqp9/+CrLZzu2b854LwcwY0XNOnt2bs91HEPzkitMYzGIeXNmZLyXK9PlBmKqWbM6Pnx/TcbfAwaPVA1k9a3n6GdGqpeO7g4R3Uln1MhhGPfS81mmyW17ZR4mB9Q3gwL1xpmZnNilMztDGjasj907t+Uat75xM8cjvfwa6unX2HTG1sNYLNm3k5hlIGmQ281/+Ha/ei9tPQzFYmx5xtYvM2P7jzQ2NsbYdhJ5+e1IEia3uetjzv6WPTZjy5eSlcy/E0MKct80Fp+p36UxcsfZnFcMt7GUJGfY0IEZf9eqVUO99JGSyJLeFpoJEBUb8mwv3cNQJdHRJTvZ8WGo5pGi82dGjVDF/Pu//Fq1pahXt07uExIRlWJMgKhYkcRG2gRJD8/SyaGunx+520saPEubn8Ku9irp+vfrg2Ur3sCNGzfhX9FPFYNnbnNDRFQWMQGiIpe9Glue7WXu4y3IMLmLI3tvy+bSV+1ARFSSMQEiIiKiMocJEBEREZU51s7/PhSNqCCEhkXkPhIREVEhYwkQERERlTlMgIiIiKjMYQJEREREZQ4TICpw5y9dy30kIiKiQsQEiApUtSoVizoEIiKiHJgAERERUZnDBIiIiIjKHCZAREREVOYwASIiIqIyhwkQERERlTn/B89nJ4LScoGsAAAAAElFTkSuQmCC;" vertex="1" parent="1">
          <mxGeometry x="20" y="160" width="576" height="97" as="geometry" />
        </mxCell>
        <mxCell id="TUQ-kvWmkpdN_xwGLiBi-3" value="" style="shape=image;verticalLabelPosition=bottom;labelBackgroundColor=default;verticalAlign=top;aspect=fixed;imageAspect=0;image=data:image/png,iVBORw0KGgoAAAANSUhEUgAABAAAAAQACAYAAAB/HSuDAAAACXBIWXMAAv/BAAOxoAGY7BHYAABYYElEQVR4nO3dC5yl6V0X+OfcT1X1fXpmejIJECAJFBc7l+EiqBtwW3C9ICKBZQkGEV0Mmsx4B7Y/5aogOklAQd0F0Sgo10UQlAKCl5VFJySNQEMSlRCTuc/0vavqXPd5TlXP9Mz0pbrqnPOcc57vNzzznq6uOudfXc3p9/97n+d568PhMAAAAACLrZ67AAAAAGDyBAAAAABQAAEAAAAAFEAAAAAAAAUQAAAAAEABBAAAAABQAAEAAAAAFEAAAAAAAAUQAAAAAEABBAAAAABQAAEAAAAAFEAAAAAAAAUQAAAAAEABBAAAAABQAAEAAAAAFEAAAAAAAAUQAAAAAEABBAAAAABQAAEAAAAAFEAAAAAAAAUQAAAAAEABBAAAAABQAAEAAAAAFEAAAAAAAAUQAAAAAEABBAAAAABQAAEAAAAAFEAAAAAAAAUQAAAAAEABBAAAAABQAAEAAAAAFEAAAAAAAAUQAAAAAEABBAAAAABQAAEAAAAAFEAAAAAAAAUQAAAAAEABBAAAAABQAAEAAAAAFEAAAAAAAAUQAAAAAEABBAAFWF1br8TDShyH4ji4c7w2WhlLA9iNK3H81NnTpwa5CwEAmGcCgAUQG/z0c/zEOF5z3Xh1HK8Mzzf91WwFAuzfL8b3urecPX3qg7kLAQCYVwKAORNPgNMV+8+N4wviOBm2m/3U/PtZAovsd8ZxJr4HfnM8vstsAACAO6dpnHHxZLcWD28I2w1/Gp8Xx1LWogDySO99D8fxR80GAAC4cwKAGRRPbI/Hw5fH8UVx/J6wPY0fgG1mAwAA7IEAYEbEE9lmPPyBON4cx++Po5G3IoCZZjYAAMAdEgBkFk9c03r+1PS/KY6jmcsBmDdmAwAA7JIAIIN4onogHv50HF8fx6sylwMw78wGAADYBQHAFMUT03SF/xvj+HNxHMtcDsCiMRsAAOAWBABTEE9G74mHB+P4hjgOZi4HYJGZDQAAcBMCgAmKJ5+viIe/EMfXBbfuA5gmswEAAF5EADAB8YSzHQ9/JY6/FEcrczkApTIbAADgOgKAMYsnmV8cD383jk/KXQsAI2YDAAAEAcDY7Ez3f1ccX5q5FABeymwAAKB4AoB9iieSjXh4Wxyn41jJWw0At2E2AABQLAHAPsQTyE+Lh38Rx6fnrgWAXTMbAAAokgBgj+JJ4x+Ph++KYzlzKQDsjdkAAEBRBAB3KJ4opob/u+P4mty1ALBvZgMAAMUQANyBeHK4Gg8/nB7mrgWAsTIbAABYeAKAXYonhW8O21f+bfQHsJiuzQb40vie/7VmAwAAi0YAcBvxJLAaD98Rx1tz1wLAVHxeMBsAAFhAAoBbiCd/zXj4Z3H8sdy1ADBVZgMAAAtHAHAT8YTvYDz8eBxfkLkUAPK5Nhvgm+LxO8wGAADmmQDgBuKJ3r3x8K/jeG3uWgDILs0GeEfYvlOA2QAAwNwSALxIPLn7pHj4mTg+KXctAMwUswEAgLkmALhOPKn7HWG7+b83dy0AzKTrZwO85ezpUx/KXRAAwG4JAHbsXPlfj+Oe3LUAMPPSbIBfMRsAAJgnAoDw3Jr/dOVf8w/AbpkNAADMleIDgJ3d/n86WPMPwN6YDQAAzIWiA4B4staMhx+L43W5awFgrpkNAADMvGIDgHiCVomHfxLH781dCwALw2wAAGBmFRsAhO0rNV+RuwgAFo7ZAADATCoyAIgnZF8VD2/LXQcAC81sAABgphQXAMQTsdfEwz/IXQcARTAbAACYGUUFAPHkqx0PPxTHgdy1AFAUswEAgOyKCgCi74jjM3MXAUCRzAYAALIqJgCIJ1tfGQ9fn7sOAIpnNgAAkEURAUA8yXpVPPzD3HUAwA6zAQCAqVv4ACCeWNXi4V/EcTB3LQDwImYDAABTs/ABQPTWOF6XuwgAuAmzAQCAqVjoACCeSN0XD38tdx0AsAtmAwAAE7XQAUDYvqJyKHcRALBLZgMAABOzsAFAPHH6wnj4itx1AMAemA0AAIzdQgYA8YSpGQ/flbsOANgHswEAgLFayAAg+vNxvCZ3EQAwBmYDAABjsXABQDxBelk8fHPuOgBgjMwGAAD2beECgLB99X8pdxEAMAFmAwAAe7ZQAUA8IToeD38qdx0AMEFmAwAAe7JQAUD09jiWcxcBAFNgNgAAcEcWJgCIJ0CH4+HP5K4DAKbIbAAAYNcWJgCI3hrH4dxFAEAGZgMAALe1EAFAPOFZiYe35a4DADIyGwAAuKWFCACir4/jeO4iAGAGmA0AANzQogQA/3vuAgBghpgNAAC8xNwHAPHE5nPj4VW56wCAGXRtNsBfjcfvNBsAAMo29wFA9ObcBQDADEuzAd4Zx5eZDQAAZZvrACCeyLTi4U256wCAOWA2AAAUbq4DgOgPxHE0dxEAMCfMBgCAgs17AGD6PwDcObMBAKBAcxsAxJOWu+Phi3PXAQBz6tpsgHSngK81GwAAFt/cBgBhe+1/I3cRADDnPj+YDQAARZjnAMDVfwAYD7MBAKAAcxkAxJOTVPfvyl0HACwYswEAYIHNZQAQvSGOg7mLAIAFZDYAACyoeQ0AviB3AQCw4MwGAIAFIwAAAG7GbAAAWCBzFwDEE5BWPPzO3HUAQEHMBgCABTB3AUD0OWH7igQAMD1mAwDAnJvHAMD0fwDIx2wAAJhT8xgAvDZ3AQBQOLMBAGAOzWMA8JrcBQAAI2YDAMAcmasAIJ5gNOLhE3PXAQA8x2wAAJgTcxUARJ8c5q9mACiB2QAAMOPmrZk2/R8AZpfZAAAww+YtAPiU3AUAALdlNgAAzCABAAAwCdfPBnjL2dOn/mvuggCgdPMWAFgCAADzJc0G+C9mAwBAfvMWALgDAADMH7MBAGAGzFsAcCh3AQDAnpkNAAAZzU0AEE8WUq3t3HUAAPtiNgAAZDI3AUB0MHcBAMDYXLtTwDcFswEAYCrmKQA4kLsAAGCsloPZAAAwNfMUAJgBAACLyWwAAJgCAQAAMAvMBgCACRMAAACzxGwAAJgQAQAAMGvMBgCACZinAKCVuwAAYKrSbIAPra6t564DYJF04ri0My5f9/jauBjHh+P4zZ3x22ZjLY55CgAAAADYn2Ycd+2M3dhcXVv/UHg+EPhAHGfOnj716xOqjwkSAAAAAHAz7Tg+Y2c8Z3Vt/cl4+IWd8Z6zp099KENt3CEBAAAAAHfqnjjetDNSIPCxeHhP2A4Efvbs6VMfzVgbNyEAAAAAYL/uj+Ord8ZwdW3938bju+P40bOnT13KWRjPEwAAAAAwTpU43rgzvmt1bf3/icd/GsfPnT19qp+1ssIJAAAAAJiUdGvXr9oZj62urX9/PP7fZ0+f+mDessokAAAAAGAa7ovjz8fx4Ora+g/H4984e/rUr2auqSgCAAAAAKapGrY3D/zy1bX1n4jHv3729Kn3Zq6pCAIAAAAAckh7BfzhNFbX1v9N2A4C/mPmmhaaAAAAAIDcviiN1bX1dCvBt1kaMBkCAAAAAGbFF8TxvtW19e+Mx9NnT5+6nLugRSIAAAAAYJakPvXBON60urb+9rOnT/1w7oIWhQAAAACAWXR/HD+0ura+Ho9vPXv61IdyFzTvBAAAAADMslNx/Orq2vq3he2NAnu5C5pXAgAAAABmXSuO03H83tW19a84e/rUR3MXNI8EAAAAAMyLz4vjzOra+lefPX3qX+cuZt4IAAAAAJgnd8XxU6tr638rHr/FkoDdEwAAAAAwbypx/OU4Pn9nScDHchc0DwQAAAAAzKvPD9tLAt509vSp9+QuZtYJAAAAAJhnx+P416tr628+e/rUD+YuZpYJAAAAAJh3zTh+YHVt/e6zp0/9vdzFzCoBAAAAAIugGsffXV1bP3H29Klvzl3MLBIAAAAAsEi+aXVt/d54/NNnT5/q5y5mlggAAAAAWDRfF8fdO3cI2MxdzKwQAAAAALCI/nAcP766tv4Hz54+1c1dzCwQAAAAALCofl8c37e6tv7VZ0+fGuYuJjcBAAAAAIvsq+J4Mo4HcxeSmwAAAACARff21bX1x8+ePvXtuQvJSQAAAABACf7W6tr6E2dPn/onuQvJRQAAAABAKb5ndW396bOnT/1U7kJyEAAAAABQitQD/+Dq2vpnnT196mzuYqZNAAAAAEBJVuL4odW19QfOnj61kbuYaRIAAAAAUJpPi+PvxvF1uQuZJgEAAAAAJfoTq2vr7zl7+tQP5C5kWgQAAAAAlOofrq6tv/fs6VMfzF3INAgAAAAAKNWBsL0p4OecPX1qK3cxkyYAAAAAoGQn43g4jrdmrmPiBAAAAACU7htW19b/+dnTp/5j7kImSQAAAABA6SpxfPfq2vrrz54+1ctdzKQIAAAAACCEz4zjG+N4Z+5CJkUAAAAAANvWVtfWf/Ds6VOP5i5kEgQABUhzWZq1SmjHn3Z7dNwZtfgXoFrJXR4AADAlvcEwbPZD2OwNt0c/HUPoxOMwd3Gz4WDYngHwptyFTIIAYAGkHv74UjXcu1wN98Rx70ptdLyrfa3Rr4SKPh8AALiJYez+t8OAYXhmcxievDoIT1zpbx/jeHpjEAblJARfvrq2/j1nT5/62dyFjJsAYM7UqyG88nA9vPpoLbz8YG3U9Kfm34V8AABgr9IFw6V6ZTSOtkP45CO1+NHGc7+fmv8UAqQw4KOX+uGD5/rhty70Qm+Qr+YJ+3ura+ufcfb0qU7uQsZJADDjUmP/cbHRf/WxenhNbPo/8Ug9NKq5qwIAAEqS+pJ7dmYcf8bxevjiV4bQjc3/fz/fCx841w8ffLYXPnKpv0izBF4dx5vj+J7chYyTAGAGHWhUwuvubYRPvaseXnWkNprGDwAAMEvShcnXpAuVcYRPao2WD3zofD/8xjO98L4nuuFyd+7TgL+8urb+fWdPn+rnLmRcBAAzohb/n+czjjfCZ51ohE87Xg81PT8AADBH0oXLNDsgjT/66nb49ad74T8/3g2/+nQ39OdzqcAnxfGVcfyz3IWMiwAgs1ceroXPvq8xuuK/7Eo/AACwANIFzc+8uz4aV3vt0YyA//RYN/zWhbm7mP5XVtfWv//s6VNzP50hEQBk0Ir/3/D59zfiaIa7ly3oBwAAFle60Jl6nzSeujoI/+/HOnF0w1Z/Lnrq1Ti+NI4fzV3IOAgApij9xf89r2iGN8ax3HC1HwAAKEu6APpHXtUOv+8TWuEX/kcn/Ls4rvZmPgj4piAAYLcONivhCz6uGX7Xy5uhbXE/AABQuHRB9H/5xFb4wo9vhv/w0U54z0c64VJnZoOA166urf/+s6dP/XTuQvZLADBBR9vV8Htj4/8772+6dR8AAMCLpAuk//PHt8L/9IpW+MWPdcLPfaQTzm3O5I6BD8YhAOClUrN/6hNao7/IdY0/AADALaUeKi2X/rz7m+Fnf3srrH94K3RnKwd44+ra+ivOnj71P3IXsh8CgDFbvasevvw17XB8SecPAABwJ9IF1C9+ZSs8cKIRfugDm+HsM73cJV2TGryviuPbcheyHwKAMUnT/f/oq1rh5D2N3KUAAADMtXRB9RtOLoczT3bDj35oa1aWBbw5CADKlvb0e+PHNcPvf2UrNG3wBwAAMDbpAmuaZf3Tv7UVfuEjnZD5zoGfurq2/oazp0+9N2sV+yAA2If7VqrhLZ++HF52wHR/AACASUgXWr/kk9vhs040w/f92tXw2JWsswHSLAABQGk+577GaK2/q/4AAACTly68/oUHVkZ7A/zSY91cZXzl6tr6Q2dPn8pWwH4IAO5QavjfFBv/z77PWn8AAIBpSv3Y/7a6FF51tB5+8AOboTP9NQHH4/jiOH5i2i88DgKAO3BipRq+7jOWR0cAAADySBdkP/5QLXzPr14Nj09/ScCXBAHAYkt/wd5kyj8AAMBMSBdm/+IDK6OZAP9puksCvmCaLzZOAoDbqMR+/8te3Q6/5+XN3KUAAABwnXSB9qtXl8LHHaqFH/ngZhhOZ0XAx6+urX/i2dOn/vtUXm2MBAC3UKuG8Mc/bSm89h7r/QEAAGZVumB7qFkJ//jXN0J/OisC3hiHAGBRtGuV8PW/Yym8+qg/IgAAgFmXLtyuNCrh//qVjbA5+c0B0zKA7530i4yb7vYGDjYr4c+cXA4vP1jLXQoAAAC7lC7gvu31y+G7zlwNlzoTDQHeOMknnxQBwIscX6qGt752eXQEAABgvqQLuQ+9YSX8vfdfDU9vTGw9wH2ra+ufevb0qd+Y1AtMggDgOvcfqI2a/zQDAAAAgPmULuheCwE+drk/qZdJswAEAPPo2pV/zT8AAMD8S71d6vEefu+VSc0E+Nw4vnsSTzwpAoDw/F8MzT8AAMDiuD4EmMCeAJ867iectOIDgLTb/zectOYfAABgEaVeL/V83/HLV8d9d4DXjPPJpqHoAKAWe/4/+ZlL4RV2+wcAAFhYqedLvd93/8rV0B/faoADq2vr9589fepjY3vGCSs2AEiT/d+8uhRec6zYPwIAAIBipN4v9YD/+Nc2whjnAXxKHAKAWfelr26H19/byF0GAAAAU5J6wIudYfjRD26O6ynTMoCfH9eTTVqRAcADJxrhja9o5i4DAACAKUu94Ecu9sMjj3fH8XSfMo4nmZbiAoB7l6vhKz6lnbsMAAAAMkk9YQoBnri67w0BBACzqlEN4Ws/Yym0am73BwAAUKrUE6be8O88ciV095cBvHpMJU1FUQHAl726He4/YMd/AACA0qXeMPWI//w397UfwLFx1TMNxQQAb7i3ET7vfuv+AQAA2JZ6xA+d64f3PrHn/QDSrQArZ0+fGuONBSaniADg7rTu/1Ot+wcAAOCFUq/425f64am97QeQ1pevxHF5vFVNxsIHANX44/jaT18Kbev+AQAAeJHUK6ae8W8/ciUM9nYd/2AQAMyG3/3yZnjFQev+AQAAuLHUM6be8d/+j85evjwFAI+NuaSJWOgA4HCrEv7AJ7ZylwEAAMCMS73j+5/shgtbdzwN4OAk6pmEhQ4AvvRV7dCum/oPAADAraXeMfWQ3/drG3f6pQKA3F5zrB5ef28jdxkAAADMidRD/uKj3fCBZ3t38mUCgJxq1RC+/DXj3/V/c1AJz3RqYaNfCVvx8VY8dgY7j68b6WMAAADsXbM6DK3rxnO/rm0fl+LxrmY/tKvjvQNf6iX/5n+6HPq7vynA8lgLmKCFDAB+78e1wr3L1T19bdr18dluLTy9VQtPxWb/qeuOl3p7e04AAAAm42B9EO5u9cPdzf5zx+PxeKzRH90V7k6lXjL1lD/z4a3dfsncXAFeuAAgbfz3Ra/c/cZ/vWElfORqPfzXK404muGjG/XQH2+ABAAAwISkC7Vp/PcrL1wCnu4E//KlXviklU745JVu+PjlXqhXdtfspZ7ylx7r7GVDwJm2cAHAF35cKzRucaE+XeH/2GY9/LfU8F9uhg/Hhr9ryj4AAMBCSRd2f/tqfTTe81QYNf+fsJwCgW745AOd8PJ276YzBFJPmXrLH/vQ5nSLnrCFCgAONCrh8+9/6cZ/KbP50OVGeN/5dviN2PRv9jX8AAAAJUmzv7dnfjfCzzy5PNo74FMOdsLrjmyFV610XhIGpN5y/cNb4XJ3cWYBLFQA8MaPa4Zm7fmf2uNbtVHT//7zrXDR+n0AAAB2pE3ez1xojUbaR+C1h7fC649shRPt7TsApN4y9Zg/+d92vRfAzFuYAGCpXgm/++XNcDk2+u+PP8D3xab/0c2F+fYAAACYkLSHwL9/Zmk0XtbujWYFpEAg9Zg/99udsNFbjFkAC9MhP3D/cviJJw6N0pvBYvxsAAAAmLJ0IfnRx+vhp59YCScPb8VecxD+/W9fyV3WWMx9AFCtN0Pr4NHwvq2VMFycmRkAAABklC4sp5nllXBvWDp6JWxdOhcGvU7usvZlbgOAaqMVmgeOhlprefRrF/0BAAAYt9RrVlsrYSmO/tbV0Ll8Lgy683n1ee4CgO3G/1hs/JdylwIAAEBB0gXopTj6Wxuhc/nZuQsC5iYAqNabJxorh0N96WDuUgAAAChYuiC91Lo/9DYuhe6VCydy17NbMx8AnHz4kWqlVv++9rGXfXWl6lZ+AAAAzIZ0gbrWWnnHa9/1/tcO+723nHnogUHumm5lpgOAk+/45T9Wa698b7XedNkfAACAmVOpViv1pYNvHvQ6fyT2sH/izIOv/+HcNd3MTAYAJx9+5P5qo/WvGiuHT+auBQAAAG4nXbiO44de953/5cygu/UHzjz0wMdy1/RiMxcAnHzHL7+lvnTw/6rU6jNXGwAAANxKrbV8slpvfjj2tn/qzIOv/0e567neTDXZr33XmR9vrBz6wyFUcpcCAAAAe5IuaMfe9ntjj/slw373S2Zlb4CZCABOPvzeV1ab7V+sLx2Ym90TAQAA4OYqIfa4f7Df2Xw09ry/68xDb/hQ7oqyBwAn3/HLXxf/UP6+Kf8AAAAsmlqzfW+13viNk+/85beeefvr/0HOWrI23a9915mfaKwc+oOm/AMAALCoKtVarbF86O+/9jvO/JFhr/vFuZYEZAkATj78SLPaaP2X+tKB1+R4fQAAAJiuSqi3D5zqdzY+GHviTz/z0AOb065g6gFA/EaPVJtLZ2vN9n3Tfm0AAADIqdZc+qRKpfLbsTf+1DMPPfDsNF97qgHAyYff+4paa/lXq43W4Wm+LgAAAMyKaqN9T/zvb8Ue+TPPPPSG357W604tADj5jvd+Zq298kvVemNpWq8JAAAAs6jaaB4Klcpvxl75c888+IYz03jNqQQA8Rt6Y7194GcqtXpjGq8HAAAAs65ab7QrlQOPxJ75i848+Iafn/TrTTwAiN/I768vHfzJSrVWnfRrAQAAwDyp1Or12DOvx975D5158A0/NcnXmmgAEL+BB+rtA/9S8w8AAAA3lnrm+tLBf7mzHOCRSb3OxAKAkw+/95W1pZX/kNKMSb0GAAAALIJKtVartVf+Q+ylP+3MQ2/4b5N4jYk05ycffuRYrbVyplprtCbx/AAAALBoRj10e/lM7KlfeeahB54e9/OPPQCIhTarzaWzox0NAQAAgF2r1psHQmv4G7G3/vgzDz1wdZzPPfYAoNpo/1qt2b533M8LAAAAJag2WseHw8Gvn3z4kU8689ADg3E971gDgNd+x6/8u3p75VXjfE4AAAAoTa259AlhMPjF+PBzxvWcYwsATr7zfd/cWD70u8f1fAAAAFCyWnvls2Ov/dfPvP113zyO5xtLAHDyHe99fX3p0No4ngsAAADYVl868Fdjz/2vzjz4hl/a93Pt9wlOPvxIu9ZaeU+lWq3u97kAAACA51Uq1Uqttfyzsfe+d7+bAu47AKjWm79gx38AAACYjHRngGG9+2/jw8/az/PsKwA4+c73nW4sHxrbhgQAAADAS9XaKw/EHnztzNtfd3qvz7HnAODkO9772fWlQ3t+YQAAAGD36u0D3xJ78Z8+8+Ab/tOevn6vL1xrLv2rSrVa2evXAwAAALuXevDUi8eHd+/l6/cUALz2ne/79vryoeN7+VoAAABgb6qN1vHYk//t97/9dX/hTr/2jgOAkw8/cry+dPDtd/p1AAAAwP7V2itvj7353z7z0ANP3snX3XEAUKk3f6JSq+/77gEAAADAnatUa7VqvfmT8eFn38nX3VEjf/Id7z3VWD78uXdUGQAAADBWtfbyZ518xy//wTMPvv4nd/s1dxQA1JpLPxAq9v0DAACAvCqxR2+/Oz44utuv2HUA8Np3vu/v1JcP3bWnugAAAICxqjZaR177rvd/9/vf9tpv2M3n7yoAOPnwI+360sE/u7/SAAAAgHGqtZa/Pvbsf/HMQw9cvt3n7ioAqNTq74qjsf/SAAAAgHFJGwLGfv274sOvud3n3jYAOPnwI/X60oG3jKUyAAAAYKxqzaWvjL37nzzz0AOdW33ebQOASrX27ZVaozm+0gAAAIBxSTP243g4PvzGW33ebQOAanPpT4+tKgAAAGDsqo321518+JE/d+ahBwY3+5xbBgAn3/m+tcbyoaXxlwYAAACMS7XeaPertb8WH37zzT7nlgFArdl+cOxVAQAAAGMXe/i3hb0EACff+ctvaywfPjCJogAAAIDxqtabK7GXf/uZt7/+nTf6/ZsGAPELb7l5AAAAADBbYi//1njYfQBw8uFH7m2sHPnEiVYFAAAAjFWt0f7E1NOfeeiBJ178ezcMACq1+l8LlcrkKwMAAADGJ/byo54+hD/14t+6YQBQrTe/bOJFAQAAAGO309PfPgA4+Y73PtBYOXJsKlUBAAAAY1VttI6l3v7Mg2945PqPvyQAqNTq/+f0ygIAAADGbae3/6LrP/aSAKDaaP1P0yoIAAAAGL8b9fYvCABOvuOXv6yxcrg1tYoAAACAsavWGq3U45958PU/cu1jLwgAKtXam6dfFgAAADBuOz3+jQOAar3+OVOvCAAAABi7F/f4zwUAJx9+pN1YOXx8+iUBAAAA41atN4+nXv/MQw9spl8/PwOgWv3joVKtZKsMAAAAGJ/U46deP4R/kH5Zf/7j9T+WqyYAAABg/HZ6/RcGANVa/XXZKgIAAADG7vpefxQAnHz4keONlSNHslUEAAAAjF213jySev4zDz3w9PYMgGrta0LF8n8AAABYKKnXTz1/CA/Xt39ddfs/AAAAWEDXev7tAKBafU3ecgAAAIBJuNbz7wQAtfvzlgMAAABMwrWefzsAqNUP5y0HAAAAmIRrPX99dAeAA0druQsCAAAAxq9SrdVS71+Pj74wdzEAAADABMXev16pVNwBAAAAABZY6v3roVr7zNyFAAAAABMUe/80A+De3HUAAAAAk5N6/3r873LuQgAAAIAJir1/Pf53KXcdAAAAwCRVltISgFbuMgAAAIDJSb1/WgLQzF0IAAAAMEGx908zABq56wAAAAAmJ/X+9VCp1nIXAgAAAExQ7P3TEoBq7joAAACACYq9fz2OSu46AHIbDgZh2O+lR2E4HI6OYbg9htufkbU+IKfK8/99/j+jY6VaTVdURsfR4+C0CoDZlHr/eu4iAKYqNvT9zkYY9DpxdGPT390+Dvq5KwMWQaUyWl2ZJlhW6404mqESR3U0bLsEQF4CAKAIg+5W6G5cCv3Ny6Or/QATkWYN9XujOUMpaAzhyvO/V6mEaq0Rqo1mHO1Qby2HSs2pGADT418dYKGlE/HO5WdDb+Ny7lKA0g2HO7OPOiHE96QUD1QbrVBvrYRae3k0SwAAJkkAACys3salsHXx6e21/AAzKM1O6sQRLj87mh1Qa2+HAbVGO3dpACwgAQCwkDqXng3dK+dzlwGwa4O0J0l830rvXSkMqK8cCvWlg27YBMDYCACAhbN1/onQ27xy+08EmFEpDOhcfCZ0L50bhQApDEihAADshwAAWCidS89o/oGFMRwOQvfqhdGotZZDY/nQ6AgAeyEAABZG9+rF0L1yIXcZABPR37o6Gul2gs0Dx0b7BQDAnRAAAAuht3k5dNKGfwALbtDrhs3zT4Rasx2aB+8a3UkAAHZDAADMvdFu/xeeyl0GwFT1O5th45mPhXp7JTQOHrNHAAC3JQAA5lqa9u/KP1CytO9Jb/PqaH+AxoEjoVKt5S4JgBklAADmVlrvnzb9A2A42igwLYdqHbl3tDwAAF5MAADMpbQRluYf4IWGg37YfPbR0Dx4LDRWjuQuB4AZIwAA5tBQ8w9wC51Lz4Z+ZyO0Dt9jSQAAzxEAAHMnrftPu2ADcHP9rY3RJoEpBLAkAIBEAADMleFgELqXz+UuA2AuDPu9sPnsY6F1+HioLx3MXQ4AmQkAgLnSvXJuFAIAsFvD0a1S01KAWms5dzEAZCQAAOZG2tyqe+Vi7jIA5tLm+SfC0rGXhWqjlbsUADIRAABzI61nTVeyANiD4TBsnns8tFMIUG/krgaADAQAwNxIt/4DYO9Gtwk891hYuut+dwcAKJAAAJgTw9DvCAAA9mu0MeC5x0YzASqVau5yAJgiAQAwF/qdTZv/AYzJoNsJW+ceD62jJ4QAAAURAABzwfR/gPFKwWq6RWD72H1CAIBCCACAudDvbOUuAWDhDLpb2yHA0ftCpSoEAFh0AgBgLgwHvdwlACykUQhwTggAUAIBADAX0s7VAEzG8yHACXcHAFhgAgBg5g2Hg9H9qwGYnOeWA6Q9AYQAAAtJAADMvGHf1X+AaRj0OkIAgAUmAABmnun/ANOzHQI8GtrHXiYEAFgwAgBg5gkAAKZr0OsKAQAWkAAAmAPW/wNM2ygEeObR7eUANaeMAIvAuzkAADc06Hef3xNACAAw97yTAwBwUykE2Hj20bCUlgMIAQDmmndxAABuadjvCQEAFoB3cAAAbutaCJCWA1RrjdzlALAHAgAAAHYlhQCjPQGO3heqdSEAwLwRAAAAsGvbIcD2LQKFAADzRQAAAMAdGQ76OyFAmgnQzF0OALskAAAA4I5thwCPCQEA5ogAAACAPRECAMwXAQAAAHv23HKAtDFgo5W7HABuQQAAAMC+DAeDsHnuMSEAwIwTAACMUWP5cKg2nfzCuAw6W6F79ULuMnal1loOg+7mqBku0SgEuLYcQAgAMJMEAABjlJr/evtA7jJgYfTSf67mrmJ36ksHQu3w3aF7+VzoXr2Yu5wshsNrIcCJUG20c5cDwIsIAAAAxqRSrYXmoeOhvnwodC4+E/qdjdwlTd12CPB4aB09EWpNIQDALBEAAACMWdoRP02F73c3Q/fy+dDfmpNpDGMyCgF29gQQAgDMDgEAAMCE1BrtUDt6Igx6nVEQ0Nu8nLuk6RkOd0KANBNgKXc1AAQBAADAxKUZAa0j94R6Jy0NeHoUCBRhFAI8LgQAmBECAACAKUnT4ZeO3x86l86F7pXzucuZjmshwJF7R3dKACAfAQAAwFRVQvPgsdE6+V4pdwtIIcD5J4QAAJkJAAAAMmgdOh7CoB96m1dylzIdQgCA7AQAAACZpH0BhuefDP2SQoBzKQS4J9TaK7mrASiOAAAAIJvKqBneOv9kOTMBQpoJ8OT2pohCAICpEgAAAGRVGTXDobAQIIUe4cjdod4+kLsYgGIIAAAAskshwL07IcDl3MVMyU4IcDiekC4JAQCmQQAAADAjRjMBLoTQ2yglBAhh68KTIYUB9aWDuUsBWHgCAACAGdI6fE9IMwJ6G5dylzI1WxeeGh2FAACTJQAAAJgxrcN3j47FhQDDeHK6LAQAmBQBAADADBqFAJVK6F29mLuUqdm6+FQYxv81lg/lLgVgIQkAAABmVOvQ8VCJx25BIUDn4tMhjEKAw7lLAVg4AgAAgBnWPHQ8pD0Bulcv5C5lajoXnxktB2isCAEAxkkAAAAw45qH7koZQOheKSgEuPTM6CgEABgfAQAAwBxoHrwrjGYCXDmfu5Sp2Q4BhqGxciR3KQALQQAAADAnmgePbc8EuHw+dylT07n0bAjDYWgcOJq7FIC5JwAAAJgjzQPHwmgmwOVzuUuZmk78Xochfe9CAID9EAAAAMyZ1AinuwN0CgoBtgOP4U4AAsBeCAAAAObQaEp8pbI9Rb4Qo6UPw52lEADcMQEAAMCcurY5XlEhwGgTxOHOpogA3AkBAADAHNsOASrP3TavBKPbIQ53bo8IwK4JAAAA5lxj5fDo7gCdiwWFAFcvhNFMgEPHc5cCMDcEAAAAC6CxfDiMZgJcfDp3KVPTvXpxdHeAlhAAYFcEAAAAC6KxfGh0d4CtgkKA3tWLIQyHoXX47tylAMw8AQAAwAKpLx8a3R1g68JTuUuZmt7GpdFRCABwawIAAIAFU186ODqWFwKkmQD35C4FYGYJAAAAFtB2CJBmAjyZu5Sp6W1cHt0doHVECABwIwIAAIAFVV86MLo7wNb5gkKAzcshnB/uhACV3OUAzBQBAADAAqu3D4RwpLITAgxzlzMVvc0rIcTvVwgA8EICAACABVdvr4RKbIY3CwsBhvH7bQsBAJ4jAAAAKECtvRLaR+8Nm+efGN02rwT9zSth89wToX3k3tGdEQBKJwAAAChErbU8aoaLCgG2ro6+XyEAgAAAAKAo5YYAj8fv+4QQACiaAAAAoDCjEODoibB57vGCQoCN0febvm8hAFAqAQAAQIFqzaXyQoCOEAAomwAAAKBQ2yHAfbEpfqywEOCx0Dp6IlQq1dzlAEyVAAAAoGC1ZnsUAmydezwMh4Pc5UxFv7M5+n6FAEBpBAAAAIVLIUBqhksLATaffSy0j90nBACKIQAAAGB7JkBshlNTXEoIMOhubYcAR+8LlaoQAFh8AgAAAEaqjdZ2CHDusTAcFBQCnBMCAGUQAAAA8JxRCHC01BDgRKhUa7nLAZgYAQAAAC/wfAjweBgO+rnLmYrnlgOkPQGEAMCCEgAAAPASzy0HSHsClBIC9DpCAGChCQAAALihar1ZaAjwaPy+XyYEABaOAAAAgJsqMwToCgGAhSQAAADglrZDgJeNmuKiQoBnHt1eDlBzygwsBu9mAADcVrXeCO27XrY9E6Dfy13OVAz63ef3BBACAAvAOxkAALtSrTWeXw5QUAiw8eyjYSktBxACAHPOuxgAALuWQoDUDKemuJQQIH2fQgBgEXgHAwDgjqQmuNQQIM2ASCEIwDwSAAAAcMeuhQBpOUCaJl+CFAKM9gQ4et9oTwSAeSMAAABgT1IIcG1PgLJCgO1bBAoBgHkjAAAAYM9GIcBd27cITLfOK0G6FeLmteUA9WbucgB2TQAAAMC+VKq10RXx8kKAx4QAwFwRAAAAsG/PhwCPhUGvk7ucqRACAPNGAAAAwFhshwD3FRgCPLq9MWCjlbscgFsSAAAAMDbPhQDnHg+D7lbucqZiOBjE7/cxIQAw8wQAAACM1SgEOHrfqCkuKgS4thxACADMKAEAAABjV6lWywsBhtdCgBOh2mjnLgfgJQQAAABMxCgEuLYnQFEhwOOhdfREqDWFAMBsEQAAADAxlcp2CLB17vHQ72zmLmcqRiHAzp4AQgBglggAAACYqBQCpCviJYUAYTjcCQHSTICl3NUAjAgAAACYuNFMgKPbdwfodzZylzMdoxDgcSEAMDMEAAAATEelMmqGiwwBjtwbaq3l3NUAhRMAAAAwPddCgPOPh/5WQSHA+SeEAEB2AgAAAKYrhQBHToya4v7W1dzVTIcQAJgBAgAAAKZvFALcW14IcC6FAPeEWnsldzVAgQQAAADk8VwI8GTob13JXc2UDEffb+vIPaEuBACmTAAAAEA+oz0B7glbsSnubZYTAqTvNxy5O9TbB3IXAxREAAAAQGaV0RXxUGIIcDiekC8JAYDpEAAAADADUghw704IcDl3MVOzdeHJkMKA+tLB3KUABRAAAAAwM0YzAS6E0NsoKQR4anQUAgCTJgAAAGCmtA7fE9KMgN7GpdylTM0oBBjGk/NlIQAwOQIAAABmTuvw3aNjUSHAxafCMP6vsXwodynAghIAAAAwk0YhQKUSelcv5i5lajoXnw5hFAIczl0KsIAEAAAAzKzWoeOhEo/dokKAZ0KlUrUnADB2AgAAAGZa89DxkPYE6F69kLuUqUkhQK3ZDpVaI3cpwAIRAAAAMPOah+5KGUDoXikjBBgOB6ONAdvHXpa7FGCBCAAAAJgLzYN3hdFMgCvnc5cyFf3O5ijwaKzYDwAYDwEAAABzo3nw2OhYSgjQufxsqLWWQ7VuKQCwfwIAAADmyigEqFRC9/K53KVM3nAYti48GZbuSksBKrmrAeacAAAAgLnTPHB01A53CggBBt2t0L18PjTi9wywHwIAAADm0qghrlRC59KzuUuZuM7l86HWWgnVRjN3KcAcEwAAADC3GitHRsfFDwGuLQW4fxR6AOyFAAAAgLm2HQKkmQDP5C5loga9zmjJw7WNEAHulAAAAIC5N7pVXiWEzsXFDgHS3Q/q7bQUoJW7FGAOCQAAAFgIjeXDYTQT4OLTuUuZqO2lAC+3FAC4YwIAAAAWRmP50OjuAFsLHAIMet3RngfNQ3flLgWYMwIAAAAWSn350Ojq+NaFp3KXMjHdqxdCfemApQDAHREAAACwcOpLB0fHRQ4Bti4+E5buelnuMoA5IgAAAGAhbYcAldGa+UU06G6G3ublUG8fyF0KMCcEAAAALKw0TT5tCrB1fjFDgLQXQL21YkNAYFcEAAAALLTRFfIjKQRIywGGucsZq2G/N7o1YOPA0dylAHNAAAAAwMLbDgEqOzMBFisE6Fw5P1ruUKk5tQduzbsEAABFqLdXQuXIPWFz0UKA4TB0Lj8bWofvyV0JMOMEAAAAFKPWXgnto/eGzfNPjBrnRdHbuBway4fdFhC4JQEAAABFqbWWQ/vI4oUAnYvPhLbbAgK3IAAAAKA42yHAibB5/vGFCQH6bgsI3IYAAACAItVaS6F99ETYPLc4IYDbAgK3IgAAAKBYteZihQBuCwjcigAAAICibYcA94XNc48tRAgwui3g8qFQqdZylwLMGAEAAADFqzXboxBg69zjYTgc5C5nf4bD0Lt60SwA4CUEAAAAEHZCgGMnwuaz8x8C9LauCgCAlxAAAADAjmojhQD3hc1nH5vrEGDQ3QrDQd8yAOAFBAAAAHCdaqO1HQKceyw20fMbAvQ3r4z2AgC4RgAAAAAvkkKA1pG0HODR3KXsWVoGIAAAricAAACAG0h7AtSXDobexqXcpexJv7OxfVeDSiV3KcCMEAAAAMBNNA8eC/2tK/O5FCA2//3O1VBrreSuBJgRAgAAALiJtIle88CxsHXx6dyl7ElvUwAAPE8AAAAAt5DW0Xc3Lo121p83/a2ruUsAZogAAAAAbqN16HjYeOZjucu4Y+lWgCm4SJsaAggAAADgNlIDnWYC9K5ezF3KHettXglNAQAQBAAAALArzQNHt+8IkHbWnyOjZQAHj+UuA5gBAgAAANiFtCHg6LaAczYLYNDrhGG/Fyo1p/5QOu8CAACwS42Vw3MXACS9rSuhsXw4dxlAZgIAAADYpWqtEWrtldDfvJK7lDvS37wqAAAEAAAAcCdSIz13AUB3MwyHg1CpVHOXAmQkAAAAgDtQa7ZH6+nTuvq5MRyG/tZGqLdXclcCZCQAAACAO5Qa6e6VC7nLuCOD7lYIAgAomgAAAADuUK01hwFAr5O7BCAzAQAAANyh0TKAai0MB/3cpeyaAAAQAAAAwB6MlgHM0S0B054Fw8EgVKo2AoRSCQAAAMage+Xi6FZrlGPQ7+Yu4Y6lWQBp9gJQJgEAAMAYDLqbceSuAm5t0NsSAEDBBAAAAFCIYU9KBSUTAAAAQCHmadNCYPwEAAAAUIjhcJC7BCAjAQAAABQi3QUAKJcAAAAASmEGABRNAAAAAIUwAwDKJgAAAIBC2AMAyiYAAABmVqVSzV0CLJbhMHcFQEYCAABgZlWqTlUAYFz8qwoAzKxKrZa7BABYGAIAAGBmVaoCAAAYFwEAADDTUggwHPRzlwEAc08AAADMNAEAAIyHAAAAmGnVejMMep3cZQDA3BMAAAAzrdZaDr3Ny7nLAIC5JwAAAGZarbWUuwQAWAgCAABgpqU9AKqNdhh0N3OXAgBzTQAAAMy8ens5dAQAALAvAgAAYOalfQDCpWdzlwEAc00AAADMvHQngGqjFQbdrdylAMDcEgAAAHOhdeh42HjmY7nLAIC5JQAAAOZCmgFQbx9wS0AA2CMBAAAwN5oHj4Xe1pUQhsPcpQDA3BEAAABzo1Krh8bKkdC9fC53KQAwdwQAAMBcaa4cCf2tjTBwW0AAuCMCAABgvlQqoX3sRNg690TodzZyVwMAc0MAAADMnUqlGtpHT4TN80+E/tbV3OUAwFwQAAAA8ynNBDhyb9g8/2Top40BAYBbEgAAAPMrhQBH7wmb58wEAIDbEQAAAHNueybAxrOPhkF3K3cxADCzBAAAwPwbzQQ4ETae+VgY9nu5qwGAmSQAAAAWQqVaC+2j94XNZz8WhoNB7nIAYOYIAACAhVGtN0LryImwee6xEIbD3OUAwEwRAAAAC6XWbIfW4bvD1vknc5cCADNFAAAALJx6+0CoHKuHrQtP2hMAAHYIAACAhZRmAizddX/YuvCUWwQCQBAAAAALbHtjwBOhe+VC6Fx6Nn7EvgAAlEsAAAAsvMbK4dGMgLQkYNDr5i4HALIQAAAARag2WmHp+CtCf2sj9DYuht5mWhZgRgAA5RAAAABFqbWWRqM56Ife1Uuhu3HRRoEAFEEAAAAUKe0P0DhwZDQG3a0w6HdHQcAgjmF63IuPB70QhmYJALAYBAAAQPHS8oA0YK+2zj8ZepuXc5cBcEsCAAAAACiAAAAAAAAKIAAAAACAAggAAAAAoAACAAAAACiAAAAAAAAKIAAAAACAAggAAAAAoAACAAAAACiAAAAAAAAKIAAAAACAAggAAAAAoAACAAAAACiAAAAAAAAKIAAAAACAAggAAAAAoAACAAAAACiAAAAAAAAKIAAAAACAAggAAAAAoAACAAAAACiAAAAAAAAKIAAAAACAAggAAAAAoAACAAAAACiAAAAAAAAKIAAAAACAAggAAAAAoAACAAAAACiAAAAAAAAKIAAAAACAAggAAAAAoAACAAAAACiAAAAAAAAKIAAAAACAAggAAAAAoAACAAAAACiAAAAAAAAKIAAAAACAAggAAAAAoAACAAAAACiAAACgcIN+Nwy6W7nLAHhOvbUSQqWSuwyAhSMAAChc58JTod/ZzF0GwHOGB+8KjZXDucsAWDgCAICCpcZf8w/Mmu7VC6GxfMgsAIAxEwAAFKx75XzuEgBeYtjvhd7GpVBPIQAAYyMAAChUWvff37qauwyAG+pcuSAAABgzAQBAoTT/wCwbpg1Ke51QrTdzlwKwMAQAAIUa9Hu5SwC4pbQUIAgAAMZGAABQqHR1DWCWpduU1nIXAbBABAAAhRr0BADAbBv2zFQCGCcBAEChhoN+7hIAbsn7FMB4CQAAAACgAAIAAAAAKIAAAAAAAAogAAAAAIACCAAAAACgAAIAAAAAKIAAAAAAAAogAAAAAIACCAAAAACgAAIAAAAAKIAAAAAAAAogAAAAAIACCAAAAACgAAIAAAAAKIAAAAAAAAogAAAAAIACCAAAAACgAAIAAAAAKIAAAAAAAAogAAAAAIACCAAAAACgAAIAgEJVqrUwHPRzlwFwU+l9CoDxEQAAFKpSqwsAgJlWqQkAAMZJAABQKFfWgFnnfQpgvAQAAIVKMwAAZlml6n0KYJy8qwIUqurKGjDjLAEAGC8BAEChKvVG7hIAbq5SMVMJYMy8qwIUqt5aCR13AgBmVL19IFQq1dxlACwUAQBAqSqV0Dx0PHQuPi0EAGZKtdEKzQNHc5cBsHAEAAAFq7dXQq21FPobV0L36vkw6HVzlwQUrNZaDo2Vw6HWXMpdCsBCEgAAFC5Nsa0vHwz1pQNh6+LTobdxKXdJQGkqldA6dDy+Dx3MXQnAQhMAALAtnYAfvnt05a1zKS0LGOSuCChAmu6f3nuq9WbuUgAWngAAgBdIMwFqzXboXHom9LauhjAc5i4JWEBph//G0sHQOHAk/Sp3OQBFEAAA8BLpxLx15N7Qis1/v7MZhkObBALjU601Rlf+AZguAQAAN1epjDYJBABg/gkAAAAAoAACAAAAACiAAAAAAAAKIAAAAACAAggAAAAAoAACAAAAACiAAAAAAAAKIAAAAACAAggAAAAAoAACAAAAACiAAAAAAAAKIAAAAACAAggAAAAAoAACAAAAACiAAAAAAAAKIAAAAACAAggAAAAAoAACAAAAACiAAAAAAAAKIAAAAACAAggAAAAAoAACAAAAACiAAAAAAAAKIAAAAACAAggAAAAAoAACAAAAACiAAAAAAAAKIAAAAACAAggAAAAAoAACAAAAACiAAAAAAAAKIAAAAACAAggAAAAAoAACAAAAACiAAAAAAAAKIAAAAACAAggAAAAAoAACAAAAACiAAAAAAAAKIAAAAACAAggAAAAAoAACAIDCdS4+HbpXL+YuA+A57WP3hVpzKXcZAAtHAABQsOGgH7obl3KXAfAC3cvnQu2YAABg3AQAAAXrXjkfwnCYuwyAF+h3Nkej1mznLgVgoQgAAAo1uvpv6j8wo1JAWWueyF0GwEIRAAAUqrd5xdV/YGb1t66GYb8XKjWnqwDj4h0VoFDDXid3CQC3NOh3Q00AADA23lEBCjXo93KXAHBLQ+9TAGMlAAAo1LDXzV0CwC0NvE8BjJUAAKBQZgAAs2448D4FME4CAIBi2QAQmHHepgDGSgAAAAAABRAAAAAAQAEEAAAAAFAAAQAAAAAUQAAAAAAABRAAAAAAQAEEAAAAAFAAAQAAAAAUQAAAAAAABRAAAAAAQAEEAAAAAFAAAQAAAAAUQAAAAAAABRAAAAAAQAEEAAAAAFAAAQAAAAAUQAAAAAAABRAAAAAAQAEEAAAAAFAAAQAAAAAUQAAAUKhKtRqGg0HuMgBuLr5PATA+AgCAQlWq9TAcdHKXAXBT1WotdwkAC0UAAFCoihNrYMZ5nwIYLwEAQKEqNf8EALPN+xTAeHlXBSiUK2vArPM+BTBeAgCAQrmyBsw671MA4+VdFaBQ9fZK6Fx8Jj4a5i4F4CVqzbYZAABjJgAAKFQ6sW4sHwzdqxdzlwLwQpVKaKwczV0FwMIRAAAUrHnoeKi1lkP3yoXQ72zkLgcoXWz86+0DoXHgSKjWGrmrAVg4AgCAwqUAII1+dzNsnX8yDPu93CUBBUrvQ63Dd5v2DzBBAgAARmqNdli66/6wdeGp0N+6mrscoBiV0Dx4NDRWjuQuBGDhCQAAeE668tY+eiL0rl4KnUvPhOFwkLskYIFV683QOnxPqDaauUsBKIIAAICXqC8fDLWlldDf2tjeG2AgCADGp1JvhHprKTb+7dylABRFAADADVUq1dGtAtMAAGD+CQAAAACgAAIAAAAAKIAAAAAAAAogAAAAAIACCAAAAACgAAIAAAAAKIAAAAAAAAogAAAAAIACCAAAAACgAAIAAAAAKIAAAAAAAAogAAAAAIACCAAAAACgAAIAAAAAKIAAAAAAAAogAAAAAIACCAAAAACgAAIAAAAAKIAAAAAAAAogAAAAAIACCAAAAACgAAIAAAAAKIAAAAAAAAogAAAAAIACCAAAAACgAAIAAAAAKIAAAAAAAAogAAAAAIACCAAAAACgAAIAAAAAKIAAAAAAAAogAAAAAIACCAAAAACgAAIAAAAAKIAAAAAAAAogAAAAAIACCAAAAACgAAIAAAAAKIAAAAAAAAogAAAAAIACCAAAAACgAAIAgML1Nq+EfhwAs6J58Fio1JymAoybd1aAog1D59IzYdjv5S4E4HnVamgdOp67CoCFIwAAKFhv47LmH5g5vY1LoblyxCwAgDHzrgpQsO7l87lLAHip4TB0r1wIzUN35a4EYKEIAAAKldb+D/rd3GUA3FB342JoHDwaKpVq7lIAFoYAAKBQg+5W7hIAbm44DMNeN1QardyVACwMAQBAoYau/gMzLs1SqgoAAMZGAABQKNP/gVlnk1KA8RIAABRq2HNiDcy2QU9QCTBOAgCAQg2Hg9wlANzacJi7AoCFIgAAAACAAggAAAAAoAACAAAAACiAAAAAAAAKIAAAAACAAggAAAAAoAACAAAAACiAAAAAAAAKIAAAAACAAggAAAAAoAACAAAAACiAAAAAAAAKIAAAAACAAggAAAAAoAACAAAAACiAAAAAAAAKIAAAAACAAggAAAAAoAACAAAAACiAAAAAAAAKIAAAKFWlEsJwmLsKgJtL71MAjI0AAKBQlWotDPu93GUA3FR6nwJgfAQAAIWq1uqhLwAAZlilJgAAGCcBAEChXFkDZl2l6lQVYJy8qwIUyok1MOsElQDj5ewPoFCm1gKzzvsUwHgJAAAKVWsu5S4B4KYqtfporxIAxse7KkChqo3WaAy6W7lLAXiJxvKh+F+3AQQYJwEAQMHaR0+EzqVnQ2/jcvzVMHc5AKN1/42VI3Ecyl0KwMIRAAAULJ1otw7fHZoHj4Xu5fOhe/VC7pKAQlWq1fhedFeotw/EX7jyDzAJAgAARkFA89BdodZqh60LT4XhYJC7JKAgaTlS+8i9o3X/AEyOd1kAnlNrrYSlu1qjEKDf2chdDlCAxoGjoXngSLDeH2DyBAAAvEC6Atc+dl/obV4O/c0rob+1EYZDMwKA8anWGqHWWg71pQOjq/8ATIcAAIAbSutwR2txAQBYCAIAAAAAKIAAAAAAAAogAAAAAIACCAAAAACgAAIAAAAAKIAAAAAAAAogAAAAAIACCAAAAACgAAIAAAAAKIAAAAAAAAogAAAAAIACCAAAAACgAAIAAAAAKIAAAAAAAAogAAAAAIACCAAAAACgAAIAAAAAKIAAAAAAAAogAAAAAIACCAAAAACgAAIAAAAAKIAAAAAAAAogAAAAAIACCAAAAACgAAIAAAAAKIAAAAAAAAogAAAAAIACCAAAAACgAAIAAAAAKIAAAAAAAAogAAAAAIACCAAAAACgAAIAAAAAKIAAAAAAAAogAAAAAIACCAAAAACgAAIAAAAAKIAAAAAAAAogAAAAAIACCAAAAACgAAIAAAAAKIAAAGCMBp2t0MtdBABTN+h79wdmnwAAYIy6Vy+EcDV3FQAA8FICAAAAACiAAAAAAAAKIAAAAACAAggAAAAAoAACAAAAACiAAAAAAAAKIAAAAACAAggAgJlXif8DAMag4t9UKJkAAJh5lZq3KgAYh0q1lrsEICNn1cDMc7ICAOPh31QomwAAmHlOVgBgPCpVp/9QMu8AwOyrVOL/VcNwOMhdCQDMtUpNqA4lEwAAcyGdsAx7AgAA2A+z6qBsAgBgLmxPWezmLgMA5lrVxrpQNO8AwFyotZZCv7ORuwwAmGu15lLuEoCMBADAXKi1lkO49GzuMgBgblXrTbfWhcJ5BwDmwrWTlmG/l7sUAJhLozAdKJoAAJgb9Xji0r16MXcZADCXBACAAACYGzUBAADsSaVaDbVmO3cZQGYCAGBupI2L0u2LhoN+7lIAYK7UWiu5SwBmgAAAmB+VSmgcOBo6F5/OXQkAzI/472cz/vsJIAAA5kpj+VDoXb0YBr1O7lIAYC40Vo7Y/R8Y8U4AzJ3mwbvC5rnHcpcBADMvNf7NlSO5ywBmhAAAmDu11tJoQ8D+1tXcpQDATBtN/a9UcpcBzAgBADCXRrMAOpthOBzkLgUAZlLa9b++dDB3GcAMEQAAc6lab4T2sftGSwGGAyEAAFwvNf+toydylwHMGAEAMLeqjVZoH00hwONuDQgAO9Jtc9up+Tf1H3gRAQAw10YhQJoJ8OxjQgAAipf2yGkfuVfzD9yQAACYe9V6M7TvelnYfOZRIQAAxaq1V2Lzf098pPkHbkwAACyEaq0xmu44mglgY0AAClNrtEP7sOYfuDUBALAw0nKA1pF7RnsCAEApUgjeOmraP3B7AgBgoaS1j61Dd4eti0/lLgUAJq5SrYXWsROjI8DtCACAhVNfPhgGg27oXj6fuxQAmJxKZbT8Lc0AANgNAQCwkJoHjoVhvxd6G5dzlwIAE5E2/EvL3wB2SwAALKzW4btHUyK7Vy7kLgUAxqZSrcZ/4+4ZLXsDuBMCAGCBVULz4F2h1lwKWxeecotAAOZerdkeNf+VmtN44M555wAWXrpCsnTX/WHrwpOh39nMXQ4A7EnjwJHREjeAvRIAAEVIV0rax14WOpfPhW4cADAvRjv9H7lnNKMNYD8EAEBRmgeOhnp7JXSvXgz9jcthOBzkLgkAbijt7l9fPhTqSwdH6/4B9ksAABSnWm+G1qHjYXjw2OguAb2rF8Og18ldFgCEtH9Nvb08avxd8QfGTQAAFKtSqYZGPMFKY9DdDL3NK2HQ64Vhvzu6haDZAQBMWpren670p6Vq1UZz52p/LXdZwIISAABE1UY7NOO43nAweD4MiP8DgHGoVGrbDX/ayb9SyV0OUJB6usKVroIB8EJpvWWl2gqh0cpdCgAA7Evq/ethMAihJgAAAACAhRV7//pwOAwmHgEAAMDiSr1/PdjkCgAAABbbcLC9BwAAAACwuLb3ABAAAAAAwGIbzQAYuLUVAAAALLLU+1sCAAAAAAtuuD0DoJ+7DgAAAGCCUu9fH/Y6uesAAAAAJij1/vVBv5u7DgAAAGCCUu9fH/QEAAAAALDIUu9fD8NhGPZ7oVKr564HAAAAGLPU86fef9T1p6kANQEAAAAALJxrS/+3A4BeN9SaS1kLAgAAAMbv2tL/UQAwtA8AAAAALKRh7wUzANwKEAAAABbRtZ5/FAD0u5ujDQFCpZK1KAAAAGCMYq8/6vnDTgCw/YGtUGu2c5YFAAAAjFHq9UcX/MO1ACB9sLMhAAAAAIAFknr9a54LAAajDx7NUQ8AAAAwAYMbBQD9zlYYDgehUqlmKQoAAAAYn9Tjp17/mvp1vxUGnc1Qay1nKAsAAAAYp9Tjp17/mvr1vznaB0AAAAAAAHPv+vX/yQsDgK34mwenWg8AAAAwAaMe/zovCAAGvc5oVOvNqRYFAAAAjM+1/v569Rd/Um/jcmgePDa1ogAAAIDxSr39i700ANgUAAAAAMA8S739i70kABj2e9ubATaXplIUAAAAMD6pp0+9/Yu9JABI0lQBAQAAAADMnxtN/09uGAD0N6+EcOh4CJXKRIsCAAAAxmg43O7pb+CGAcBwOAi9+AX1pQMTrQsAAAAYn9TLp57+Rm4YAIy+aOOSAAAAAADmSOrlb+amAUDaNGDQ3QrVRmsiRQEAAADjk3r41MvfzE0DgKRz+VxoHz0x9qIAAACA8Uo9/K3cMgDob10Ng14nVOvNsRYFAAAAjE/q3VMPfyu3DACS7uVzoXXk3rEVBQAAAIxX9/L5237ObQOAtINgo9cN1XpjHDUBAAAAYzTod2Pvfvm2n3fbACDpXjkXWofv2XdRAAAAwHjt5up/sqsAoLdxJTQPdEOlZhYAAAAAzIphv7erq//JrgKA+JShc+lZewEAAADADOlcfja27MNdfe4uA4DtvQDqnY1Qay7tuTAAAABgPPqdzdDb2N3V/yQFAJ04dnWfv87Fp8PSXS8PoVLZY3kAAADA/g1HPfod6KQA4FIcd+3mswe9buhevRAaK0f2UBwAAAAwDt0rF2KP3rmTL7l0RwFA0rl8LtTbB0KltuvVAwAAAMCYpI3/Um9+h54LAO7gldKGgM/YEBAAAAAySD35bjf+u84eAoCwsyHg1kaotWwICAAAANPSj7146sn3YBQA7H7LwOtsXXwqLN11f6hUa3v5cgAAAOAODAf9US++R5f3NANg9ML9Xti68FRoHz2x1xcHAAAAdin14KkX36O9LQG4pr91NXSvnHdXAAAAAJigtOt/6sH3YRQAXNzPM3QunQvVRjvUmu39PA0AAABwA4PuVuy9n93v01xMAcBv7e85hmHrwpP2AwAAAIAxGw4GYfP8E+nRfp/qt1IA8IF9F2Q/AAAAABi7dMF9H+v+r/eBFAB8cBzPNNoP4PK50DhwdBxPBwAAAEVLe+7tc93/9T6YAoAPx9GJo7nfZ+tcPhcqtXqoLx3c71MBAABAsXobl8ex7v+a1PN/uH729Kn+6tr6f42/WB3Hs6alAGkvgFpreRxPBwAAAEVJV/1Tbz1G/zX1/vWdX6R9AMYSACRpg4L20fvcGQAAAADuQNrxf0yb/l1vtPfftQBgLPsAPGc4DFvnHw/tYy8L1fq+VxYAAADAwhv0umHz3GOjnnrMRj3/9TMAxmp0q4Jzj4elYy8b7QsAAAAA3Fja6T81/6mXnoAXzAB4/yRe4do3kGYCpH0BAAAAgBcaDvrbzf94bvd3I6Oe/1oA8CtxPBPHXeN+ldEUhmceDe1jJ0Kl1hj30wMAAMDcGl04f/axMOh3J/USqddPPf92AHD29Knh6tr6L8SHXzaJV0vfyMYoBLjPngAAAAAQ0gXzzqj5TzMAJugXUs+fHly/OP/nw4QCgGQ0peGZR0Pr6Al3BwAAAKBo/c7maPP8Ca35v97PX3twfQDwnkm/6nA42N4T4PA9odZemfTLAQAAwMzpb13dvtXf+Hf7v5Hnev3nAoCzp099cHVt/aPx4csn+tLxG0zfaOvw3aG+dHCiLwUAAACzpLdxKWxdeDo+mkrz/9HU61/7xYvvz5emBnzNNKrYuvDUaL1D8+Cx+KvKNF4SAAAAMhmGzqVzoXvl/DRf9Oev/8WLA4A0NWAqAUDSvXJhtO6hfeTeUKm9uBQAAACYf2mn/60LT4763yl7wVL/F3fd63Gk7Qdr06pm0N0KG898NLTSvgCt5Wm9LAAAAExcWu+fZsBPeKf/G7502O7xn/OCAODs6VOPr66t/1x8+PumWVXa9XDz3OOhsXLYkgAAAAAWQJry/+xo5nsmP5d6/Os/cKN59/8kTDkAuMaSAAAAAOZdmvKfNr9PM94z+icv/sCNuuwfj+NiHIcmXc2NjJYEPP3R0Dh4NDSWD+coAQAAAPake/VC6F46F4bDQc4yUk//4y/+4EsCgLOnT22srq3/SHz4tVMo6obSH1Tn4jOhd/VSaB0+HqqNdq5SAAAA4LYG3c3R7f3S3e5mwI+k3v7FH7zZPPt3h4wBwDXpD27jmUdDfengaG+ASnVqexMCAADAbaXN/dJa/97GpdylXO/dN/rgzQKAfx/Hh+P4hAkVc0fSH2TaOTGFACkMAAAAgNxSr5qa/ww7/N/Kh8N2T/8SNwwAzp4+NVxdW/+n8eG3TLCoO5L+QNOtE7pXL4bmgWOh1lrKXRIAAAAF6m9thM7lZ3Nv8ncz/zT19Df6jVtttf89cfzlOBoTKWmP0h/w5rnHQrXRCs0DR0OttZy7JAAAAAqQZqZ3Lp+b1cY/6YXtXv6GbhoAnD196iOra+v/LD58yySq2q/tIODxUK03Q+PA0VBvr+QuCQAAgAXU27wSuqnxn40N/m7l+1Mvf7PfvNUMgOTb4viaOKpjLWmM0g9g6/wToVtvhMbK0VBfSkFAJXdZAAAAzLVh6G3Exv9Kavy7uYvZjXTfwW+71SfcMgA4e/rUB1fX1n84PnzTOKuahPQD2brwZOhcqoX60oFQbx8YLRMAAACA3Rp0O6G3eSk2/5dnbXO/2/mx2MP/5q0+4XYzAJK/GceXhzm5rJ5+QN0rF0YjLQ8YhQFLB91CEAAAgBtKfWRq+NOu/nMwzf9mvvV2n3DbAODs6VP/ZXVt/Sfjwz80lpKmKP3g0i0Z0kh3Dai3D4ZaezlUKjO7ogEAAIApGA4Ho039UuOfjnPu38Te/X23+6TdzABI/kaYwwDgeuk2DWmEC2G0NKDWXBqFArVGO4TKXExuAAAAYK+Gw9Dvbm73hp2NWd7Jfy/+5m4+aVcBwNnTp/7z6tr6z8SHv29fJc2I9INOo3vl/Kj5TyFArdkeBQLb+wYIBAAAAObbcNT39bc2Rw1/av5TCLCA/l3s2f/Dbj5xtzMAkrfH8StxNPZU0qxKKVBnOwEKl8+F1PxXa/VQqTdCNY1aIz5ujh7bRwAAAGC2pPX7aVP4Ya8TBv3uzuN47PfS7+Yub9LSLoV/drefvOsA4OzpU7+xurb+zvjwL+6lqvkxHP2lCXH0XzQjJO0dkIKB0R4C1fi4Utl+XNl+vP2xqiUFAAAA+zUcjtbph8EgHoep0x/9evR4sPM4Nfvpc8r1nWnfvt1+8p3MAEj+WhxfGccr7vDrFsLoL9hirRMBAABgPj0ax+k7+YI7CgDOnj51ZXVtPS0F+JE7+ToAAABgrB6MPfqlO/mCO50BkEKAH12kDQEBAABgzvxs7M1/8E6/6I4DgB3fGMevxtHa49cDAAAAd64Tx1v38oV7CgDOnj71odW19W8Ld7jeAAAAANiXb409+Qf38oV7nQGQ/PU4vjCOz9/HcwAAAAC78x/Ddi++J3sOAM6ePtVbXVv/ivjwTBzH9/o8AAAAwG09E8dXpF58r0+wnxkAKQT42Ora+lfHhz8dR2U/zwUAAADc0DCOr4k9+Ef38yT7CgCSWMC/WV1b/9b48K/u97kAAACAl/g7sff+qf0+yb4DgB3/R9jeC+B3j+n5AAAAgBD+vzCmC+5jCQDOnj7VX11b/8qwvR/A3eN4TgAAACjcs2Gf6/6vN64ZACkEeHR1bf3L4sP1OFrjel4AAAAoUDeON8Ve+yPjesKxBQBJLOzfr66tf1V8+ENxVMf53AAAAFCItOnfm2OP/XPjfNKxBgBJLPBHV9fW3xoffve4nxsAAAAK8LbYW/+LcT/p2AOAJBb691fX1u+LD79lEs8PAAAAC+pbY0/9nZN44okEAEks+P/YCQG+blKvAQAAAAvkH8Veeiw7/t/IxAKAHX86jnvi+EMTfh0AAACYZz8Rx9dP8gUmGgDs3B7wK+LDH4vjiyb5WgAAADCn/k3Yvt1ff5IvMukZACkE2FhdW08zAP5RHP/bpF8PAAAA5sj3x/GW2Dt3J/1CEw8AkvSNrK6tvzk+fCKOh6bxmgAAADDj3hXHg7FnHk7jxaYSACQ739CfX11bfzwevz2OyrReGwAAAGbMX4198rdO8wWnFgBcE7/Bv7O6tv5kfPi9OV4fAAAAMkrr/P9U7I2/d9ovnKUBj9/ou1fX1p+OD38wjgM5agAAAIApuxrH/xp74n+Z48WzXYGP3/BPr66tPxAf/nAcn56rDgAAAJiC34jjj8Ve+NdzFZB1Cn78xn9zdW39s+LDvxfH1+asBQAAACbk3XF8Q+yBr+QsIvsa/HSbwHj4E6tr6/8uHr87jpXMJQEAAMA4pCn/fyb2vf84dyFJ9gDgmp19AR4J20sCPi13PQAAALAPZ+P48pxT/l9sZgKAJP7B/MbOkoC/GywJAAAAYD79ozi+Mfa4V3MXcr2ZCgCSnT+gtCTgn4btJQGfmrkkAAAA2I200V9a6/9vcxdyIzMXAFyT/sBW19Z/R3z4UBzfEsdy5pIAAADgRtKF7P8zjodjL9vNXczNzGwAkOz8wX3b6tr6D8Tjd8TxJXkrAgAAgBf48Tj+XOxfP5K7kNuZ6QDgmp0/yD+yurb+v4Tt/QFembkkAAAAyvZbYXud/0/lLmS35iIAuCb9wa6urf9cfPjH4/hLQRAAAADAdKXG/2/F8Y9jj7qVu5g7MVcBQLLzB/wPV9fWvzce/9c4/kocn5K3KgAAABbcb8bxrXH8QOxLe7mL2Yu5CwCu2fkDf/fq2vo/i8cvjeOb4jiZtSgAAAAWzZk4/kYcPxb70EHmWvZlbgOAa3Z+AD+Sxs4eAX8uji+Mo5q1MAAAAOZV6jPfE8e75mmN/+3MfQBwvZ0fTNon4P54/Ko43hzHp+WtCgAAgDlxNo53x/H9sb/8aO5ixm2hAoBr4g/qY/Hw7Wmsrq2/LmwHAV8Zxz1ZCwMAAGDWPB3HP4/j3bGXfG/uYiZpIQOA68Uf4Pvi4X2ra+t/Ph6/KI4/HLaXCLiDAAAAQJk+HLan+P/LOP517Bu7ecuZjoUPAK7Z2TTwX+2MsLq2/glhOwhI4wviuDdbcQAAAEzSE3H8Qhw/H8d7Yn/43zPXk0UxAcCLxR/4h+Phe3dGCgTSXgEpDPicOF4Tx6vjOJCrPgAAAPbkchwfjOMDcfxS2G74fy1vSbOh2ADgxeJfiF+PhzS+89rHVtfWXxa2w4BrgUA6viqOY3EciqMx/UoBAACKlqbrX4zj2Tg+FLYb/WsN/wdib/doxtpmmgDgFnb+4qTxCzf6/dW19VbYDgLSOHjd45U4KlMqEwAAYNEM47gSthv9SzvH0Yh92lbOwuaZAGAfdv7iPbUzAAAAYGYJAAAAAKAAAgAAAAAogAAAAAAACiAAAAAAgAIIAAAAAKAAAgAAAAAogAAAAAAACiAAAAAAgAIIAAAAAKAAAgAAAAAogAAAAAAACiAAAAAAgAIIAAAAAKAAAgAAAAAogAAAAAAACiAAAAAAgAIIAAAAAKAAAgAAAAAogAAAAAAACiAAAAAAgAIIAAAAAKAAAgAAAAAogAAAAAAACiAAAAAAgAIIAAAAAKAAAgAAAAAogAAAAAAACiAAAAAAgAIIAAAAAKAAAgAAAAAogAAAAAAACiAAAAAAgAIIAAAAAKAAAgAAAAAogAAAAAAACiAAAAAAgAIIAAAAAKAAAgAAAAAogAAAAAAACiAAAAAAgAIIAAAAAKAA/z8uv4rEwm2FLgAAAABJRU5ErkJggg==;" vertex="1" parent="1">
          <mxGeometry x="-80" y="477.48" width="54" height="54" as="geometry" />
        </mxCell>
        <mxCell id="TUQ-kvWmkpdN_xwGLiBi-4" value="" style="shape=image;verticalLabelPosition=bottom;labelBackgroundColor=default;verticalAlign=top;aspect=fixed;imageAspect=0;image=data:image/png,iVBORw0KGgoAAAANSUhEUgAAAFYAAAAMCAYAAAD4Q0pmAAAACXBIWXMAAA6yAAAOVgELJwhfAAABXUlEQVR4nGP5//8/Awz8XL0u4ffO3f6/du4JAPGZtTUvsLm5bOBISZjIyMf3gWGYg+99k+r/XrtuwOruupHN3WUDJX5mARH/P30S+BQWs//v1esGyJIg/ncg/jF3YQHfqiWOoICmyOVDAIASFQh/ZWCYDwpccgMZHLDYAhUZwAKef+cmQyYZ6QcUuXwIAWyBzGppfoCYMGABZX98gQoDoMD91tDSzzNneiA1HD3UACyQQWxQzmUPDVrI5u66AVcgs/yYuyCfFMNBATwSylt8AJQQv11tNfjW0NqPK5BZiEmt6IayALMDld06ZAGuQGYh1SBQWUsLBw4WwCQt9UjgxEF5Ss1hAYUyKalW8OpZwZFeFBADWDiSEyZ+LSqfT4xiYDJfMBqoxAEWUGCBKjBCqRYUoJxFeY10cteQB+AyFtT4x9eWBQUqSM1IasNSCsABCwo4/h2bDEd6l5aaAABXGsbbVyNdQAAAAABJRU5ErkJggg==;" vertex="1" parent="1">
          <mxGeometry x="-66" y="430" width="86" height="12" as="geometry" />
        </mxCell>
        <mxCell id="TUQ-kvWmkpdN_xwGLiBi-5" value="" style="shape=image;verticalLabelPosition=bottom;labelBackgroundColor=default;verticalAlign=top;aspect=fixed;imageAspect=0;image=data:image/png,iVBORw0KGgoAAAANSUhEUgAAAFYAAAAMCAYAAAD4Q0pmAAAACXBIWXMAAA6yAAAOVgELJwhfAAABPklEQVR4nGP5//8/Awz8XL0u4ffO3f6/du4JAPGZtTUvsLm5bOBISZjIyMf3gWEUEA1YQMT/T58EPoXF7P979boBsiSI/x2If8xdWMC3aokjKKAHwpFDEYADFlugIgNYwPPv3GTIJCP9gF6OG8qABZT98QUqDIAC91tDSz/PnOmBdHDXkAcsP+YuyCdWMajsBQXwaHlLGLAQk1qRAUg9i6X5Ado4Z/gAFlI1gMpaWjhkOABQ5c4eGrSQzd11AwuIQ0qqFbx6VnC4FgXf+ybVf++f3ECKHuTARK7YWTiSEyZ+LSqfT4whQAMWDNdAJQXgCkxkwAIKLFAFRijVggKUsyivkRYOHQqAzd1lA6u760ZWYP1CTJMTXMaCGv/42rKgQAWpGWltWFhggmhScyo4YEGa+HdsMhzt0lIWmMgAACQwoaIr4R1jAAAAAElFTkSuQmCC;" vertex="1" parent="1">
          <mxGeometry x="-66" y="570" width="86" height="12" as="geometry" />
        </mxCell>
        <mxCell id="TUQ-kvWmkpdN_xwGLiBi-6" value="" style="shape=image;verticalLabelPosition=bottom;labelBackgroundColor=default;verticalAlign=top;aspect=fixed;imageAspect=0;image=data:image/png,iVBORw0KGgoAAAANSUhEUgAABAAAAAQACAYAAAB/HSuDAAAACXBIWXMAAv/BAAOxoAGY7BHYAABYYElEQVR4nO3dC5yl6V0X+OfcT1X1fXpmejIJECAJFBc7l+EiqBtwW3C9ICKBZQkGEV0Mmsx4B7Y/5aogOklAQd0F0Sgo10UQlAKCl5VFJySNQEMSlRCTuc/0vavqXPd5TlXP9Mz0pbrqnPOcc57vNzzznq6uOudfXc3p9/97n+d568PhMAAAAACLrZ67AAAAAGDyBAAAAABQAAEAAAAAFEAAAAAAAAUQAAAAAEABBAAAAABQAAEAAAAAFEAAAAAAAAUQAAAAAEABBAAAAABQAAEAAAAAFEAAAAAAAAUQAAAAAEABBAAAAABQAAEAAAAAFEAAAAAAAAUQAAAAAEABBAAAAABQAAEAAAAAFEAAAAAAAAUQAAAAAEABBAAAAABQAAEAAAAAFEAAAAAAAAUQAAAAAEABBAAAAABQAAEAAAAAFEAAAAAAAAUQAAAAAEABBAAAAABQAAEAAAAAFEAAAAAAAAUQAAAAAEABBAAAAABQAAEAAAAAFEAAAAAAAAUQAAAAAEABBAAAAABQAAEAAAAAFEAAAAAAAAUQAAAAAEABBAAFWF1br8TDShyH4ji4c7w2WhlLA9iNK3H81NnTpwa5CwEAmGcCgAUQG/z0c/zEOF5z3Xh1HK8Mzzf91WwFAuzfL8b3urecPX3qg7kLAQCYVwKAORNPgNMV+8+N4wviOBm2m/3U/PtZAovsd8ZxJr4HfnM8vstsAACAO6dpnHHxZLcWD28I2w1/Gp8Xx1LWogDySO99D8fxR80GAAC4cwKAGRRPbI/Hw5fH8UVx/J6wPY0fgG1mAwAA7IEAYEbEE9lmPPyBON4cx++Po5G3IoCZZjYAAMAdEgBkFk9c03r+1PS/KY6jmcsBmDdmAwAA7JIAIIN4onogHv50HF8fx6sylwMw78wGAADYBQHAFMUT03SF/xvj+HNxHMtcDsCiMRsAAOAWBABTEE9G74mHB+P4hjgOZi4HYJGZDQAAcBMCgAmKJ5+viIe/EMfXBbfuA5gmswEAAF5EADAB8YSzHQ9/JY6/FEcrczkApTIbAADgOgKAMYsnmV8cD383jk/KXQsAI2YDAAAEAcDY7Ez3f1ccX5q5FABeymwAAKB4AoB9iieSjXh4Wxyn41jJWw0At2E2AABQLAHAPsQTyE+Lh38Rx6fnrgWAXTMbAAAokgBgj+JJ4x+Ph++KYzlzKQDsjdkAAEBRBAB3KJ4opob/u+P4mty1ALBvZgMAAMUQANyBeHK4Gg8/nB7mrgWAsTIbAABYeAKAXYonhW8O21f+bfQHsJiuzQb40vie/7VmAwAAi0YAcBvxJLAaD98Rx1tz1wLAVHxeMBsAAFhAAoBbiCd/zXj4Z3H8sdy1ADBVZgMAAAtHAHAT8YTvYDz8eBxfkLkUAPK5Nhvgm+LxO8wGAADmmQDgBuKJ3r3x8K/jeG3uWgDILs0GeEfYvlOA2QAAwNwSALxIPLn7pHj4mTg+KXctAMwUswEAgLkmALhOPKn7HWG7+b83dy0AzKTrZwO85ezpUx/KXRAAwG4JAHbsXPlfj+Oe3LUAMPPSbIBfMRsAAJgnAoDw3Jr/dOVf8w/AbpkNAADMleIDgJ3d/n86WPMPwN6YDQAAzIWiA4B4staMhx+L43W5awFgrpkNAADMvGIDgHiCVomHfxLH781dCwALw2wAAGBmFRsAhO0rNV+RuwgAFo7ZAADATCoyAIgnZF8VD2/LXQcAC81sAABgphQXAMQTsdfEwz/IXQcARTAbAACYGUUFAPHkqx0PPxTHgdy1AFAUswEAgOyKCgCi74jjM3MXAUCRzAYAALIqJgCIJ1tfGQ9fn7sOAIpnNgAAkEURAUA8yXpVPPzD3HUAwA6zAQCAqVv4ACCeWNXi4V/EcTB3LQDwImYDAABTs/ABQPTWOF6XuwgAuAmzAQCAqVjoACCeSN0XD38tdx0AsAtmAwAAE7XQAUDYvqJyKHcRALBLZgMAABOzsAFAPHH6wnj4itx1AMAemA0AAIzdQgYA8YSpGQ/flbsOANgHswEAgLFayAAg+vNxvCZ3EQAwBmYDAABjsXABQDxBelk8fHPuOgBgjMwGAAD2beECgLB99X8pdxEAMAFmAwAAe7ZQAUA8IToeD38qdx0AMEFmAwAAe7JQAUD09jiWcxcBAFNgNgAAcEcWJgCIJ0CH4+HP5K4DAKbIbAAAYNcWJgCI3hrH4dxFAEAGZgMAALe1EAFAPOFZiYe35a4DADIyGwAAuKWFCACir4/jeO4iAGAGmA0AANzQogQA/3vuAgBghpgNAAC8xNwHAPHE5nPj4VW56wCAGXRtNsBfjcfvNBsAAMo29wFA9ObcBQDADEuzAd4Zx5eZDQAAZZvrACCeyLTi4U256wCAOWA2AAAUbq4DgOgPxHE0dxEAMCfMBgCAgs17AGD6PwDcObMBAKBAcxsAxJOWu+Phi3PXAQBz6tpsgHSngK81GwAAFt/cBgBhe+1/I3cRADDnPj+YDQAARZjnAMDVfwAYD7MBAKAAcxkAxJOTVPfvyl0HACwYswEAYIHNZQAQvSGOg7mLAIAFZDYAACyoeQ0AviB3AQCw4MwGAIAFIwAAAG7GbAAAWCBzFwDEE5BWPPzO3HUAQEHMBgCABTB3AUD0OWH7igQAMD1mAwDAnJvHAMD0fwDIx2wAAJhT8xgAvDZ3AQBQOLMBAGAOzWMA8JrcBQAAI2YDAMAcmasAIJ5gNOLhE3PXAQA8x2wAAJgTcxUARJ8c5q9mACiB2QAAMOPmrZk2/R8AZpfZAAAww+YtAPiU3AUAALdlNgAAzCABAAAwCdfPBnjL2dOn/mvuggCgdPMWAFgCAADzJc0G+C9mAwBAfvMWALgDAADMH7MBAGAGzFsAcCh3AQDAnpkNAAAZzU0AEE8WUq3t3HUAAPtiNgAAZDI3AUB0MHcBAMDYXLtTwDcFswEAYCrmKQA4kLsAAGCsloPZAAAwNfMUAJgBAACLyWwAAJgCAQAAMAvMBgCACRMAAACzxGwAAJgQAQAAMGvMBgCACZinAKCVuwAAYKrSbIAPra6t564DYJF04ri0My5f9/jauBjHh+P4zZ3x22ZjLY55CgAAAADYn2Ycd+2M3dhcXVv/UHg+EPhAHGfOnj716xOqjwkSAAAAAHAz7Tg+Y2c8Z3Vt/cl4+IWd8Z6zp099KENt3CEBAAAAAHfqnjjetDNSIPCxeHhP2A4Efvbs6VMfzVgbNyEAAAAAYL/uj+Ord8ZwdW3938bju+P40bOnT13KWRjPEwAAAAAwTpU43rgzvmt1bf3/icd/GsfPnT19qp+1ssIJAAAAAJiUdGvXr9oZj62urX9/PP7fZ0+f+mDessokAAAAAGAa7ovjz8fx4Ora+g/H4984e/rUr2auqSgCAAAAAKapGrY3D/zy1bX1n4jHv3729Kn3Zq6pCAIAAAAAckh7BfzhNFbX1v9N2A4C/mPmmhaaAAAAAIDcviiN1bX1dCvBt1kaMBkCAAAAAGbFF8TxvtW19e+Mx9NnT5+6nLugRSIAAAAAYJakPvXBON60urb+9rOnT/1w7oIWhQAAAACAWXR/HD+0ura+Ho9vPXv61IdyFzTvBAAAAADMslNx/Orq2vq3he2NAnu5C5pXAgAAAABmXSuO03H83tW19a84e/rUR3MXNI8EAAAAAMyLz4vjzOra+lefPX3qX+cuZt4IAAAAAJgnd8XxU6tr638rHr/FkoDdEwAAAAAwbypx/OU4Pn9nScDHchc0DwQAAAAAzKvPD9tLAt509vSp9+QuZtYJAAAAAJhnx+P416tr628+e/rUD+YuZpYJAAAAAJh3zTh+YHVt/e6zp0/9vdzFzCoBAAAAAIugGsffXV1bP3H29Klvzl3MLBIAAAAAsEi+aXVt/d54/NNnT5/q5y5mlggAAAAAWDRfF8fdO3cI2MxdzKwQAAAAALCI/nAcP766tv4Hz54+1c1dzCwQAAAAALCofl8c37e6tv7VZ0+fGuYuJjcBAAAAAIvsq+J4Mo4HcxeSmwAAAACARff21bX1x8+ePvXtuQvJSQAAAABACf7W6tr6E2dPn/onuQvJRQAAAABAKb5ndW396bOnT/1U7kJyEAAAAABQitQD/+Dq2vpnnT196mzuYqZNAAAAAEBJVuL4odW19QfOnj61kbuYaRIAAAAAUJpPi+PvxvF1uQuZJgEAAAAAJfoTq2vr7zl7+tQP5C5kWgQAAAAAlOofrq6tv/fs6VMfzF3INAgAAAAAKNWBsL0p4OecPX1qK3cxkyYAAAAAoGQn43g4jrdmrmPiBAAAAACU7htW19b/+dnTp/5j7kImSQAAAABA6SpxfPfq2vrrz54+1ctdzKQIAAAAACCEz4zjG+N4Z+5CJkUAAAAAANvWVtfWf/Ds6VOP5i5kEgQABUhzWZq1SmjHn3Z7dNwZtfgXoFrJXR4AADAlvcEwbPZD2OwNt0c/HUPoxOMwd3Gz4WDYngHwptyFTIIAYAGkHv74UjXcu1wN98Rx70ptdLyrfa3Rr4SKPh8AALiJYez+t8OAYXhmcxievDoIT1zpbx/jeHpjEAblJARfvrq2/j1nT5/62dyFjJsAYM7UqyG88nA9vPpoLbz8YG3U9Kfm34V8AABgr9IFw6V6ZTSOtkP45CO1+NHGc7+fmv8UAqQw4KOX+uGD5/rhty70Qm+Qr+YJ+3ura+ufcfb0qU7uQsZJADDjUmP/cbHRf/WxenhNbPo/8Ug9NKq5qwIAAEqS+pJ7dmYcf8bxevjiV4bQjc3/fz/fCx841w8ffLYXPnKpv0izBF4dx5vj+J7chYyTAGAGHWhUwuvubYRPvaseXnWkNprGDwAAMEvShcnXpAuVcYRPao2WD3zofD/8xjO98L4nuuFyd+7TgL+8urb+fWdPn+rnLmRcBAAzohb/n+czjjfCZ51ohE87Xg81PT8AADBH0oXLNDsgjT/66nb49ad74T8/3g2/+nQ39OdzqcAnxfGVcfyz3IWMiwAgs1ceroXPvq8xuuK/7Eo/AACwANIFzc+8uz4aV3vt0YyA//RYN/zWhbm7mP5XVtfWv//s6VNzP50hEQBk0Ir/3/D59zfiaIa7ly3oBwAAFle60Jl6nzSeujoI/+/HOnF0w1Z/Lnrq1Ti+NI4fzV3IOAgApij9xf89r2iGN8ax3HC1HwAAKEu6APpHXtUOv+8TWuEX/kcn/Ls4rvZmPgj4piAAYLcONivhCz6uGX7Xy5uhbXE/AABQuHRB9H/5xFb4wo9vhv/w0U54z0c64VJnZoOA166urf/+s6dP/XTuQvZLADBBR9vV8Htj4/8772+6dR8AAMCLpAuk//PHt8L/9IpW+MWPdcLPfaQTzm3O5I6BD8YhAOClUrN/6hNao7/IdY0/AADALaUeKi2X/rz7m+Fnf3srrH94K3RnKwd44+ra+ivOnj71P3IXsh8CgDFbvasevvw17XB8SecPAABwJ9IF1C9+ZSs8cKIRfugDm+HsM73cJV2TGryviuPbcheyHwKAMUnT/f/oq1rh5D2N3KUAAADMtXRB9RtOLoczT3bDj35oa1aWBbw5CADKlvb0e+PHNcPvf2UrNG3wBwAAMDbpAmuaZf3Tv7UVfuEjnZD5zoGfurq2/oazp0+9N2sV+yAA2If7VqrhLZ++HF52wHR/AACASUgXWr/kk9vhs040w/f92tXw2JWsswHSLAABQGk+577GaK2/q/4AAACTly68/oUHVkZ7A/zSY91cZXzl6tr6Q2dPn8pWwH4IAO5QavjfFBv/z77PWn8AAIBpSv3Y/7a6FF51tB5+8AOboTP9NQHH4/jiOH5i2i88DgKAO3BipRq+7jOWR0cAAADySBdkP/5QLXzPr14Nj09/ScCXBAHAYkt/wd5kyj8AAMBMSBdm/+IDK6OZAP9puksCvmCaLzZOAoDbqMR+/8te3Q6/5+XN3KUAAABwnXSB9qtXl8LHHaqFH/ngZhhOZ0XAx6+urX/i2dOn/vtUXm2MBAC3UKuG8Mc/bSm89h7r/QEAAGZVumB7qFkJ//jXN0J/OisC3hiHAGBRtGuV8PW/Yym8+qg/IgAAgFmXLtyuNCrh//qVjbA5+c0B0zKA7530i4yb7vYGDjYr4c+cXA4vP1jLXQoAAAC7lC7gvu31y+G7zlwNlzoTDQHeOMknnxQBwIscX6qGt752eXQEAABgvqQLuQ+9YSX8vfdfDU9vTGw9wH2ra+ufevb0qd+Y1AtMggDgOvcfqI2a/zQDAAAAgPmULuheCwE+drk/qZdJswAEAPPo2pV/zT8AAMD8S71d6vEefu+VSc0E+Nw4vnsSTzwpAoDw/F8MzT8AAMDiuD4EmMCeAJ867iectOIDgLTb/zectOYfAABgEaVeL/V83/HLV8d9d4DXjPPJpqHoAKAWe/4/+ZlL4RV2+wcAAFhYqedLvd93/8rV0B/faoADq2vr9589fepjY3vGCSs2AEiT/d+8uhRec6zYPwIAAIBipN4v9YD/+Nc2whjnAXxKHAKAWfelr26H19/byF0GAAAAU5J6wIudYfjRD26O6ynTMoCfH9eTTVqRAcADJxrhja9o5i4DAACAKUu94Ecu9sMjj3fH8XSfMo4nmZbiAoB7l6vhKz6lnbsMAAAAMkk9YQoBnri67w0BBACzqlEN4Ws/Yym0am73BwAAUKrUE6be8O88ciV095cBvHpMJU1FUQHAl726He4/YMd/AACA0qXeMPWI//w397UfwLFx1TMNxQQAb7i3ET7vfuv+AQAA2JZ6xA+d64f3PrHn/QDSrQArZ0+fGuONBSaniADg7rTu/1Ot+wcAAOCFUq/425f64am97QeQ1pevxHF5vFVNxsIHANX44/jaT18Kbev+AQAAeJHUK6ae8W8/ciUM9nYd/2AQAMyG3/3yZnjFQev+AQAAuLHUM6be8d/+j85evjwFAI+NuaSJWOgA4HCrEv7AJ7ZylwEAAMCMS73j+5/shgtbdzwN4OAk6pmEhQ4AvvRV7dCum/oPAADAraXeMfWQ3/drG3f6pQKA3F5zrB5ef28jdxkAAADMidRD/uKj3fCBZ3t38mUCgJxq1RC+/DXj3/V/c1AJz3RqYaNfCVvx8VY8dgY7j68b6WMAAADsXbM6DK3rxnO/rm0fl+LxrmY/tKvjvQNf6iX/5n+6HPq7vynA8lgLmKCFDAB+78e1wr3L1T19bdr18dluLTy9VQtPxWb/qeuOl3p7e04AAAAm42B9EO5u9cPdzf5zx+PxeKzRH90V7k6lXjL1lD/z4a3dfsncXAFeuAAgbfz3Ra/c/cZ/vWElfORqPfzXK404muGjG/XQH2+ABAAAwISkC7Vp/PcrL1wCnu4E//KlXviklU745JVu+PjlXqhXdtfspZ7ylx7r7GVDwJm2cAHAF35cKzRucaE+XeH/2GY9/LfU8F9uhg/Hhr9ryj4AAMBCSRd2f/tqfTTe81QYNf+fsJwCgW745AOd8PJ276YzBFJPmXrLH/vQ5nSLnrCFCgAONCrh8+9/6cZ/KbP50OVGeN/5dviN2PRv9jX8AAAAJUmzv7dnfjfCzzy5PNo74FMOdsLrjmyFV610XhIGpN5y/cNb4XJ3cWYBLFQA8MaPa4Zm7fmf2uNbtVHT//7zrXDR+n0AAAB2pE3ez1xojUbaR+C1h7fC649shRPt7TsApN4y9Zg/+d92vRfAzFuYAGCpXgm/++XNcDk2+u+PP8D3xab/0c2F+fYAAACYkLSHwL9/Zmk0XtbujWYFpEAg9Zg/99udsNFbjFkAC9MhP3D/cviJJw6N0pvBYvxsAAAAmLJ0IfnRx+vhp59YCScPb8VecxD+/W9fyV3WWMx9AFCtN0Pr4NHwvq2VMFycmRkAAABklC4sp5nllXBvWDp6JWxdOhcGvU7usvZlbgOAaqMVmgeOhlprefRrF/0BAAAYt9RrVlsrYSmO/tbV0Ll8Lgy683n1ee4CgO3G/1hs/JdylwIAAEBB0gXopTj6Wxuhc/nZuQsC5iYAqNabJxorh0N96WDuUgAAAChYuiC91Lo/9DYuhe6VCydy17NbMx8AnHz4kWqlVv++9rGXfXWl6lZ+AAAAzIZ0gbrWWnnHa9/1/tcO+723nHnogUHumm5lpgOAk+/45T9Wa698b7XedNkfAACAmVOpViv1pYNvHvQ6fyT2sH/izIOv/+HcNd3MTAYAJx9+5P5qo/WvGiuHT+auBQAAAG4nXbiO44de953/5cygu/UHzjz0wMdy1/RiMxcAnHzHL7+lvnTw/6rU6jNXGwAAANxKrbV8slpvfjj2tn/qzIOv/0e567neTDXZr33XmR9vrBz6wyFUcpcCAAAAe5IuaMfe9ntjj/slw373S2Zlb4CZCABOPvzeV1ab7V+sLx2Ym90TAQAA4OYqIfa4f7Df2Xw09ry/68xDb/hQ7oqyBwAn3/HLXxf/UP6+Kf8AAAAsmlqzfW+13viNk+/85beeefvr/0HOWrI23a9915mfaKwc+oOm/AMAALCoKtVarbF86O+/9jvO/JFhr/vFuZYEZAkATj78SLPaaP2X+tKB1+R4fQAAAJiuSqi3D5zqdzY+GHviTz/z0AOb065g6gFA/EaPVJtLZ2vN9n3Tfm0AAADIqdZc+qRKpfLbsTf+1DMPPfDsNF97qgHAyYff+4paa/lXq43W4Wm+LgAAAMyKaqN9T/zvb8Ue+TPPPPSG357W604tADj5jvd+Zq298kvVemNpWq8JAAAAs6jaaB4Klcpvxl75c888+IYz03jNqQQA8Rt6Y7194GcqtXpjGq8HAAAAs65ab7QrlQOPxJ75i848+Iafn/TrTTwAiN/I768vHfzJSrVWnfRrAQAAwDyp1Or12DOvx975D5158A0/NcnXmmgAEL+BB+rtA/9S8w8AAAA3lnrm+tLBf7mzHOCRSb3OxAKAkw+/95W1pZX/kNKMSb0GAAAALIJKtVartVf+Q+ylP+3MQ2/4b5N4jYk05ycffuRYrbVyplprtCbx/AAAALBoRj10e/lM7KlfeeahB54e9/OPPQCIhTarzaWzox0NAQAAgF2r1psHQmv4G7G3/vgzDz1wdZzPPfYAoNpo/1qt2b533M8LAAAAJag2WseHw8Gvn3z4kU8689ADg3E971gDgNd+x6/8u3p75VXjfE4AAAAoTa259AlhMPjF+PBzxvWcYwsATr7zfd/cWD70u8f1fAAAAFCyWnvls2Ov/dfPvP113zyO5xtLAHDyHe99fX3p0No4ngsAAADYVl868Fdjz/2vzjz4hl/a93Pt9wlOPvxIu9ZaeU+lWq3u97kAAACA51Uq1Uqttfyzsfe+d7+bAu47AKjWm79gx38AAACYjHRngGG9+2/jw8/az/PsKwA4+c73nW4sHxrbhgQAAADAS9XaKw/EHnztzNtfd3qvz7HnAODkO9772fWlQ3t+YQAAAGD36u0D3xJ78Z8+8+Ab/tOevn6vL1xrLv2rSrVa2evXAwAAALuXevDUi8eHd+/l6/cUALz2ne/79vryoeN7+VoAAABgb6qN1vHYk//t97/9dX/hTr/2jgOAkw8/cry+dPDtd/p1AAAAwP7V2itvj7353z7z0ANP3snX3XEAUKk3f6JSq+/77gEAAADAnatUa7VqvfmT8eFn38nX3VEjf/Id7z3VWD78uXdUGQAAADBWtfbyZ518xy//wTMPvv4nd/s1dxQA1JpLPxAq9v0DAACAvCqxR2+/Oz44utuv2HUA8Np3vu/v1JcP3bWnugAAAICxqjZaR177rvd/9/vf9tpv2M3n7yoAOPnwI+360sE/u7/SAAAAgHGqtZa/Pvbsf/HMQw9cvt3n7ioAqNTq74qjsf/SAAAAgHFJGwLGfv274sOvud3n3jYAOPnwI/X60oG3jKUyAAAAYKxqzaWvjL37nzzz0AOdW33ebQOASrX27ZVaozm+0gAAAIBxSTP243g4PvzGW33ebQOAanPpT4+tKgAAAGDsqo321518+JE/d+ahBwY3+5xbBgAn3/m+tcbyoaXxlwYAAACMS7XeaPertb8WH37zzT7nlgFArdl+cOxVAQAAAGMXe/i3hb0EACff+ctvaywfPjCJogAAAIDxqtabK7GXf/uZt7/+nTf6/ZsGAPELb7l5AAAAADBbYi//1njYfQBw8uFH7m2sHPnEiVYFAAAAjFWt0f7E1NOfeeiBJ178ezcMACq1+l8LlcrkKwMAAADGJ/byo54+hD/14t+6YQBQrTe/bOJFAQAAAGO309PfPgA4+Y73PtBYOXJsKlUBAAAAY1VttI6l3v7Mg2945PqPvyQAqNTq/+f0ygIAAADGbae3/6LrP/aSAKDaaP1P0yoIAAAAGL8b9fYvCABOvuOXv6yxcrg1tYoAAACAsavWGq3U45958PU/cu1jLwgAKtXam6dfFgAAADBuOz3+jQOAar3+OVOvCAAAABi7F/f4zwUAJx9+pN1YOXx8+iUBAAAA41atN4+nXv/MQw9spl8/PwOgWv3joVKtZKsMAAAAGJ/U46deP4R/kH5Zf/7j9T+WqyYAAABg/HZ6/RcGANVa/XXZKgIAAADG7vpefxQAnHz4keONlSNHslUEAAAAjF213jySev4zDz3w9PYMgGrta0LF8n8AAABYKKnXTz1/CA/Xt39ddfs/AAAAWEDXev7tAKBafU3ecgAAAIBJuNbz7wQAtfvzlgMAAABMwrWefzsAqNUP5y0HAAAAmIRrPX99dAeAA0druQsCAAAAxq9SrdVS71+Pj74wdzEAAADABMXev16pVNwBAAAAABZY6v3roVr7zNyFAAAAABMUe/80A+De3HUAAAAAk5N6/3r873LuQgAAAIAJir1/Pf53KXcdAAAAwCRVltISgFbuMgAAAIDJSb1/WgLQzF0IAAAAMEGx908zABq56wAAAAAmJ/X+9VCp1nIXAgAAAExQ7P3TEoBq7joAAACACYq9fz2OSu46AHIbDgZh2O+lR2E4HI6OYbg9htufkbU+IKfK8/99/j+jY6VaTVdURsfR4+C0CoDZlHr/eu4iAKYqNvT9zkYY9DpxdGPT390+Dvq5KwMWQaUyWl2ZJlhW6404mqESR3U0bLsEQF4CAKAIg+5W6G5cCv3Ny6Or/QATkWYN9XujOUMpaAzhyvO/V6mEaq0Rqo1mHO1Qby2HSs2pGADT418dYKGlE/HO5WdDb+Ny7lKA0g2HO7OPOiHE96QUD1QbrVBvrYRae3k0SwAAJkkAACys3salsHXx6e21/AAzKM1O6sQRLj87mh1Qa2+HAbVGO3dpACwgAQCwkDqXng3dK+dzlwGwa4O0J0l830rvXSkMqK8cCvWlg27YBMDYCACAhbN1/onQ27xy+08EmFEpDOhcfCZ0L50bhQApDEihAADshwAAWCidS89o/oGFMRwOQvfqhdGotZZDY/nQ6AgAeyEAABZG9+rF0L1yIXcZABPR37o6Gul2gs0Dx0b7BQDAnRAAAAuht3k5dNKGfwALbtDrhs3zT4Rasx2aB+8a3UkAAHZDAADMvdFu/xeeyl0GwFT1O5th45mPhXp7JTQOHrNHAAC3JQAA5lqa9u/KP1CytO9Jb/PqaH+AxoEjoVKt5S4JgBklAADmVlrvnzb9A2A42igwLYdqHbl3tDwAAF5MAADMpbQRluYf4IWGg37YfPbR0Dx4LDRWjuQuB4AZIwAA5tBQ8w9wC51Lz4Z+ZyO0Dt9jSQAAzxEAAHMnrftPu2ADcHP9rY3RJoEpBLAkAIBEAADMleFgELqXz+UuA2AuDPu9sPnsY6F1+HioLx3MXQ4AmQkAgLnSvXJuFAIAsFvD0a1S01KAWms5dzEAZCQAAOZG2tyqe+Vi7jIA5tLm+SfC0rGXhWqjlbsUADIRAABzI61nTVeyANiD4TBsnns8tFMIUG/krgaADAQAwNxIt/4DYO9Gtwk891hYuut+dwcAKJAAAJgTw9DvCAAA9mu0MeC5x0YzASqVau5yAJgiAQAwF/qdTZv/AYzJoNsJW+ceD62jJ4QAAAURAABzwfR/gPFKwWq6RWD72H1CAIBCCACAudDvbOUuAWDhDLpb2yHA0ftCpSoEAFh0AgBgLgwHvdwlACykUQhwTggAUAIBADAX0s7VAEzG8yHACXcHAFhgAgBg5g2Hg9H9qwGYnOeWA6Q9AYQAAAtJAADMvGHf1X+AaRj0OkIAgAUmAABmnun/ANOzHQI8GtrHXiYEAFgwAgBg5gkAAKZr0OsKAQAWkAAAmAPW/wNM2ygEeObR7eUANaeMAIvAuzkAADc06Hef3xNACAAw97yTAwBwUykE2Hj20bCUlgMIAQDmmndxAABuadjvCQEAFoB3cAAAbutaCJCWA1RrjdzlALAHAgAAAHYlhQCjPQGO3heqdSEAwLwRAAAAsGvbIcD2LQKFAADzRQAAAMAdGQ76OyFAmgnQzF0OALskAAAA4I5thwCPCQEA5ogAAACAPRECAMwXAQAAAHv23HKAtDFgo5W7HABuQQAAAMC+DAeDsHnuMSEAwIwTAACMUWP5cKg2nfzCuAw6W6F79ULuMnal1loOg+7mqBku0SgEuLYcQAgAMJMEAABjlJr/evtA7jJgYfTSf67mrmJ36ksHQu3w3aF7+VzoXr2Yu5wshsNrIcCJUG20c5cDwIsIAAAAxqRSrYXmoeOhvnwodC4+E/qdjdwlTd12CPB4aB09EWpNIQDALBEAAACMWdoRP02F73c3Q/fy+dDfmpNpDGMyCgF29gQQAgDMDgEAAMCE1BrtUDt6Igx6nVEQ0Nu8nLuk6RkOd0KANBNgKXc1AAQBAADAxKUZAa0j94R6Jy0NeHoUCBRhFAI8LgQAmBECAACAKUnT4ZeO3x86l86F7pXzucuZjmshwJF7R3dKACAfAQAAwFRVQvPgsdE6+V4pdwtIIcD5J4QAAJkJAAAAMmgdOh7CoB96m1dylzIdQgCA7AQAAACZpH0BhuefDP2SQoBzKQS4J9TaK7mrASiOAAAAIJvKqBneOv9kOTMBQpoJ8OT2pohCAICpEgAAAGRVGTXDobAQIIUe4cjdod4+kLsYgGIIAAAAskshwL07IcDl3MVMyU4IcDiekC4JAQCmQQAAADAjRjMBLoTQ2yglBAhh68KTIYUB9aWDuUsBWHgCAACAGdI6fE9IMwJ6G5dylzI1WxeeGh2FAACTJQAAAJgxrcN3j47FhQDDeHK6LAQAmBQBAADADBqFAJVK6F29mLuUqdm6+FQYxv81lg/lLgVgIQkAAABmVOvQ8VCJx25BIUDn4tMhjEKAw7lLAVg4AgAAgBnWPHQ8pD0Bulcv5C5lajoXnxktB2isCAEAxkkAAAAw45qH7koZQOheKSgEuPTM6CgEABgfAQAAwBxoHrwrjGYCXDmfu5Sp2Q4BhqGxciR3KQALQQAAADAnmgePbc8EuHw+dylT07n0bAjDYWgcOJq7FIC5JwAAAJgjzQPHwmgmwOVzuUuZmk78Xochfe9CAID9EAAAAMyZ1AinuwN0CgoBtgOP4U4AAsBeCAAAAObQaEp8pbI9Rb4Qo6UPw52lEADcMQEAAMCcurY5XlEhwGgTxOHOpogA3AkBAADAHNsOASrP3TavBKPbIQ53bo8IwK4JAAAA5lxj5fDo7gCdiwWFAFcvhNFMgEPHc5cCMDcEAAAAC6CxfDiMZgJcfDp3KVPTvXpxdHeAlhAAYFcEAAAAC6KxfGh0d4CtgkKA3tWLIQyHoXX47tylAMw8AQAAwAKpLx8a3R1g68JTuUuZmt7GpdFRCABwawIAAIAFU186ODqWFwKkmQD35C4FYGYJAAAAFtB2CJBmAjyZu5Sp6W1cHt0doHVECABwIwIAAIAFVV86MLo7wNb5gkKAzcshnB/uhACV3OUAzBQBAADAAqu3D4RwpLITAgxzlzMVvc0rIcTvVwgA8EICAACABVdvr4RKbIY3CwsBhvH7bQsBAJ4jAAAAKECtvRLaR+8Nm+efGN02rwT9zSth89wToX3k3tGdEQBKJwAAAChErbU8aoaLCgG2ro6+XyEAgAAAAKAo5YYAj8fv+4QQACiaAAAAoDCjEODoibB57vGCQoCN0febvm8hAFAqAQAAQIFqzaXyQoCOEAAomwAAAKBQ2yHAfbEpfqywEOCx0Dp6IlQq1dzlAEyVAAAAoGC1ZnsUAmydezwMh4Pc5UxFv7M5+n6FAEBpBAAAAIVLIUBqhksLATaffSy0j90nBACKIQAAAGB7JkBshlNTXEoIMOhubYcAR+8LlaoQAFh8AgAAAEaqjdZ2CHDusTAcFBQCnBMCAGUQAAAA8JxRCHC01BDgRKhUa7nLAZgYAQAAAC/wfAjweBgO+rnLmYrnlgOkPQGEAMCCEgAAAPASzy0HSHsClBIC9DpCAGChCQAAALihar1ZaAjwaPy+XyYEABaOAAAAgJsqMwToCgGAhSQAAADglrZDgJeNmuKiQoBnHt1eDlBzygwsBu9mAADcVrXeCO27XrY9E6Dfy13OVAz63ef3BBACAAvAOxkAALtSrTWeXw5QUAiw8eyjYSktBxACAHPOuxgAALuWQoDUDKemuJQQIH2fQgBgEXgHAwDgjqQmuNQQIM2ASCEIwDwSAAAAcMeuhQBpOUCaJl+CFAKM9gQ4et9oTwSAeSMAAABgT1IIcG1PgLJCgO1bBAoBgHkjAAAAYM9GIcBd27cITLfOK0G6FeLmteUA9WbucgB2TQAAAMC+VKq10RXx8kKAx4QAwFwRAAAAsG/PhwCPhUGvk7ucqRACAPNGAAAAwFhshwD3FRgCPLq9MWCjlbscgFsSAAAAMDbPhQDnHg+D7lbucqZiOBjE7/cxIQAw8wQAAACM1SgEOHrfqCkuKgS4thxACADMKAEAAABjV6lWywsBhtdCgBOh2mjnLgfgJQQAAABMxCgEuLYnQFEhwOOhdfREqDWFAMBsEQAAADAxlcp2CLB17vHQ72zmLmcqRiHAzp4AQgBglggAAACYqBQCpCviJYUAYTjcCQHSTICl3NUAjAgAAACYuNFMgKPbdwfodzZylzMdoxDgcSEAMDMEAAAATEelMmqGiwwBjtwbaq3l3NUAhRMAAAAwPddCgPOPh/5WQSHA+SeEAEB2AgAAAKYrhQBHToya4v7W1dzVTIcQAJgBAgAAAKZvFALcW14IcC6FAPeEWnsldzVAgQQAAADk8VwI8GTob13JXc2UDEffb+vIPaEuBACmTAAAAEA+oz0B7glbsSnubZYTAqTvNxy5O9TbB3IXAxREAAAAQGaV0RXxUGIIcDiekC8JAYDpEAAAADADUghw704IcDl3MVOzdeHJkMKA+tLB3KUABRAAAAAwM0YzAS6E0NsoKQR4anQUAgCTJgAAAGCmtA7fE9KMgN7GpdylTM0oBBjGk/NlIQAwOQIAAABmTuvw3aNjUSHAxafCMP6vsXwodynAghIAAAAwk0YhQKUSelcv5i5lajoXnw5hFAIczl0KsIAEAAAAzKzWoeOhEo/dokKAZ0KlUrUnADB2AgAAAGZa89DxkPYE6F69kLuUqUkhQK3ZDpVaI3cpwAIRAAAAMPOah+5KGUDoXikjBBgOB6ONAdvHXpa7FGCBCAAAAJgLzYN3hdFMgCvnc5cyFf3O5ijwaKzYDwAYDwEAAABzo3nw2OhYSgjQufxsqLWWQ7VuKQCwfwIAAADmyigEqFRC9/K53KVM3nAYti48GZbuSksBKrmrAeacAAAAgLnTPHB01A53CggBBt2t0L18PjTi9wywHwIAAADm0qghrlRC59KzuUuZuM7l86HWWgnVRjN3KcAcEwAAADC3GitHRsfFDwGuLQW4fxR6AOyFAAAAgLm2HQKkmQDP5C5loga9zmjJw7WNEAHulAAAAIC5N7pVXiWEzsXFDgHS3Q/q7bQUoJW7FGAOCQAAAFgIjeXDYTQT4OLTuUuZqO2lAC+3FAC4YwIAAAAWRmP50OjuAFsLHAIMet3RngfNQ3flLgWYMwIAAAAWSn350Ojq+NaFp3KXMjHdqxdCfemApQDAHREAAACwcOpLB0fHRQ4Bti4+E5buelnuMoA5IgAAAGAhbYcAldGa+UU06G6G3ublUG8fyF0KMCcEAAAALKw0TT5tCrB1fjFDgLQXQL21YkNAYFcEAAAALLTRFfIjKQRIywGGucsZq2G/N7o1YOPA0dylAHNAAAAAwMLbDgEqOzMBFisE6Fw5P1ruUKk5tQduzbsEAABFqLdXQuXIPWFz0UKA4TB0Lj8bWofvyV0JMOMEAAAAFKPWXgnto/eGzfNPjBrnRdHbuBway4fdFhC4JQEAAABFqbWWQ/vI4oUAnYvPhLbbAgK3IAAAAKA42yHAibB5/vGFCQH6bgsI3IYAAACAItVaS6F99ETYPLc4IYDbAgK3IgAAAKBYteZihQBuCwjcigAAAICibYcA94XNc48tRAgwui3g8qFQqdZylwLMGAEAAADFqzXboxBg69zjYTgc5C5nf4bD0Lt60SwA4CUEAAAAEHZCgGMnwuaz8x8C9LauCgCAlxAAAADAjmojhQD3hc1nH5vrEGDQ3QrDQd8yAOAFBAAAAHCdaqO1HQKceyw20fMbAvQ3r4z2AgC4RgAAAAAvkkKA1pG0HODR3KXsWVoGIAAAricAAACAG0h7AtSXDobexqXcpexJv7OxfVeDSiV3KcCMEAAAAMBNNA8eC/2tK/O5FCA2//3O1VBrreSuBJgRAgAAALiJtIle88CxsHXx6dyl7ElvUwAAPE8AAAAAt5DW0Xc3Lo121p83/a2ruUsAZogAAAAAbqN16HjYeOZjucu4Y+lWgCm4SJsaAggAAADgNlIDnWYC9K5ezF3KHettXglNAQAQBAAAALArzQNHt+8IkHbWnyOjZQAHj+UuA5gBAgAAANiFtCHg6LaAczYLYNDrhGG/Fyo1p/5QOu8CAACwS42Vw3MXACS9rSuhsXw4dxlAZgIAAADYpWqtEWrtldDfvJK7lDvS37wqAAAEAAAAcCdSIz13AUB3MwyHg1CpVHOXAmQkAAAAgDtQa7ZH6+nTuvq5MRyG/tZGqLdXclcCZCQAAACAO5Qa6e6VC7nLuCOD7lYIAgAomgAAAADuUK01hwFAr5O7BCAzAQAAANyh0TKAai0MB/3cpeyaAAAQAAAAwB6MlgHM0S0B054Fw8EgVKo2AoRSCQAAAMage+Xi6FZrlGPQ7+Yu4Y6lWQBp9gJQJgEAAMAYDLqbceSuAm5t0NsSAEDBBAAAAFCIYU9KBSUTAAAAQCHmadNCYPwEAAAAUIjhcJC7BCAjAQAAABQi3QUAKJcAAAAASmEGABRNAAAAAIUwAwDKJgAAAIBC2AMAyiYAAABmVqVSzV0CLJbhMHcFQEYCAABgZlWqTlUAYFz8qwoAzKxKrZa7BABYGAIAAGBmVaoCAAAYFwEAADDTUggwHPRzlwEAc08AAADMNAEAAIyHAAAAmGnVejMMep3cZQDA3BMAAAAzrdZaDr3Ny7nLAIC5JwAAAGZarbWUuwQAWAgCAABgpqU9AKqNdhh0N3OXAgBzTQAAAMy8ens5dAQAALAvAgAAYOalfQDCpWdzlwEAc00AAADMvHQngGqjFQbdrdylAMDcEgAAAHOhdeh42HjmY7nLAIC5JQAAAOZCmgFQbx9wS0AA2CMBAAAwN5oHj4Xe1pUQhsPcpQDA3BEAAABzo1Krh8bKkdC9fC53KQAwdwQAAMBcaa4cCf2tjTBwW0AAuCMCAABgvlQqoX3sRNg690TodzZyVwMAc0MAAADMnUqlGtpHT4TN80+E/tbV3OUAwFwQAAAA8ynNBDhyb9g8/2Top40BAYBbEgAAAPMrhQBH7wmb58wEAIDbEQAAAHNueybAxrOPhkF3K3cxADCzBAAAwPwbzQQ4ETae+VgY9nu5qwGAmSQAAAAWQqVaC+2j94XNZz8WhoNB7nIAYOYIAACAhVGtN0LryImwee6xEIbD3OUAwEwRAAAAC6XWbIfW4bvD1vknc5cCADNFAAAALJx6+0CoHKuHrQtP2hMAAHYIAACAhZRmAizddX/YuvCUWwQCQBAAAAALbHtjwBOhe+VC6Fx6Nn7EvgAAlEsAAAAsvMbK4dGMgLQkYNDr5i4HALIQAAAARag2WmHp+CtCf2sj9DYuht5mWhZgRgAA5RAAAABFqbWWRqM56Ife1Uuhu3HRRoEAFEEAAAAUKe0P0DhwZDQG3a0w6HdHQcAgjmF63IuPB70QhmYJALAYBAAAQPHS8oA0YK+2zj8ZepuXc5cBcEsCAAAAACiAAAAAAAAKIAAAAACAAggAAAAAoAACAAAAACiAAAAAAAAKIAAAAACAAggAAAAAoAACAAAAACiAAAAAAAAKIAAAAACAAggAAAAAoAACAAAAACiAAAAAAAAKIAAAAACAAggAAAAAoAACAAAAACiAAAAAAAAKIAAAAACAAggAAAAAoAACAAAAACiAAAAAAAAKIAAAAACAAggAAAAAoAACAAAAACiAAAAAAAAKIAAAAACAAggAAAAAoAACAAAAACiAAAAAAAAKIAAAAACAAggAAAAAoAACAAAAACiAAAAAAAAKIAAAAACAAggAAAAAoAACAAAAACiAAAAAAAAKIAAAAACAAggAAAAAoAACAAAAACiAAACgcIN+Nwy6W7nLAHhOvbUSQqWSuwyAhSMAAChc58JTod/ZzF0GwHOGB+8KjZXDucsAWDgCAICCpcZf8w/Mmu7VC6GxfMgsAIAxEwAAFKx75XzuEgBeYtjvhd7GpVBPIQAAYyMAAChUWvff37qauwyAG+pcuSAAABgzAQBAoTT/wCwbpg1Ke51QrTdzlwKwMAQAAIUa9Hu5SwC4pbQUIAgAAMZGAABQqHR1DWCWpduU1nIXAbBABAAAhRr0BADAbBv2zFQCGCcBAEChhoN+7hIAbsn7FMB4CQAAAACgAAIAAAAAKIAAAAAAAAogAAAAAIACCAAAAACgAAIAAAAAKIAAAAAAAAogAAAAAIACCAAAAACgAAIAAAAAKIAAAAAAAAogAAAAAIACCAAAAACgAAIAAAAAKIAAAAAAAAogAAAAAIACCAAAAACgAAIAAAAAKIAAAAAAAAogAAAAAIACCAAAAACgAAIAgEJVqrUwHPRzlwFwU+l9CoDxEQAAFKpSqwsAgJlWqQkAAMZJAABQKFfWgFnnfQpgvAQAAIVKMwAAZlml6n0KYJy8qwIUqurKGjDjLAEAGC8BAEChKvVG7hIAbq5SMVMJYMy8qwIUqt5aCR13AgBmVL19IFQq1dxlACwUAQBAqSqV0Dx0PHQuPi0EAGZKtdEKzQNHc5cBsHAEAAAFq7dXQq21FPobV0L36vkw6HVzlwQUrNZaDo2Vw6HWXMpdCsBCEgAAFC5Nsa0vHwz1pQNh6+LTobdxKXdJQGkqldA6dDy+Dx3MXQnAQhMAALAtnYAfvnt05a1zKS0LGOSuCChAmu6f3nuq9WbuUgAWngAAgBdIMwFqzXboXHom9LauhjAc5i4JWEBph//G0sHQOHAk/Sp3OQBFEAAA8BLpxLx15N7Qis1/v7MZhkObBALjU601Rlf+AZguAQAAN1epjDYJBABg/gkAAAAAoAACAAAAACiAAAAAAAAKIAAAAACAAggAAAAAoAACAAAAACiAAAAAAAAKIAAAAACAAggAAAAAoAACAAAAACiAAAAAAAAKIAAAAACAAggAAAAAoAACAAAAACiAAAAAAAAKIAAAAACAAggAAAAAoAACAAAAACiAAAAAAAAKIAAAAACAAggAAAAAoAACAAAAACiAAAAAAAAKIAAAAACAAggAAAAAoAACAAAAACiAAAAAAAAKIAAAAACAAggAAAAAoAACAAAAACiAAAAAAAAKIAAAAACAAggAAAAAoAACAAAAACiAAAAAAAAKIAAAAACAAggAAAAAoAACAAAAACiAAAAAAAAKIAAAAACAAggAAAAAoAACAIDCdS4+HbpXL+YuA+A57WP3hVpzKXcZAAtHAABQsOGgH7obl3KXAfAC3cvnQu2YAABg3AQAAAXrXjkfwnCYuwyAF+h3Nkej1mznLgVgoQgAAAo1uvpv6j8wo1JAWWueyF0GwEIRAAAUqrd5xdV/YGb1t66GYb8XKjWnqwDj4h0VoFDDXid3CQC3NOh3Q00AADA23lEBCjXo93KXAHBLQ+9TAGMlAAAo1LDXzV0CwC0NvE8BjJUAAKBQZgAAs2448D4FME4CAIBi2QAQmHHepgDGSgAAAAAABRAAAAAAQAEEAAAAAFAAAQAAAAAUQAAAAAAABRAAAAAAQAEEAAAAAFAAAQAAAAAUQAAAAAAABRAAAAAAQAEEAAAAAFAAAQAAAAAUQAAAAAAABRAAAAAAQAEEAAAAAFAAAQAAAAAUQAAAAAAABRAAAAAAQAEEAAAAAFAAAQAAAAAUQAAAUKhKtRqGg0HuMgBuLr5PATA+AgCAQlWq9TAcdHKXAXBT1WotdwkAC0UAAFCoihNrYMZ5nwIYLwEAQKEqNf8EALPN+xTAeHlXBSiUK2vArPM+BTBeAgCAQrmyBsw671MA4+VdFaBQ9fZK6Fx8Jj4a5i4F4CVqzbYZAABjJgAAKFQ6sW4sHwzdqxdzlwLwQpVKaKwczV0FwMIRAAAUrHnoeKi1lkP3yoXQ72zkLgcoXWz86+0DoXHgSKjWGrmrAVg4AgCAwqUAII1+dzNsnX8yDPu93CUBBUrvQ63Dd5v2DzBBAgAARmqNdli66/6wdeGp0N+6mrscoBiV0Dx4NDRWjuQuBGDhCQAAeE668tY+eiL0rl4KnUvPhOFwkLskYIFV683QOnxPqDaauUsBKIIAAICXqC8fDLWlldDf2tjeG2AgCADGp1JvhHprKTb+7dylABRFAADADVUq1dGtAtMAAGD+CQAAAACgAAIAAAAAKIAAAAAAAAogAAAAAIACCAAAAACgAAIAAAAAKIAAAAAAAAogAAAAAIACCAAAAACgAAIAAAAAKIAAAAAAAAogAAAAAIACCAAAAACgAAIAAAAAKIAAAAAAAAogAAAAAIACCAAAAACgAAIAAAAAKIAAAAAAAAogAAAAAIACCAAAAACgAAIAAAAAKIAAAAAAAAogAAAAAIACCAAAAACgAAIAAAAAKIAAAAAAAAogAAAAAIACCAAAAACgAAIAAAAAKIAAAAAAAAogAAAAAIACCAAAAACgAAIAAAAAKIAAAAAAAAogAAAAAIACCAAAAACgAAIAAAAAKIAAAAAAAAogAAAAAIACCAAAAACgAAIAgML1Nq+EfhwAs6J58Fio1JymAoybd1aAog1D59IzYdjv5S4E4HnVamgdOp67CoCFIwAAKFhv47LmH5g5vY1LoblyxCwAgDHzrgpQsO7l87lLAHip4TB0r1wIzUN35a4EYKEIAAAKldb+D/rd3GUA3FB342JoHDwaKpVq7lIAFoYAAKBQg+5W7hIAbm44DMNeN1QardyVACwMAQBAoYau/gMzLs1SqgoAAMZGAABQKNP/gVlnk1KA8RIAABRq2HNiDcy2QU9QCTBOAgCAQg2Hg9wlANzacJi7AoCFIgAAAACAAggAAAAAoAACAAAAACiAAAAAAAAKIAAAAACAAggAAAAAoAACAAAAACiAAAAAAAAKIAAAAACAAggAAAAAoAACAAAAACiAAAAAAAAKIAAAAACAAggAAAAAoAACAAAAACiAAAAAAAAKIAAAAACAAggAAAAAoAACAAAAACiAAAAAAAAKIAAAKFWlEsJwmLsKgJtL71MAjI0AAKBQlWotDPu93GUA3FR6nwJgfAQAAIWq1uqhLwAAZlilJgAAGCcBAEChXFkDZl2l6lQVYJy8qwIUyok1MOsElQDj5ewPoFCm1gKzzvsUwHgJAAAKVWsu5S4B4KYqtfporxIAxse7KkChqo3WaAy6W7lLAXiJxvKh+F+3AQQYJwEAQMHaR0+EzqVnQ2/jcvzVMHc5AKN1/42VI3Ecyl0KwMIRAAAULJ1otw7fHZoHj4Xu5fOhe/VC7pKAQlWq1fhedFeotw/EX7jyDzAJAgAARkFA89BdodZqh60LT4XhYJC7JKAgaTlS+8i9o3X/AEyOd1kAnlNrrYSlu1qjEKDf2chdDlCAxoGjoXngSLDeH2DyBAAAvEC6Atc+dl/obV4O/c0rob+1EYZDMwKA8anWGqHWWg71pQOjq/8ATIcAAIAbSutwR2txAQBYCAIAAAAAKIAAAAAAAAogAAAAAIACCAAAAACgAAIAAAAAKIAAAAAAAAogAAAAAIACCAAAAACgAAIAAAAAKIAAAAAAAAogAAAAAIACCAAAAACgAAIAAAAAKIAAAAAAAAogAAAAAIACCAAAAACgAAIAAAAAKIAAAAAAAAogAAAAAIACCAAAAACgAAIAAAAAKIAAAAAAAAogAAAAAIACCAAAAACgAAIAAAAAKIAAAAAAAAogAAAAAIACCAAAAACgAAIAAAAAKIAAAAAAAAogAAAAAIACCAAAAACgAAIAAAAAKIAAAAAAAAogAAAAAIACCAAAAACgAAIAAAAAKIAAAAAAAAogAAAAAIACCAAAAACgAAIAAAAAKIAAAGCMBp2t0MtdBABTN+h79wdmnwAAYIy6Vy+EcDV3FQAA8FICAAAAACiAAAAAAAAKIAAAAACAAggAAAAAoAACAAAAACiAAAAAAAAKIAAAAACAAggAgJlXif8DAMag4t9UKJkAAJh5lZq3KgAYh0q1lrsEICNn1cDMc7ICAOPh31QomwAAmHlOVgBgPCpVp/9QMu8AwOyrVOL/VcNwOMhdCQDMtUpNqA4lEwAAcyGdsAx7AgAA2A+z6qBsAgBgLmxPWezmLgMA5lrVxrpQNO8AwFyotZZCv7ORuwwAmGu15lLuEoCMBADAXKi1lkO49GzuMgBgblXrTbfWhcJ5BwDmwrWTlmG/l7sUAJhLozAdKJoAAJgb9Xji0r16MXcZADCXBACAAACYGzUBAADsSaVaDbVmO3cZQGYCAGBupI2L0u2LhoN+7lIAYK7UWiu5SwBmgAAAmB+VSmgcOBo6F5/OXQkAzI/472cz/vsJIAAA5kpj+VDoXb0YBr1O7lIAYC40Vo7Y/R8Y8U4AzJ3mwbvC5rnHcpcBADMvNf7NlSO5ywBmhAAAmDu11tJoQ8D+1tXcpQDATBtN/a9UcpcBzAgBADCXRrMAOpthOBzkLgUAZlLa9b++dDB3GcAMEQAAc6lab4T2sftGSwGGAyEAAFwvNf+toydylwHMGAEAMLeqjVZoH00hwONuDQgAO9Jtc9up+Tf1H3gRAQAw10YhQJoJ8OxjQgAAipf2yGkfuVfzD9yQAACYe9V6M7TvelnYfOZRIQAAxaq1V2Lzf098pPkHbkwAACyEaq0xmu44mglgY0AAClNrtEP7sOYfuDUBALAw0nKA1pF7RnsCAEApUgjeOmraP3B7AgBgoaS1j61Dd4eti0/lLgUAJq5SrYXWsROjI8DtCACAhVNfPhgGg27oXj6fuxQAmJxKZbT8Lc0AANgNAQCwkJoHjoVhvxd6G5dzlwIAE5E2/EvL3wB2SwAALKzW4btHUyK7Vy7kLgUAxqZSrcZ/4+4ZLXsDuBMCAGCBVULz4F2h1lwKWxeecotAAOZerdkeNf+VmtN44M555wAWXrpCsnTX/WHrwpOh39nMXQ4A7EnjwJHREjeAvRIAAEVIV0rax14WOpfPhW4cADAvRjv9H7lnNKMNYD8EAEBRmgeOhnp7JXSvXgz9jcthOBzkLgkAbijt7l9fPhTqSwdH6/4B9ksAABSnWm+G1qHjYXjw2OguAb2rF8Og18ldFgCEtH9Nvb08avxd8QfGTQAAFKtSqYZGPMFKY9DdDL3NK2HQ64Vhvzu6haDZAQBMWpren670p6Vq1UZz52p/LXdZwIISAABE1UY7NOO43nAweD4MiP8DgHGoVGrbDX/ayb9SyV0OUJB6usKVroIB8EJpvWWl2gqh0cpdCgAA7Evq/ethMAihJgAAAACAhRV7//pwOAwmHgEAAMDiSr1/PdjkCgAAABbbcLC9BwAAAACwuLb3ABAAAAAAwGIbzQAYuLUVAAAALLLU+1sCAAAAAAtuuD0DoJ+7DgAAAGCCUu9fH/Y6uesAAAAAJij1/vVBv5u7DgAAAGCCUu9fH/QEAAAAALDIUu9fD8NhGPZ7oVKr564HAAAAGLPU86fef9T1p6kANQEAAAAALJxrS/+3A4BeN9SaS1kLAgAAAMbv2tL/UQAwtA8AAAAALKRh7wUzANwKEAAAABbRtZ5/FAD0u5ujDQFCpZK1KAAAAGCMYq8/6vnDTgCw/YGtUGu2c5YFAAAAjFHq9UcX/MO1ACB9sLMhAAAAAIAFknr9a54LAAajDx7NUQ8AAAAwAYMbBQD9zlYYDgehUqlmKQoAAAAYn9Tjp17/mvp1vxUGnc1Qay1nKAsAAAAYp9Tjp17/mvr1vznaB0AAAAAAAHPv+vX/yQsDgK34mwenWg8AAAAwAaMe/zovCAAGvc5oVOvNqRYFAAAAjM+1/v569Rd/Um/jcmgePDa1ogAAAIDxSr39i700ANgUAAAAAMA8S739i70kABj2e9ubATaXplIUAAAAMD6pp0+9/Yu9JABI0lQBAQAAAADMnxtN/09uGAD0N6+EcOh4CJXKRIsCAAAAxmg43O7pb+CGAcBwOAi9+AX1pQMTrQsAAAAYn9TLp57+Rm4YAIy+aOOSAAAAAADmSOrlb+amAUDaNGDQ3QrVRmsiRQEAAADjk3r41MvfzE0DgKRz+VxoHz0x9qIAAACA8Uo9/K3cMgDob10Ng14nVOvNsRYFAAAAjE/q3VMPfyu3DACS7uVzoXXk3rEVBQAAAIxX9/L5237ObQOAtINgo9cN1XpjHDUBAAAAYzTod2Pvfvm2n3fbACDpXjkXWofv2XdRAAAAwHjt5up/sqsAoLdxJTQPdEOlZhYAAAAAzIphv7erq//JrgKA+JShc+lZewEAAADADOlcfja27MNdfe4uA4DtvQDqnY1Qay7tuTAAAABgPPqdzdDb2N3V/yQFAJ04dnWfv87Fp8PSXS8PoVLZY3kAAADA/g1HPfod6KQA4FIcd+3mswe9buhevRAaK0f2UBwAAAAwDt0rF2KP3rmTL7l0RwFA0rl8LtTbB0KltuvVAwAAAMCYpI3/Um9+h54LAO7gldKGgM/YEBAAAAAySD35bjf+u84eAoCwsyHg1kaotWwICAAAANPSj7146sn3YBQA7H7LwOtsXXwqLN11f6hUa3v5cgAAAOAODAf9US++R5f3NANg9ML9Xti68FRoHz2x1xcHAAAAdin14KkX36O9LQG4pr91NXSvnHdXAAAAAJigtOt/6sH3YRQAXNzPM3QunQvVRjvUmu39PA0AAABwA4PuVuy9n93v01xMAcBv7e85hmHrwpP2AwAAAIAxGw4GYfP8E+nRfp/qt1IA8IF9F2Q/AAAAABi7dMF9H+v+r/eBFAB8cBzPNNoP4PK50DhwdBxPBwAAAEVLe+7tc93/9T6YAoAPx9GJo7nfZ+tcPhcqtXqoLx3c71MBAABAsXobl8ex7v+a1PN/uH729Kn+6tr6f42/WB3Hs6alAGkvgFpreRxPBwAAAEVJV/1Tbz1G/zX1/vWdX6R9AMYSACRpg4L20fvcGQAAAADuQNrxf0yb/l1vtPfftQBgLPsAPGc4DFvnHw/tYy8L1fq+VxYAAADAwhv0umHz3GOjnnrMRj3/9TMAxmp0q4Jzj4elYy8b7QsAAAAA3Fja6T81/6mXnoAXzAB4/yRe4do3kGYCpH0BAAAAgBcaDvrbzf94bvd3I6Oe/1oA8CtxPBPHXeN+ldEUhmceDe1jJ0Kl1hj30wMAAMDcGl04f/axMOh3J/USqddPPf92AHD29Knh6tr6L8SHXzaJV0vfyMYoBLjPngAAAAAQ0gXzzqj5TzMAJugXUs+fHly/OP/nw4QCgGQ0peGZR0Pr6Al3BwAAAKBo/c7maPP8Ca35v97PX3twfQDwnkm/6nA42N4T4PA9odZemfTLAQAAwMzpb13dvtXf+Hf7v5Hnev3nAoCzp099cHVt/aPx4csn+tLxG0zfaOvw3aG+dHCiLwUAAACzpLdxKWxdeDo+mkrz/9HU61/7xYvvz5emBnzNNKrYuvDUaL1D8+Cx+KvKNF4SAAAAMhmGzqVzoXvl/DRf9Oev/8WLA4A0NWAqAUDSvXJhtO6hfeTeUKm9uBQAAACYf2mn/60LT4763yl7wVL/F3fd63Gk7Qdr06pm0N0KG898NLTSvgCt5Wm9LAAAAExcWu+fZsBPeKf/G7502O7xn/OCAODs6VOPr66t/1x8+PumWVXa9XDz3OOhsXLYkgAAAAAWQJry/+xo5nsmP5d6/Os/cKN59/8kTDkAuMaSAAAAAOZdmvKfNr9PM94z+icv/sCNuuwfj+NiHIcmXc2NjJYEPP3R0Dh4NDSWD+coAQAAAPake/VC6F46F4bDQc4yUk//4y/+4EsCgLOnT22srq3/SHz4tVMo6obSH1Tn4jOhd/VSaB0+HqqNdq5SAAAA4LYG3c3R7f3S3e5mwI+k3v7FH7zZPPt3h4wBwDXpD27jmUdDfengaG+ASnVqexMCAADAbaXN/dJa/97GpdylXO/dN/rgzQKAfx/Hh+P4hAkVc0fSH2TaOTGFACkMAAAAgNxSr5qa/ww7/N/Kh8N2T/8SNwwAzp4+NVxdW/+n8eG3TLCoO5L+QNOtE7pXL4bmgWOh1lrKXRIAAAAF6m9thM7lZ3Nv8ncz/zT19Df6jVtttf89cfzlOBoTKWmP0h/w5rnHQrXRCs0DR0OttZy7JAAAAAqQZqZ3Lp+b1cY/6YXtXv6GbhoAnD196iOra+v/LD58yySq2q/tIODxUK03Q+PA0VBvr+QuCQAAgAXU27wSuqnxn40N/m7l+1Mvf7PfvNUMgOTb4viaOKpjLWmM0g9g6/wToVtvhMbK0VBfSkFAJXdZAAAAzLVh6G3Exv9Kavy7uYvZjXTfwW+71SfcMgA4e/rUB1fX1n84PnzTOKuahPQD2brwZOhcqoX60oFQbx8YLRMAAACA3Rp0O6G3eSk2/5dnbXO/2/mx2MP/5q0+4XYzAJK/GceXhzm5rJ5+QN0rF0YjLQ8YhQFLB91CEAAAgBtKfWRq+NOu/nMwzf9mvvV2n3DbAODs6VP/ZXVt/Sfjwz80lpKmKP3g0i0Z0kh3Dai3D4ZaezlUKjO7ogEAAIApGA4Ho039UuOfjnPu38Te/X23+6TdzABI/kaYwwDgeuk2DWmEC2G0NKDWXBqFArVGO4TKXExuAAAAYK+Gw9Dvbm73hp2NWd7Jfy/+5m4+aVcBwNnTp/7z6tr6z8SHv29fJc2I9INOo3vl/Kj5TyFArdkeBQLb+wYIBAAAAObbcNT39bc2Rw1/av5TCLCA/l3s2f/Dbj5xtzMAkrfH8StxNPZU0qxKKVBnOwEKl8+F1PxXa/VQqTdCNY1aIz5ujh7bRwAAAGC2pPX7aVP4Ya8TBv3uzuN47PfS7+Yub9LSLoV/drefvOsA4OzpU7+xurb+zvjwL+6lqvkxHP2lCXH0XzQjJO0dkIKB0R4C1fi4Utl+XNl+vP2xqiUFAAAA+zUcjtbph8EgHoep0x/9evR4sPM4Nfvpc8r1nWnfvt1+8p3MAEj+WhxfGccr7vDrFsLoL9hirRMBAABgPj0ax+k7+YI7CgDOnj51ZXVtPS0F+JE7+ToAAABgrB6MPfqlO/mCO50BkEKAH12kDQEBAABgzvxs7M1/8E6/6I4DgB3fGMevxtHa49cDAAAAd64Tx1v38oV7CgDOnj71odW19W8Ld7jeAAAAANiXb409+Qf38oV7nQGQ/PU4vjCOz9/HcwAAAAC78x/Ddi++J3sOAM6ePtVbXVv/ivjwTBzH9/o8AAAAwG09E8dXpF58r0+wnxkAKQT42Ora+lfHhz8dR2U/zwUAAADc0DCOr4k9+Ef38yT7CgCSWMC/WV1b/9b48K/u97kAAACAl/g7sff+qf0+yb4DgB3/R9jeC+B3j+n5AAAAgBD+vzCmC+5jCQDOnj7VX11b/8qwvR/A3eN4TgAAACjcs2Gf6/6vN64ZACkEeHR1bf3L4sP1OFrjel4AAAAoUDeON8Ve+yPjesKxBQBJLOzfr66tf1V8+ENxVMf53AAAAFCItOnfm2OP/XPjfNKxBgBJLPBHV9fW3xoffve4nxsAAAAK8LbYW/+LcT/p2AOAJBb691fX1u+LD79lEs8PAAAAC+pbY0/9nZN44okEAEks+P/YCQG+blKvAQAAAAvkH8Veeiw7/t/IxAKAHX86jnvi+EMTfh0AAACYZz8Rx9dP8gUmGgDs3B7wK+LDH4vjiyb5WgAAADCn/k3Yvt1ff5IvMukZACkE2FhdW08zAP5RHP/bpF8PAAAA5sj3x/GW2Dt3J/1CEw8AkvSNrK6tvzk+fCKOh6bxmgAAADDj3hXHg7FnHk7jxaYSACQ739CfX11bfzwevz2OyrReGwAAAGbMX4198rdO8wWnFgBcE7/Bv7O6tv5kfPi9OV4fAAAAMkrr/P9U7I2/d9ovnKUBj9/ou1fX1p+OD38wjgM5agAAAIApuxrH/xp74n+Z48WzXYGP3/BPr66tPxAf/nAcn56rDgAAAJiC34jjj8Ve+NdzFZB1Cn78xn9zdW39s+LDvxfH1+asBQAAACbk3XF8Q+yBr+QsIvsa/HSbwHj4E6tr6/8uHr87jpXMJQEAAMA4pCn/fyb2vf84dyFJ9gDgmp19AR4J20sCPi13PQAAALAPZ+P48pxT/l9sZgKAJP7B/MbOkoC/GywJAAAAYD79ozi+Mfa4V3MXcr2ZCgCSnT+gtCTgn4btJQGfmrkkAAAA2I200V9a6/9vcxdyIzMXAFyT/sBW19Z/R3z4UBzfEsdy5pIAAADgRtKF7P8zjodjL9vNXczNzGwAkOz8wX3b6tr6D8Tjd8TxJXkrAgAAgBf48Tj+XOxfP5K7kNuZ6QDgmp0/yD+yurb+v4Tt/QFembkkAAAAyvZbYXud/0/lLmS35iIAuCb9wa6urf9cfPjH4/hLQRAAAADAdKXG/2/F8Y9jj7qVu5g7MVcBQLLzB/wPV9fWvzce/9c4/kocn5K3KgAAABbcb8bxrXH8QOxLe7mL2Yu5CwCu2fkDf/fq2vo/i8cvjeOb4jiZtSgAAAAWzZk4/kYcPxb70EHmWvZlbgOAa3Z+AD+Sxs4eAX8uji+Mo5q1MAAAAOZV6jPfE8e75mmN/+3MfQBwvZ0fTNon4P54/Ko43hzHp+WtCgAAgDlxNo53x/H9sb/8aO5ixm2hAoBr4g/qY/Hw7Wmsrq2/LmwHAV8Zxz1ZCwMAAGDWPB3HP4/j3bGXfG/uYiZpIQOA68Uf4Pvi4X2ra+t/Ph6/KI4/HLaXCLiDAAAAQJk+HLan+P/LOP517Bu7ecuZjoUPAK7Z2TTwX+2MsLq2/glhOwhI4wviuDdbcQAAAEzSE3H8Qhw/H8d7Yn/43zPXk0UxAcCLxR/4h+Phe3dGCgTSXgEpDPicOF4Tx6vjOJCrPgAAAPbkchwfjOMDcfxS2G74fy1vSbOh2ADgxeJfiF+PhzS+89rHVtfWXxa2w4BrgUA6viqOY3EciqMx/UoBAACKlqbrX4zj2Tg+FLYb/WsN/wdib/doxtpmmgDgFnb+4qTxCzf6/dW19VbYDgLSOHjd45U4KlMqEwAAYNEM47gSthv9SzvH0Yh92lbOwuaZAGAfdv7iPbUzAAAAYGYJAAAAAKAAAgAAAAAogAAAAAAACiAAAAAAgAIIAAAAAKAAAgAAAAAogAAAAAAACiAAAAAAgAIIAAAAAKAAAgAAAAAogAAAAAAACiAAAAAAgAIIAAAAAKAAAgAAAAAogAAAAAAACiAAAAAAgAIIAAAAAKAAAgAAAAAogAAAAAAACiAAAAAAgAIIAAAAAKAAAgAAAAAogAAAAAAACiAAAAAAgAIIAAAAAKAAAgAAAAAogAAAAAAACiAAAAAAgAIIAAAAAKAAAgAAAAAogAAAAAAACiAAAAAAgAIIAAAAAKAAAgAAAAAogAAAAAAACiAAAAAAgAIIAAAAAKAAAgAAAAAogAAAAAAACiAAAAAAgAIIAAAAAKAA/z8uv4rEwm2FLgAAAABJRU5ErkJggg==;" vertex="1" parent="1">
          <mxGeometry x="60" y="475.96000000000004" width="54" height="54" as="geometry" />
        </mxCell>
        <mxCell id="TUQ-kvWmkpdN_xwGLiBi-7" value="" style="shape=image;verticalLabelPosition=bottom;labelBackgroundColor=default;verticalAlign=top;aspect=fixed;imageAspect=0;image=data:image/png,iVBORw0KGgoAAAANSUhEUgAAAFYAAAAMCAYAAAD4Q0pmAAAACXBIWXMAAA6yAAAOVgELJwhfAAABXUlEQVR4nGP5//8/Awz8XL0u4ffO3f6/du4JAPGZtTUvsLm5bOBISZjIyMf3gWGYg+99k+r/XrtuwOruupHN3WUDJX5mARH/P30S+BQWs//v1esGyJIg/ncg/jF3YQHfqiWOoICmyOVDAIASFQh/ZWCYDwpccgMZHLDYAhUZwAKef+cmQyYZ6QcUuXwIAWyBzGppfoCYMGABZX98gQoDoMD91tDSzzNneiA1HD3UACyQQWxQzmUPDVrI5u66AVcgs/yYuyCfFMNBATwSylt8AJQQv11tNfjW0NqPK5BZiEmt6IayALMDld06ZAGuQGYh1SBQWUsLBw4WwCQt9UjgxEF5Ss1hAYUyKalW8OpZwZFeFBADWDiSEyZ+LSqfT4xiYDJfMBqoxAEWUGCBKjBCqRYUoJxFeY10cteQB+AyFtT4x9eWBQUqSM1IasNSCsABCwo4/h2bDEd6l5aaAABXGsbbVyNdQAAAAABJRU5ErkJggg==;" vertex="1" parent="1">
          <mxGeometry x="74" y="428.48" width="86" height="12" as="geometry" />
        </mxCell>
        <mxCell id="TUQ-kvWmkpdN_xwGLiBi-8" value="" style="shape=image;verticalLabelPosition=bottom;labelBackgroundColor=default;verticalAlign=top;aspect=fixed;imageAspect=0;image=data:image/png,iVBORw0KGgoAAAANSUhEUgAAAFYAAAAMCAYAAAD4Q0pmAAAACXBIWXMAAA6yAAAOVgELJwhfAAABPklEQVR4nGP5//8/Awz8XL0u4ffO3f6/du4JAPGZtTUvsLm5bOBISZjIyMf3gWEUEA1YQMT/T58EPoXF7P979boBsiSI/x2If8xdWMC3aokjKKAHwpFDEYADFlugIgNYwPPv3GTIJCP9gF6OG8qABZT98QUqDIAC91tDSz/PnOmBdHDXkAcsP+YuyCdWMajsBQXwaHlLGLAQk1qRAUg9i6X5Ado4Z/gAFlI1gMpaWjhkOABQ5c4eGrSQzd11AwuIQ0qqFbx6VnC4FgXf+ybVf++f3ECKHuTARK7YWTiSEyZ+LSqfT4whQAMWDNdAJQXgCkxkwAIKLFAFRijVggKUsyivkRYOHQqAzd1lA6u760ZWYP1CTJMTXMaCGv/42rKgQAWpGWltWFhggmhScyo4YEGa+HdsMhzt0lIWmMgAACQwoaIr4R1jAAAAAElFTkSuQmCC;" vertex="1" parent="1">
          <mxGeometry x="74" y="568.48" width="86" height="12" as="geometry" />
        </mxCell>
      </root>
    </mxGraphModel>
  </diagram>
</mxfile>
